<?xml version="1.0" encoding="UTF-8"?>
<svg width="700pt" height="700pt" version="1.1" viewBox="0 0 700 700" xmlns="http://www.w3.org/2000/svg" xmlns:xlink="http://www.w3.org/1999/xlink">
 <defs>
  <symbol id="s" overflow="visible">
   <path d="m0.26562-0.015625c-0.023437 0.011719-0.042969 0.015625-0.0625 0.015625h-0.03125c-0.042969 0-0.078125-0.0078125-0.10938-0.03125-0.03125-0.03125-0.046875-0.066406-0.046875-0.10938 0-0.039063 0.015625-0.070313 0.046875-0.09375 0.03125-0.03125 0.066406-0.046875 0.10938-0.046875h0.03125c0.019531 0 0.039063 0.007812 0.0625 0.015625v0.0625c-0.023437-0.007813-0.039063-0.015625-0.046875-0.015625-0.011719-0.007812-0.027344-0.015625-0.046875-0.015625-0.023437 0-0.042969 0.011719-0.0625 0.03125-0.011719 0.011719-0.015625 0.03125-0.015625 0.0625s0.0039062 0.058594 0.015625 0.078125c0.019531 0.011719 0.039063 0.015625 0.0625 0.015625h0.046875c0.007812-0.0078125 0.023438-0.019531 0.046875-0.03125z"/>
  </symbol>
  <symbol id="d" overflow="visible">
   <path d="m0.1875-0.15625h-0.015625-0.015625c-0.023438 0-0.039062 0.007812-0.046875 0.015625v0.046875 0.09375h-0.078125v-0.20312h0.078125v0.03125c0-0.019531 0.003906-0.03125 0.015625-0.03125 0.007812-0.007813 0.023438-0.015625 0.046875-0.015625h0.015625z"/>
  </symbol>
  <symbol id="a" overflow="visible">
   <path d="m0.23438-0.10938v0.03125h-0.15625c0.0078125 0.011719 0.015625 0.023438 0.015625 0.03125h0.046875 0.03125c0.019531 0 0.039063-0.0039062 0.0625-0.015625v0.046875c-0.023437 0.011719-0.042969 0.015625-0.0625 0.015625h-0.03125c-0.042969 0-0.074219-0.0039062-0.09375-0.015625-0.023438-0.019531-0.03125-0.050781-0.03125-0.09375 0-0.03125 0.0078125-0.054687 0.03125-0.078125 0.019531-0.019531 0.046875-0.03125 0.078125-0.03125 0.039062 0 0.066406 0.011719 0.078125 0.03125 0.019531 0.023438 0.03125 0.046875 0.03125 0.078125zm-0.0625-0.015625c0-0.019531-0.007813-0.03125-0.015625-0.03125 0-0.007812-0.011719-0.015625-0.03125-0.015625-0.011719 0-0.023438 0.007813-0.03125 0.015625 0 0-0.0078125 0.011719-0.015625 0.03125z"/>
  </symbol>
  <symbol id="j" overflow="visible">
   <path d="m0.125-0.09375c-0.011719 0-0.023438 0.0078125-0.03125 0.015625-0.011719 0-0.015625 0.0078125-0.015625 0.015625 0 0.011719 0.0039062 0.015625 0.015625 0.015625h0.015625 0.03125c0.007813-0.0078125 0.015625-0.019531 0.015625-0.03125v-0.015625zm0.10938-0.03125v0.125h-0.078125v-0.03125c0 0.011719-0.011719 0.023438-0.03125 0.03125h-0.03125c-0.023438 0-0.042969-0.0039062-0.0625-0.015625-0.011719-0.0078125-0.015625-0.023438-0.015625-0.046875 0-0.03125 0.0039062-0.046875 0.015625-0.046875 0.019531-0.007813 0.050781-0.015625 0.09375-0.015625h0.03125v-0.015625c0-0.007813-0.007812-0.015625-0.015625-0.015625 0-0.007812-0.011719-0.015625-0.03125-0.015625-0.011719 0-0.027344 0.007813-0.046875 0.015625h-0.03125v-0.046875h0.046875c0.019531-0.007813 0.035156-0.015625 0.046875-0.015625 0.039062 0 0.066406 0.011719 0.078125 0.03125 0.019531 0.011719 0.03125 0.03125 0.03125 0.0625z"/>
  </symbol>
  <symbol id="c" overflow="visible">
   <path d="m0.10938-0.26562v0.0625h0.0625v0.046875h-0.0625v0.078125 0.03125h0.015625 0.046875v0.046875h-0.0625c-0.023438 0-0.042969-0.0039062-0.0625-0.015625-0.011719-0.0078125-0.015625-0.03125-0.015625-0.0625v-0.078125h-0.03125v-0.046875h0.03125v-0.0625z"/>
  </symbol>
  <symbol id="i" overflow="visible">
   <path d="m0.17188-0.1875v-0.10938h0.0625v0.29688h-0.0625v-0.03125c-0.011719 0.011719-0.023437 0.023438-0.03125 0.03125h-0.03125c-0.03125 0-0.058594-0.0039062-0.078125-0.015625-0.011719-0.019531-0.015625-0.050781-0.015625-0.09375 0-0.03125 0.0039062-0.054687 0.015625-0.078125 0.019531-0.019531 0.046875-0.03125 0.078125-0.03125 0.007813 0 0.019531 0.007812 0.03125 0.015625 0.007813 0 0.019531 0.007813 0.03125 0.015625zm-0.046875 0.14062c0.019531 0 0.03125-0.0039062 0.03125-0.015625 0.007812-0.0078125 0.015625-0.023438 0.015625-0.046875 0-0.007813-0.007813-0.019531-0.015625-0.03125 0-0.019531-0.011719-0.03125-0.03125-0.03125-0.011719 0-0.023438 0.011719-0.03125 0.03125-0.011719 0.011719-0.015625 0.023437-0.015625 0.03125 0 0.023438 0.0039062 0.039062 0.015625 0.046875 0.007812 0.011719 0.019531 0.015625 0.03125 0.015625z"/>
  </symbol>
  <symbol id="h" overflow="visible">
   <path d="m0.14062-0.046875c0.019531 0 0.03125-0.0039062 0.03125-0.015625 0.007813-0.0078125 0.015625-0.023438 0.015625-0.046875 0-0.007813-0.007812-0.019531-0.015625-0.03125 0-0.019531-0.011719-0.03125-0.03125-0.03125-0.011719 0-0.023437 0.011719-0.03125 0.03125v0.03125 0.046875c0.007813 0.011719 0.019531 0.015625 0.03125 0.015625zm-0.03125-0.14062c0-0.007812 0.003906-0.015625 0.015625-0.015625 0.019531-0.007813 0.035156-0.015625 0.046875-0.015625 0.019531 0 0.039063 0.011719 0.0625 0.03125 0.019531 0.023438 0.03125 0.046875 0.03125 0.078125 0 0.042969-0.011719 0.074219-0.03125 0.09375-0.023437 0.011719-0.042969 0.015625-0.0625 0.015625h-0.046875c-0.011719-0.0078125-0.015625-0.019531-0.015625-0.03125v0.03125h-0.078125v-0.29688h0.078125z"/>
  </symbol>
  <symbol id="g" overflow="visible">
   <path d="m0-0.20312h0.078125l0.046875 0.14062 0.046875-0.14062h0.078125l-0.09375 0.21875c-0.011719 0.019531-0.023438 0.035156-0.03125 0.046875-0.011719 0.0078125-0.027344 0.015625-0.046875 0.015625h-0.046875v-0.046875h0.03125 0.015625c0.0078125 0 0.015625-0.0078125 0.015625-0.015625v-0.015625z"/>
  </symbol>
  <symbol id="e" overflow="visible">
   <path d="m0.03125-0.20312h0.078125v0.20312c0 0.019531-0.011719 0.035156-0.03125 0.046875-0.011719 0.019531-0.03125 0.03125-0.0625 0.03125h-0.03125v-0.046875h0.015625 0.015625c0.0078125 0 0.015625-0.011719 0.015625-0.03125zm0-0.09375h0.078125v0.0625h-0.078125z"/>
  </symbol>
  <symbol id="b" overflow="visible">
   <path d="m0.125-0.17188c-0.011719 0-0.023438 0.007813-0.03125 0.015625-0.011719 0.011719-0.015625 0.027344-0.015625 0.046875 0 0.023438 0.0039062 0.039062 0.015625 0.046875 0.007812 0.011719 0.019531 0.015625 0.03125 0.015625 0.019531 0 0.035156-0.0039062 0.046875-0.015625 0.007813-0.0078125 0.015625-0.023438 0.015625-0.046875 0-0.019531-0.007812-0.035156-0.015625-0.046875-0.011719-0.007812-0.027344-0.015625-0.046875-0.015625zm0-0.046875c0.039062 0 0.070312 0.011719 0.09375 0.03125 0.019531 0.023438 0.03125 0.046875 0.03125 0.078125 0 0.042969-0.011719 0.074219-0.03125 0.09375-0.023438 0.011719-0.054688 0.015625-0.09375 0.015625-0.03125 0-0.058594-0.0039062-0.078125-0.015625-0.023438-0.019531-0.03125-0.050781-0.03125-0.09375 0-0.03125 0.0078125-0.054687 0.03125-0.078125 0.019531-0.019531 0.046875-0.03125 0.078125-0.03125z"/>
  </symbol>
  <symbol id="f" overflow="visible">
   <path d="m0.25-0.125v0.125h-0.078125v-0.09375-0.03125-0.03125h-0.015625-0.015625c-0.011719 0-0.023437 0.007812-0.03125 0.015625v0.03125 0.10938h-0.078125v-0.20312h0.078125v0.015625c0-0.007812 0.003906-0.015625 0.015625-0.015625 0.019531-0.007813 0.035156-0.015625 0.046875-0.015625 0.019531 0 0.035156 0.011719 0.046875 0.03125 0.019531 0.011719 0.03125 0.03125 0.03125 0.0625z"/>
  </symbol>
  <symbol id="r" overflow="visible">
   <path d="m0.03125-0.20312h0.078125v0.20312h-0.078125zm0-0.09375h0.078125v0.0625h-0.078125z"/>
  </symbol>
  <symbol id="q" overflow="visible">
   <path d="m0.17188-0.29688v0.046875h-0.046875l-0.015625 0.015625v0.015625 0.015625h0.0625v0.046875h-0.0625v0.15625h-0.0625v-0.15625h-0.046875v-0.046875h0.046875v-0.015625c0-0.03125 0.0039062-0.050781 0.015625-0.0625 0.0078125-0.007812 0.03125-0.015625 0.0625-0.015625z"/>
  </symbol>
  <symbol id="p" overflow="visible">
   <path d="m0.23438-0.17188c0-0.007813 0.003906-0.019531 0.015625-0.03125 0.019531-0.007813 0.035156-0.015625 0.046875-0.015625 0.019531 0 0.035156 0.011719 0.046875 0.03125 0.019531 0.011719 0.03125 0.03125 0.03125 0.0625v0.125h-0.078125v-0.10938-0.015625c0-0.007812-0.007813-0.015625-0.015625-0.015625v-0.015625c-0.011719 0-0.023438 0.007812-0.03125 0.015625-0.011719 0.011719-0.015625 0.023437-0.015625 0.03125v0.10938h-0.0625v-0.10938c0-0.019531-0.007813-0.03125-0.015625-0.03125 0-0.007813-0.007812-0.015625-0.015625-0.015625-0.011719 0-0.023437 0.007812-0.03125 0.015625v0.03125 0.10938h-0.078125v-0.20312h0.078125v0.015625c0-0.007812 0.003906-0.015625 0.015625-0.015625 0.007812-0.007813 0.019531-0.015625 0.03125-0.015625 0.019531 0 0.035156 0.007812 0.046875 0.015625 0.007813 0.011719 0.019531 0.023437 0.03125 0.03125z"/>
  </symbol>
  <symbol id="o" overflow="visible">
   <path d="m0.25-0.125v0.125h-0.078125v-0.09375-0.03125-0.03125h-0.015625-0.015625c-0.011719 0-0.023437 0.007812-0.03125 0.015625v0.03125 0.10938h-0.078125v-0.29688h0.078125v0.10938c0-0.007812 0.003906-0.015625 0.015625-0.015625 0.019531-0.007813 0.035156-0.015625 0.046875-0.015625 0.019531 0 0.035156 0.011719 0.046875 0.03125 0.019531 0.011719 0.03125 0.03125 0.03125 0.0625z"/>
  </symbol>
  <symbol id="n" overflow="visible">
   <path d="m0.03125-0.28125h0.078125l0.10938 0.1875v-0.1875h0.0625v0.28125h-0.078125l-0.09375-0.1875v0.1875h-0.078125z"/>
  </symbol>
  <symbol id="m" overflow="visible">
   <path d="m0.03125-0.078125v-0.125h0.0625v0.015625 0.046875 0.03125 0.046875h0.015625v0.015625h0.015625c0.019531 0 0.03125-0.0039062 0.03125-0.015625 0.007812-0.0078125 0.015625-0.023438 0.015625-0.046875v-0.09375h0.0625v0.20312h-0.0625v-0.03125c-0.011719 0.011719-0.023437 0.023438-0.03125 0.03125h-0.03125c-0.03125 0-0.054688-0.0039062-0.0625-0.015625-0.011719-0.019531-0.015625-0.039062-0.015625-0.0625z"/>
  </symbol>
  <symbol id="l" overflow="visible">
   <path d="m0.03125-0.28125h0.125c0.03125 0 0.054688 0.011719 0.078125 0.03125 0.019531 0.011719 0.03125 0.03125 0.03125 0.0625s-0.011719 0.058594-0.03125 0.078125c-0.023437 0.011719-0.046875 0.015625-0.078125 0.015625h-0.046875v0.09375h-0.078125zm0.078125 0.046875v0.078125h0.046875 0.015625c0.007813-0.007812 0.015625-0.019531 0.015625-0.03125 0-0.007812-0.007812-0.019531-0.015625-0.03125 0-0.007812-0.007813-0.015625-0.015625-0.015625z"/>
  </symbol>
  <symbol id="k" overflow="visible">
   <path d="m0.20312-0.20312v0.046875h-0.03125c-0.011719-0.007812-0.023437-0.015625-0.03125-0.015625-0.011719 0-0.027344 0.011719-0.046875 0.03125-0.011719 0.011719-0.015625 0.023437-0.015625 0.03125 0 0.023438 0.0039062 0.039062 0.015625 0.046875 0.019531 0.011719 0.035156 0.015625 0.046875 0.015625h0.03125c0.007813 0 0.019531-0.0039062 0.03125-0.015625v0.0625h-0.03125-0.03125c-0.042969 0-0.074219-0.0039062-0.09375-0.015625-0.023438-0.019531-0.03125-0.050781-0.03125-0.09375 0-0.03125 0.0078125-0.054687 0.03125-0.078125 0.019531-0.019531 0.050781-0.03125 0.09375-0.03125 0.007813 0 0.019531 0.007812 0.03125 0.015625h0.03125z"/>
  </symbol>
 </defs>
 <g>
  <path d="m216.88 528.21h266.25c-1-58.52-38.859-43.852-32.484-121.18h-201.29c6.6797 76.875-31.488 62.512-32.484 121.18z"/>
  <path d="m202.74 560h294.52v-18.508h-294.52v18.508z"/>
  <path d="m456.09 375.84h-212.19c-12.059 0-11.75 19.66 0 19.66h212.19c11.98 0 11.672-19.66 0-19.66z"/>
  <path d="m301.73 0c-2.8398 14.898-2.457 29.797 1.0742 44.543 0.38281 1.0742 0.30859 2.3047-0.15234 3.457-5.5312 14.129-15.207 13.668-20.352 29.875-0.23047 0.61328-0.53906 1.2305-1 1.8438-19.738 24.344-39.473 48.766-59.211 73.188 0.15234 12.363 2.6094 20.66 7.2188 25.188 4.1484 4.1484 10.676 5.2227 19.277 3.5312 7.9102-9.4453 15.051-20.582 27.109-24.957 4.9922-1.9961 67.965 8.6016 54.066-33.867-4.0703-12.441 11.52-17.277 15.82-5.9883 38.477 101.29-108.28 138.62-100.22 247.59 70.039 0 140.08-0.078125 210.11-0.23047 0.46094-25.805 6.2969-50.379 16.82-74.262 46.387-105.06 4.0703-253.5-118.88-271.32-0.23047 2.5352-0.15234 6.5273 0 9.3711 0.38281 5.1445-5.8359 7.6797-9.1406 4.0703-11.211-11.98-26.801-26.57-42.547-32.023z"/>
  <use x="202.742188" y="561.152344" xlink:href="#s"/>
  <use x="203.023438" y="561.152344" xlink:href="#d"/>
  <use x="203.214844" y="561.152344" xlink:href="#a"/>
  <use x="203.472656" y="561.152344" xlink:href="#j"/>
  <use x="203.734375" y="561.152344" xlink:href="#c"/>
  <use x="203.917969" y="561.152344" xlink:href="#a"/>
  <use x="204.175781" y="561.152344" xlink:href="#i"/>
  <use x="204.585938" y="561.152344" xlink:href="#h"/>
  <use x="204.859375" y="561.152344" xlink:href="#g"/>
  <use x="205.246094" y="561.152344" xlink:href="#e"/>
  <use x="205.375" y="561.152344" xlink:href="#b"/>
  <use x="205.640625" y="561.152344" xlink:href="#f"/>
  <use x="205.914062" y="561.152344" xlink:href="#r"/>
  <use x="202.742188" y="561.535156" xlink:href="#q"/>
  <use x="202.910156" y="561.535156" xlink:href="#d"/>
  <use x="203.097656" y="561.535156" xlink:href="#b"/>
  <use x="203.363281" y="561.535156" xlink:href="#p"/>
  <use x="203.898438" y="561.535156" xlink:href="#c"/>
  <use x="204.082031" y="561.535156" xlink:href="#o"/>
  <use x="204.355469" y="561.535156" xlink:href="#a"/>
  <use x="204.746094" y="561.535156" xlink:href="#n"/>
  <use x="205.070312" y="561.535156" xlink:href="#b"/>
  <use x="205.332031" y="561.535156" xlink:href="#m"/>
  <use x="205.605469" y="561.535156" xlink:href="#f"/>
  <use x="206.011719" y="561.535156" xlink:href="#l"/>
  <use x="206.292969" y="561.535156" xlink:href="#d"/>
  <use x="206.484375" y="561.535156" xlink:href="#b"/>
  <use x="206.746094" y="561.535156" xlink:href="#e"/>
  <use x="206.878906" y="561.535156" xlink:href="#a"/>
  <use x="207.140625" y="561.535156" xlink:href="#k"/>
  <use x="207.367188" y="561.535156" xlink:href="#c"/>
 </g>
</svg>
