<?xml version="1.0" encoding="UTF-8"?>
<svg width="700pt" height="700pt" version="1.1" viewBox="0 0 700 700" xmlns="http://www.w3.org/2000/svg" xmlns:xlink="http://www.w3.org/1999/xlink">
 <defs>
  <symbol id="s" overflow="visible">
   <path d="m0.21875-0.015625c-0.011719 0.011719-0.027344 0.015625-0.046875 0.015625h-0.03125c-0.042969 0-0.074219-0.0078125-0.09375-0.03125-0.023438-0.019531-0.03125-0.046875-0.03125-0.078125 0-0.039063 0.0078125-0.070313 0.03125-0.09375 0.019531-0.019531 0.050781-0.03125 0.09375-0.03125h0.03125c0.019531 0 0.035156 0.007813 0.046875 0.015625v0.046875c-0.011719-0.007813-0.027344-0.015625-0.046875-0.015625h-0.03125c-0.023437 0-0.039063 0.007812-0.046875 0.015625-0.011719 0.011719-0.015625 0.03125-0.015625 0.0625 0 0.023438 0.0039062 0.039062 0.015625 0.046875 0.007812 0.011719 0.023438 0.015625 0.046875 0.015625h0.03125c0.019531 0 0.035156-0.0039062 0.046875-0.015625z"/>
  </symbol>
  <symbol id="d" overflow="visible">
   <path d="m0.15625-0.125h-0.015625c0-0.007812-0.007813-0.015625-0.015625-0.015625-0.011719 0-0.023438 0.007813-0.03125 0.015625-0.011719 0.011719-0.015625 0.027344-0.015625 0.046875v0.078125h-0.046875v-0.17188h0.046875v0.03125c0.0078125-0.007813 0.019531-0.015625 0.03125-0.015625 0.007813-0.007812 0.019531-0.015625 0.03125-0.015625h0.015625z"/>
  </symbol>
  <symbol id="a" overflow="visible">
   <path d="m0.20312-0.09375v0.03125h-0.14062c0.0078125 0.011719 0.015625 0.023438 0.015625 0.03125h0.046875 0.03125c0.007812-0.0078125 0.019531-0.015625 0.03125-0.015625v0.03125c-0.011719 0.011719-0.023438 0.015625-0.03125 0.015625h-0.046875c-0.03125 0-0.058594-0.0039062-0.078125-0.015625-0.011719-0.019531-0.015625-0.039062-0.015625-0.0625 0-0.03125 0.0039062-0.050781 0.015625-0.0625 0.019531-0.019531 0.046875-0.03125 0.078125-0.03125 0.019531 0 0.039063 0.011719 0.0625 0.03125 0.019531 0.011719 0.03125 0.027344 0.03125 0.046875zm-0.0625-0.015625c0-0.007813-0.007813-0.015625-0.015625-0.015625 0-0.007812-0.007812-0.015625-0.015625-0.015625-0.011719 0-0.023438 0.007813-0.03125 0.015625 0 0-0.0078125 0.007812-0.015625 0.015625z"/>
  </symbol>
  <symbol id="j" overflow="visible">
   <path d="m0.10938-0.078125c-0.011719 0-0.023438 0.0078125-0.03125 0.015625-0.011719 0-0.015625 0.0078125-0.015625 0.015625v0.015625h0.03125 0.03125c0.007812-0.0078125 0.015625-0.019531 0.015625-0.03125v-0.015625zm0.078125-0.015625v0.09375h-0.046875v-0.03125c-0.011719 0.011719-0.023437 0.023438-0.03125 0.03125h-0.03125c-0.023438 0-0.039062-0.0039062-0.046875-0.015625-0.011719-0.0078125-0.015625-0.019531-0.015625-0.03125 0-0.019531 0.0039062-0.035156 0.015625-0.046875 0.0078125-0.007812 0.03125-0.015625 0.0625-0.015625h0.046875c0-0.007813-0.007813-0.015625-0.015625-0.015625-0.011719-0.007812-0.023438-0.015625-0.03125-0.015625h-0.03125c-0.011719 0-0.023438 0.007813-0.03125 0.015625v-0.046875h0.03125 0.03125c0.03125 0 0.050781 0.007813 0.0625 0.015625 0.019531 0.011719 0.03125 0.03125 0.03125 0.0625z"/>
  </symbol>
  <symbol id="c" overflow="visible">
   <path d="m0.09375-0.21875v0.046875h0.046875v0.03125h-0.046875v0.078125 0.015625h0.015625 0.03125v0.046875h-0.046875c-0.023438 0-0.039062-0.0039062-0.046875-0.015625-0.011719-0.0078125-0.015625-0.023438-0.015625-0.046875v-0.078125h-0.03125v-0.03125h0.03125v-0.046875z"/>
  </symbol>
  <symbol id="i" overflow="visible">
   <path d="m0.14062-0.14062v-0.09375h0.0625v0.23438h-0.0625v-0.03125c0 0.011719-0.007813 0.023438-0.015625 0.03125h-0.03125c-0.03125 0-0.054688-0.0039062-0.0625-0.015625-0.011719-0.019531-0.015625-0.039062-0.015625-0.0625 0-0.03125 0.0039062-0.050781 0.015625-0.0625 0.0078125-0.019531 0.03125-0.03125 0.0625-0.03125 0.007812 0 0.019531 0.007813 0.03125 0.015625 0.007812 0 0.015625 0.007812 0.015625 0.015625zm-0.03125 0.10938c0.007813 0 0.015625-0.0039062 0.015625-0.015625 0.007812-0.0078125 0.015625-0.019531 0.015625-0.03125 0-0.019531-0.007813-0.035156-0.015625-0.046875 0-0.007812-0.007812-0.015625-0.015625-0.015625-0.011719 0-0.023438 0.007813-0.03125 0.015625-0.011719 0.011719-0.015625 0.027344-0.015625 0.046875 0 0.011719 0.0039062 0.023438 0.015625 0.03125 0.0078125 0.011719 0.019531 0.015625 0.03125 0.015625z"/>
  </symbol>
  <symbol id="h" overflow="visible">
   <path d="m0.125-0.03125c0.007812 0 0.015625-0.0039062 0.015625-0.015625 0.007813-0.0078125 0.015625-0.019531 0.015625-0.03125 0-0.019531-0.007812-0.035156-0.015625-0.046875 0-0.007812-0.007813-0.015625-0.015625-0.015625-0.023438 0-0.039062 0.007813-0.046875 0.015625v0.046875 0.03125c0.0078125 0.011719 0.023437 0.015625 0.046875 0.015625zm-0.046875-0.10938c0.0078125-0.007813 0.019531-0.015625 0.03125-0.015625 0.007813-0.007812 0.019531-0.015625 0.03125-0.015625 0.019531 0 0.035156 0.011719 0.046875 0.03125 0.019531 0.011719 0.03125 0.03125 0.03125 0.0625 0 0.023438-0.011719 0.042969-0.03125 0.0625-0.011719 0.011719-0.027344 0.015625-0.046875 0.015625h-0.03125c-0.011719-0.0078125-0.023438-0.019531-0.03125-0.03125v0.03125h-0.046875v-0.23438h0.046875z"/>
  </symbol>
  <symbol id="g" overflow="visible">
   <path d="m0-0.17188h0.0625l0.046875 0.125 0.03125-0.125h0.0625l-0.078125 0.1875c0 0.019531-0.007812 0.03125-0.015625 0.03125-0.011719 0.0078125-0.027344 0.015625-0.046875 0.015625h-0.03125v-0.03125h0.015625 0.015625c0.0078125 0 0.015625-0.0078125 0.015625-0.015625v-0.015625z"/>
  </symbol>
  <symbol id="e" overflow="visible">
   <path d="m0.03125-0.17188h0.046875v0.17188c0 0.019531-0.0078125 0.035156-0.015625 0.046875-0.011719 0.0078125-0.027344 0.015625-0.046875 0.015625h-0.03125v-0.03125h0.015625c0.0078125 0 0.015625-0.0078125 0.015625-0.015625 0.0078125 0 0.015625-0.0078125 0.015625-0.015625zm0-0.0625h0.046875v0.03125h-0.046875z"/>
  </symbol>
  <symbol id="b" overflow="visible">
   <path d="m0.10938-0.14062c-0.011719 0-0.023438 0.007813-0.03125 0.015625-0.011719 0.011719-0.015625 0.027344-0.015625 0.046875 0 0.011719 0.0039062 0.023438 0.015625 0.03125 0.0078125 0.011719 0.019531 0.015625 0.03125 0.015625 0.007813 0 0.015625-0.0039062 0.015625-0.015625 0.007812-0.0078125 0.015625-0.019531 0.015625-0.03125 0-0.019531-0.007813-0.035156-0.015625-0.046875 0-0.007812-0.007812-0.015625-0.015625-0.015625zm0-0.03125c0.03125 0 0.050781 0.011719 0.0625 0.03125 0.019531 0.011719 0.03125 0.03125 0.03125 0.0625 0 0.023438-0.011719 0.042969-0.03125 0.0625-0.011719 0.011719-0.03125 0.015625-0.0625 0.015625s-0.058594-0.0039062-0.078125-0.015625c-0.011719-0.019531-0.015625-0.039062-0.015625-0.0625 0-0.03125 0.0039062-0.050781 0.015625-0.0625 0.019531-0.019531 0.046875-0.03125 0.078125-0.03125z"/>
  </symbol>
  <symbol id="f" overflow="visible">
   <path d="m0.20312-0.10938v0.10938h-0.0625v-0.078125-0.03125-0.015625h-0.015625v-0.015625c-0.011719 0-0.023438 0.007813-0.03125 0.015625-0.011719 0.011719-0.015625 0.027344-0.015625 0.046875v0.078125h-0.046875v-0.17188h0.046875v0.03125c0.0078125-0.007813 0.019531-0.015625 0.03125-0.015625 0.007813-0.007812 0.019531-0.015625 0.03125-0.015625 0.019531 0 0.035156 0.007813 0.046875 0.015625 0.007812 0.011719 0.015625 0.027344 0.015625 0.046875z"/>
  </symbol>
  <symbol id="r" overflow="visible">
   <path d="m0.03125-0.17188h0.046875v0.17188h-0.046875zm0-0.0625h0.046875v0.03125h-0.046875z"/>
  </symbol>
  <symbol id="q" overflow="visible">
   <path d="m0.14062-0.23438v0.03125h-0.03125-0.015625v0.015625 0.015625h0.046875v0.03125h-0.046875v0.14062h-0.0625v-0.14062h-0.03125v-0.03125h0.03125v-0.015625c0-0.019531 0.0039062-0.03125 0.015625-0.03125 0.0078125-0.007812 0.023438-0.015625 0.046875-0.015625z"/>
  </symbol>
  <symbol id="p" overflow="visible">
   <path d="m0.1875-0.14062c0.007812-0.007813 0.019531-0.015625 0.03125-0.015625l0.015625-0.015625c0.019531 0 0.035156 0.007813 0.046875 0.015625 0.019531 0.011719 0.03125 0.027344 0.03125 0.046875v0.10938h-0.0625v-0.09375c0-0.019531-0.007812-0.03125-0.015625-0.03125v-0.015625c-0.011719 0-0.023437 0.007813-0.03125 0.015625-0.011719 0.011719-0.015625 0.027344-0.015625 0.046875v0.078125h-0.046875v-0.09375c0-0.019531-0.007813-0.03125-0.015625-0.03125 0-0.007812-0.007812-0.015625-0.015625-0.015625-0.011719 0-0.023438 0.007813-0.03125 0.015625v0.046875 0.078125h-0.046875v-0.17188h0.046875v0.03125c0.0078125-0.007813 0.019531-0.015625 0.03125-0.015625 0.007813-0.007812 0.019531-0.015625 0.03125-0.015625 0.007813 0 0.015625 0.007813 0.015625 0.015625 0.007812 0 0.019531 0.007812 0.03125 0.015625z"/>
  </symbol>
  <symbol id="o" overflow="visible">
   <path d="m0.20312-0.10938v0.10938h-0.0625v-0.078125-0.03125-0.015625h-0.015625v-0.015625c-0.011719 0-0.023438 0.007813-0.03125 0.015625-0.011719 0.011719-0.015625 0.027344-0.015625 0.046875v0.078125h-0.046875v-0.23438h0.046875v0.09375c0.0078125-0.007813 0.019531-0.015625 0.03125-0.015625 0.007813-0.007812 0.019531-0.015625 0.03125-0.015625 0.019531 0 0.035156 0.007813 0.046875 0.015625 0.007812 0.011719 0.015625 0.027344 0.015625 0.046875z"/>
  </symbol>
  <symbol id="n" overflow="visible">
   <path d="m0.03125-0.23438h0.0625l0.078125 0.15625v-0.15625h0.0625v0.23438h-0.0625l-0.09375-0.15625v0.15625h-0.046875z"/>
  </symbol>
  <symbol id="m" overflow="visible">
   <path d="m0.03125-0.0625v-0.10938h0.046875v0.015625 0.046875 0.015625 0.046875h0.015625 0.015625 0.015625c0.007812-0.0078125 0.015625-0.023438 0.015625-0.046875v-0.078125h0.0625v0.17188h-0.0625v-0.03125c-0.011719 0.011719-0.023437 0.023438-0.03125 0.03125h-0.03125c-0.023438 0-0.039062-0.0039062-0.046875-0.015625v-0.046875z"/>
  </symbol>
  <symbol id="l" overflow="visible">
   <path d="m0.03125-0.23438h0.09375c0.03125 0 0.050781 0.011719 0.0625 0.03125 0.019531 0.011719 0.03125 0.027344 0.03125 0.046875 0 0.023438-0.011719 0.042969-0.03125 0.0625-0.011719 0.011719-0.03125 0.015625-0.0625 0.015625h-0.03125v0.078125h-0.0625zm0.0625 0.046875v0.0625h0.03125 0.015625c0.007813-0.007812 0.015625-0.019531 0.015625-0.03125 0-0.007812-0.007812-0.015625-0.015625-0.015625 0-0.007813-0.007813-0.015625-0.015625-0.015625z"/>
  </symbol>
  <symbol id="k" overflow="visible">
   <path d="m0.17188-0.17188v0.046875h-0.03125c0-0.007812-0.007813-0.015625-0.015625-0.015625-0.023438 0-0.039062 0.007813-0.046875 0.015625-0.011719 0.011719-0.015625 0.027344-0.015625 0.046875 0 0.011719 0.0039062 0.023438 0.015625 0.03125 0.0078125 0.011719 0.023437 0.015625 0.046875 0.015625h0.015625c0.007813-0.0078125 0.019531-0.015625 0.03125-0.015625v0.046875h-0.03125-0.03125c-0.03125 0-0.058594-0.0039062-0.078125-0.015625-0.011719-0.019531-0.015625-0.039062-0.015625-0.0625 0-0.03125 0.0039062-0.050781 0.015625-0.0625 0.019531-0.019531 0.046875-0.03125 0.078125-0.03125h0.03125 0.03125z"/>
  </symbol>
 </defs>
 <g>
  <path d="m282.2 423.07h135.54c-20.484-56.52-19.281-111.9-23.203-169.11h-89.141c-3.918 57.215-2.7812 112.53-23.203 169.11z"/>
  <path d="m255.27 431.86v15.234h189.41v-15.234h-189.41z"/>
  <path d="m432.85 455.88h-165.7c5.8789 54.496-25.855 38.312-26.742 80.098h219.18c-0.88672-41.727-32.367-25.098-26.742-80.098z"/>
  <path d="m228.78 544.77v15.234h242.45v-15.234z"/>
  <path d="m357.24 3.0352c-6.4492-6.4492-17.512-1.8984-17.512 7.2695 0 9.1055 11.062 13.719 17.512 7.2695 4.0469-4.0469 4.0469-10.559 0-14.539z"/>
  <path d="m356.23 30.156c-4.0469 1.2656-8.4727 1.2656-12.516 0-27.121 25.035-64.738 58.227-65.496 98.055 0.88672 26.488 13.719 54.305 36.352 68.973h70.805c22.695-14.668 35.465-42.547 36.414-69.035-0.44141-22.824-13.215-43.305-27.562-60.25l-31.926 68.719c-6.9531 15.047-29.332 4.2344-22.508-10.43l36.098-77.695c-6.4492-6.2578-13.086-12.266-19.66-18.332z"/>
  <path d="m417.55 230.12h-135.1c-9.8008 0-9.5469 14.918 0 14.918h135.1c9.8008 0 9.5469-14.918 0-14.918z"/>
  <path d="m305.08 205.97v15.238h89.773v-15.238z"/>
  <use x="228.777344" y="560.949219" xlink:href="#s"/>
  <use x="229.007813" y="560.949219" xlink:href="#d"/>
  <use x="229.164062" y="560.949219" xlink:href="#a"/>
  <use x="229.378906" y="560.949219" xlink:href="#j"/>
  <use x="229.59375" y="560.949219" xlink:href="#c"/>
  <use x="229.742188" y="560.949219" xlink:href="#a"/>
  <use x="229.957031" y="560.949219" xlink:href="#i"/>
  <use x="230.292969" y="560.949219" xlink:href="#h"/>
  <use x="230.519531" y="560.949219" xlink:href="#g"/>
  <use x="230.835938" y="560.949219" xlink:href="#e"/>
  <use x="230.945312" y="560.949219" xlink:href="#b"/>
  <use x="231.160156" y="560.949219" xlink:href="#f"/>
  <use x="231.386719" y="560.949219" xlink:href="#r"/>
  <use x="228.777344" y="561.265625" xlink:href="#q"/>
  <use x="228.914062" y="561.265625" xlink:href="#d"/>
  <use x="229.070313" y="561.265625" xlink:href="#b"/>
  <use x="229.285156" y="561.265625" xlink:href="#p"/>
  <use x="229.726562" y="561.265625" xlink:href="#c"/>
  <use x="229.878906" y="561.265625" xlink:href="#o"/>
  <use x="230.101563" y="561.265625" xlink:href="#a"/>
  <use x="230.425781" y="561.265625" xlink:href="#n"/>
  <use x="230.691406" y="561.265625" xlink:href="#b"/>
  <use x="230.910156" y="561.265625" xlink:href="#m"/>
  <use x="231.132812" y="561.265625" xlink:href="#f"/>
  <use x="231.46875" y="561.265625" xlink:href="#l"/>
  <use x="231.699219" y="561.265625" xlink:href="#d"/>
  <use x="231.855469" y="561.265625" xlink:href="#b"/>
  <use x="232.074219" y="561.265625" xlink:href="#e"/>
  <use x="232.183594" y="561.265625" xlink:href="#a"/>
  <use x="232.394531" y="561.265625" xlink:href="#k"/>
  <use x="232.582031" y="561.265625" xlink:href="#c"/>
 </g>
</svg>
