<?xml version="1.0" encoding="UTF-8"?>
<svg width="700pt" height="700pt" version="1.1" viewBox="0 0 700 700" xmlns="http://www.w3.org/2000/svg" xmlns:xlink="http://www.w3.org/1999/xlink">
 <defs>
  <symbol id="s" overflow="visible">
   <path d="m0.34375-0.03125c-0.011719 0.011719-0.027344 0.023438-0.046875 0.03125-0.023437 0.0078125-0.042969 0.015625-0.0625 0.015625-0.0625 0-0.11719-0.015625-0.15625-0.046875-0.03125-0.039062-0.046875-0.09375-0.046875-0.15625s0.015625-0.10938 0.046875-0.14062c0.039063-0.039063 0.09375-0.0625 0.15625-0.0625 0.019531 0 0.039063 0.007813 0.0625 0.015625 0.019531 0 0.035156 0.007812 0.046875 0.015625v0.078125c-0.011719-0.007812-0.027344-0.015625-0.046875-0.015625-0.023437-0.007813-0.042969-0.015625-0.0625-0.015625-0.03125 0-0.058594 0.011719-0.078125 0.03125-0.023438 0.023438-0.03125 0.054688-0.03125 0.09375 0 0.042969 0.007812 0.074219 0.03125 0.09375 0.019531 0.023438 0.046875 0.03125 0.078125 0.03125h0.0625c0.019531-0.0078125 0.035156-0.019531 0.046875-0.03125z"/>
  </symbol>
  <symbol id="d" overflow="visible">
   <path d="m0.25-0.20312h-0.015625c-0.011719-0.007813-0.023437-0.015625-0.03125-0.015625-0.023437 0-0.039063 0.011719-0.046875 0.03125-0.011719 0.011719-0.015625 0.03125-0.015625 0.0625v0.125h-0.09375v-0.28125h0.09375v0.046875c0.007813-0.019531 0.019531-0.035156 0.03125-0.046875 0.007813-0.007812 0.03125-0.015625 0.0625-0.015625h0.015625z"/>
  </symbol>
  <symbol id="a" overflow="visible">
   <path d="m0.32812-0.14062v0.03125h-0.21875c0.007813 0.023438 0.019531 0.039062 0.03125 0.046875h0.046875 0.0625c0.019531-0.0078125 0.039062-0.019531 0.0625-0.03125v0.078125c-0.023438 0-0.042969 0.0078125-0.0625 0.015625-0.023438 0.0078125-0.042969 0.015625-0.0625 0.015625-0.054688 0-0.09375-0.015625-0.125-0.046875-0.023438-0.03125-0.03125-0.066406-0.03125-0.10938 0-0.039063 0.0078125-0.078125 0.03125-0.10938 0.03125-0.03125 0.066406-0.046875 0.10938-0.046875 0.050781 0 0.085937 0.015625 0.10938 0.046875 0.03125 0.03125 0.046875 0.070312 0.046875 0.10938zm-0.09375-0.03125c0-0.019531-0.007813-0.035156-0.015625-0.046875-0.011719-0.007812-0.027344-0.015625-0.046875-0.015625-0.011719 0-0.023437 0.007813-0.03125 0.015625-0.011719 0.011719-0.023437 0.027344-0.03125 0.046875z"/>
  </symbol>
  <symbol id="j" overflow="visible">
   <path d="m0.17188-0.125c-0.023437 0-0.039063 0.007812-0.046875 0.015625-0.011719 0-0.015625 0.007813-0.015625 0.015625 0 0.011719 0.003906 0.023438 0.015625 0.03125h0.03125c0.019531 0 0.035156-0.0039062 0.046875-0.015625 0.007813-0.0078125 0.015625-0.019531 0.015625-0.03125v-0.015625zm0.14062-0.03125v0.15625h-0.09375v-0.046875c-0.011719 0.023438-0.027344 0.039062-0.046875 0.046875-0.011719 0.0078125-0.027344 0.015625-0.046875 0.015625-0.03125 0-0.058594-0.011719-0.078125-0.03125-0.011719-0.019531-0.015625-0.046875-0.015625-0.078125s0.0078125-0.050781 0.03125-0.0625c0.019531-0.007812 0.050781-0.015625 0.09375-0.015625h0.0625v-0.015625c0-0.007812-0.007812-0.019531-0.015625-0.03125-0.011719-0.007812-0.03125-0.015625-0.0625-0.015625-0.011719 0-0.027344 0.007813-0.046875 0.015625-0.023438 0-0.039062 0.007812-0.046875 0.015625v-0.078125h0.0625c0.019531-0.007812 0.035156-0.015625 0.046875-0.015625 0.0625 0 0.10156 0.011719 0.125 0.03125 0.019531 0.023437 0.03125 0.058594 0.03125 0.10938z"/>
  </symbol>
  <symbol id="c" overflow="visible">
   <path d="m0.14062-0.35938v0.078125h0.09375v0.0625h-0.09375v0.125 0.03125h0.03125 0.0625v0.0625h-0.078125c-0.042969 0-0.074219-0.0039062-0.09375-0.015625-0.011719-0.019531-0.015625-0.046875-0.015625-0.078125v-0.125h-0.03125v-0.0625h0.03125v-0.078125z"/>
  </symbol>
  <symbol id="i" overflow="visible">
   <path d="m0.23438-0.25v-0.14062h0.09375v0.39062h-0.09375v-0.046875c-0.011719 0.023438-0.027344 0.039062-0.046875 0.046875-0.011719 0.0078125-0.027344 0.015625-0.046875 0.015625-0.03125 0-0.058594-0.015625-0.078125-0.046875-0.023438-0.03125-0.03125-0.066406-0.03125-0.10938 0-0.039063 0.0078125-0.078125 0.03125-0.10938 0.019531-0.03125 0.046875-0.046875 0.078125-0.046875 0.019531 0 0.035156 0.007813 0.046875 0.015625 0.019531 0.011719 0.035156 0.023438 0.046875 0.03125zm-0.0625 0.1875c0.019531 0 0.035156-0.0039062 0.046875-0.015625 0.007812-0.0078125 0.015625-0.03125 0.015625-0.0625 0-0.019531-0.007813-0.039063-0.015625-0.0625-0.011719-0.019531-0.027344-0.03125-0.046875-0.03125-0.023437 0-0.039063 0.011719-0.046875 0.03125-0.011719 0.023437-0.015625 0.042969-0.015625 0.0625 0 0.03125 0.003906 0.054688 0.015625 0.0625 0.007812 0.011719 0.023438 0.015625 0.046875 0.015625z"/>
  </symbol>
  <symbol id="h" overflow="visible">
   <path d="m0.1875-0.0625c0.03125 0 0.046875-0.0039062 0.046875-0.015625 0.007813-0.0078125 0.015625-0.03125 0.015625-0.0625 0-0.019531-0.007812-0.039063-0.015625-0.0625 0-0.019531-0.015625-0.03125-0.046875-0.03125-0.023438 0-0.039062 0.011719-0.046875 0.03125v0.0625 0.0625c0.007813 0.011719 0.023437 0.015625 0.046875 0.015625zm-0.046875-0.1875c0.007813-0.007812 0.019531-0.019531 0.03125-0.03125 0.019531-0.007812 0.039063-0.015625 0.0625-0.015625 0.03125 0 0.054687 0.015625 0.078125 0.046875 0.019531 0.03125 0.03125 0.070312 0.03125 0.10938 0 0.042969-0.011719 0.078125-0.03125 0.10938-0.023438 0.03125-0.046875 0.046875-0.078125 0.046875-0.023437 0-0.042969-0.0078125-0.0625-0.015625-0.011719-0.0078125-0.023437-0.023438-0.03125-0.046875v0.046875h-0.09375v-0.39062h0.09375z"/>
  </symbol>
  <symbol id="g" overflow="visible">
   <path d="m0.015625-0.28125h0.078125l0.078125 0.1875 0.0625-0.1875h0.09375l-0.125 0.3125c-0.011719 0.03125-0.027344 0.050781-0.046875 0.0625-0.011719 0.007812-0.027344 0.015625-0.046875 0.015625h-0.0625v-0.0625h0.03125 0.03125c0.007813 0 0.015625-0.011719 0.015625-0.03125z"/>
  </symbol>
  <symbol id="e" overflow="visible">
   <path d="m0.046875-0.28125h0.09375v0.26562c0 0.039062-0.011719 0.070312-0.03125 0.09375-0.023438 0.019531-0.046875 0.03125-0.078125 0.03125h-0.046875v-0.0625h0.015625c0.019531 0 0.03125-0.0078125 0.03125-0.015625 0.0078125 0 0.015625-0.015625 0.015625-0.046875zm0-0.10938h0.09375v0.0625h-0.09375z"/>
  </symbol>
  <symbol id="b" overflow="visible">
   <path d="m0.17188-0.23438c-0.023437 0-0.039063 0.011719-0.046875 0.03125-0.011719 0.011719-0.015625 0.03125-0.015625 0.0625s0.003906 0.054688 0.015625 0.0625c0.007812 0.011719 0.023438 0.015625 0.046875 0.015625 0.019531 0 0.035156-0.0039062 0.046875-0.015625 0.019531-0.0078125 0.03125-0.03125 0.03125-0.0625s-0.011719-0.050781-0.03125-0.0625c-0.011719-0.019531-0.027344-0.03125-0.046875-0.03125zm0-0.0625c0.050781 0 0.085937 0.015625 0.10938 0.046875 0.03125 0.03125 0.046875 0.070312 0.046875 0.10938 0 0.042969-0.015625 0.078125-0.046875 0.10938-0.023438 0.03125-0.058594 0.046875-0.10938 0.046875-0.042969 0-0.078125-0.015625-0.10938-0.046875-0.023438-0.03125-0.03125-0.066406-0.03125-0.10938 0-0.039063 0.0078125-0.078125 0.03125-0.10938 0.03125-0.03125 0.066406-0.046875 0.10938-0.046875z"/>
  </symbol>
  <symbol id="f" overflow="visible">
   <path d="m0.32812-0.17188v0.17188h-0.09375v-0.125-0.046875-0.03125h-0.015625c-0.011719-0.007813-0.023438-0.015625-0.03125-0.015625-0.011719 0-0.023438 0.011719-0.03125 0.03125-0.011719 0.011719-0.015625 0.027344-0.015625 0.046875v0.14062h-0.09375v-0.28125h0.09375v0.03125c0.007813-0.007812 0.019531-0.019531 0.03125-0.03125 0.019531-0.007812 0.039063-0.015625 0.0625-0.015625 0.03125 0 0.050781 0.011719 0.0625 0.03125 0.019531 0.023437 0.03125 0.054687 0.03125 0.09375z"/>
  </symbol>
  <symbol id="r" overflow="visible">
   <path d="m0.046875-0.28125h0.09375v0.28125h-0.09375zm0-0.10938h0.09375v0.0625h-0.09375z"/>
  </symbol>
  <symbol id="q" overflow="visible">
   <path d="m0.23438-0.39062v0.0625h-0.0625-0.03125v0.03125 0.015625h0.09375v0.0625h-0.09375v0.21875h-0.078125v-0.21875h-0.046875v-0.0625h0.046875v-0.015625c0-0.03125 0.0039062-0.050781 0.015625-0.0625 0.019531-0.019531 0.046875-0.03125 0.078125-0.03125z"/>
  </symbol>
  <symbol id="p" overflow="visible">
   <path d="m0.3125-0.23438c0.007812-0.019531 0.019531-0.035156 0.03125-0.046875 0.019531-0.007812 0.035156-0.015625 0.046875-0.015625 0.039063 0 0.066406 0.011719 0.078125 0.03125 0.019531 0.023437 0.03125 0.054687 0.03125 0.09375v0.17188h-0.09375v-0.14062-0.015625c0-0.019531-0.007812-0.035156-0.015625-0.046875 0-0.007813-0.007813-0.015625-0.015625-0.015625-0.023438 0-0.039062 0.011719-0.046875 0.03125-0.011719 0.011719-0.015625 0.027344-0.015625 0.046875v0.14062h-0.078125v-0.14062c0-0.03125-0.007813-0.050781-0.015625-0.0625-0.011719-0.007813-0.023438-0.015625-0.03125-0.015625-0.023438 0-0.039062 0.011719-0.046875 0.03125v0.046875 0.14062h-0.09375v-0.28125h0.09375v0.03125c0.007813-0.007812 0.019531-0.019531 0.03125-0.03125 0.007813-0.007812 0.023437-0.015625 0.046875-0.015625 0.019531 0 0.035156 0.007813 0.046875 0.015625 0.019531 0.011719 0.035156 0.027344 0.046875 0.046875z"/>
  </symbol>
  <symbol id="o" overflow="visible">
   <path d="m0.32812-0.17188v0.17188h-0.09375v-0.125-0.046875-0.03125h-0.015625c-0.011719-0.007813-0.023438-0.015625-0.03125-0.015625-0.011719 0-0.023438 0.011719-0.03125 0.03125-0.011719 0.011719-0.015625 0.027344-0.015625 0.046875v0.14062h-0.09375v-0.39062h0.09375v0.14062c0.007813-0.007812 0.019531-0.019531 0.03125-0.03125 0.019531-0.007812 0.039063-0.015625 0.0625-0.015625 0.03125 0 0.050781 0.011719 0.0625 0.03125 0.019531 0.023437 0.03125 0.054687 0.03125 0.09375z"/>
  </symbol>
  <symbol id="n" overflow="visible">
   <path d="m0.046875-0.375h0.10938l0.14062 0.25v-0.25h0.09375v0.375h-0.10938l-0.14062-0.26562v0.26562h-0.09375z"/>
  </symbol>
  <symbol id="m" overflow="visible">
   <path d="m0.046875-0.10938v-0.17188h0.078125v0.015625 0.078125 0.03125 0.0625c0.007812 0 0.015625 0.0078125 0.015625 0.015625v0.015625h0.03125c0.019531 0 0.035156-0.0039062 0.046875-0.015625 0.007812-0.019531 0.015625-0.039063 0.015625-0.0625v-0.14062h0.09375v0.28125h-0.09375v-0.046875c-0.023437 0.023438-0.039063 0.039062-0.046875 0.046875-0.011719 0.0078125-0.027344 0.015625-0.046875 0.015625-0.03125 0-0.058594-0.011719-0.078125-0.03125-0.011719-0.03125-0.015625-0.0625-0.015625-0.09375z"/>
  </symbol>
  <symbol id="l" overflow="visible">
   <path d="m0.046875-0.375h0.15625c0.050781 0 0.085937 0.011719 0.10938 0.03125 0.03125 0.023438 0.046875 0.054688 0.046875 0.09375 0 0.042969-0.015625 0.074219-0.046875 0.09375-0.023438 0.023438-0.058594 0.03125-0.10938 0.03125h-0.0625v0.125h-0.09375zm0.09375 0.0625v0.10938h0.0625c0.019531 0 0.035156-0.003906 0.046875-0.015625 0.007812-0.007812 0.015625-0.019531 0.015625-0.03125 0-0.019531-0.007813-0.035156-0.015625-0.046875-0.011719-0.007813-0.027344-0.015625-0.046875-0.015625z"/>
  </symbol>
  <symbol id="k" overflow="visible">
   <path d="m0.28125-0.28125v0.078125c-0.023438 0-0.039062-0.003906-0.046875-0.015625-0.011719-0.007812-0.027344-0.015625-0.046875-0.015625-0.023438 0-0.042969 0.011719-0.0625 0.03125-0.011719 0.023437-0.015625 0.042969-0.015625 0.0625 0 0.023437 0.003906 0.042969 0.015625 0.0625 0.019531 0.011719 0.039062 0.015625 0.0625 0.015625h0.046875c0.019531-0.0078125 0.035156-0.015625 0.046875-0.015625v0.0625c-0.023438 0.011719-0.042969 0.015625-0.0625 0.015625-0.011719 0.0078125-0.023438 0.015625-0.03125 0.015625-0.054688 0-0.09375-0.015625-0.125-0.046875-0.023438-0.03125-0.03125-0.066406-0.03125-0.10938 0-0.039063 0.0078125-0.078125 0.03125-0.10938 0.03125-0.03125 0.070312-0.046875 0.125-0.046875 0.007812 0 0.019531 0.007813 0.03125 0.015625h0.0625z"/>
  </symbol>
 </defs>
 <g>
  <path d="m193.13 560h313.74v-19.727h-313.74z"/>
  <path d="m258.02 194.56h183.86c-3.3203-14.637-16.402-25.332-31.664-25.332h-120.43c-15.262 0-28.445 10.695-31.77 25.332z"/>
  <path d="m460.98 394.51h-221.96c-11.629 0-11.422 17.027 0 17.027h221.96c11.629 0 11.316-17.027 0-17.027z"/>
  <path d="m407.31 26.473c-31.77-35.297-82.953-35.297-114.72 0-31.457 35.09-32.289 92.191-1.3516 128.32h117.42c31.043-36.129 30.211-93.23-1.3516-128.32z"/>
  <path d="m208.18 528.96h283.63c-1.1406-53.984-41.84-32.496-34.57-103.71h-214.49c7.6836 70.598-33.43 49.625-34.57 103.71z"/>
  <path d="m407.31 208.99h-114.62c-2.3867 59.281-9.4492 115.55-32.391 171.82h179.4c-22.945-56.27-29.898-112.44-32.391-171.82z"/>
  <use x="193.128906" y="561.558594" xlink:href="#s"/>
  <use x="193.511719" y="561.558594" xlink:href="#d"/>
  <use x="193.765625" y="561.558594" xlink:href="#a"/>
  <use x="194.117188" y="561.558594" xlink:href="#j"/>
  <use x="194.46875" y="561.558594" xlink:href="#c"/>
  <use x="194.71875" y="561.558594" xlink:href="#a"/>
  <use x="195.070313" y="561.558594" xlink:href="#i"/>
  <use x="195.621094" y="561.558594" xlink:href="#h"/>
  <use x="195.992188" y="561.558594" xlink:href="#g"/>
  <use x="196.511719" y="561.558594" xlink:href="#e"/>
  <use x="196.691406" y="561.558594" xlink:href="#b"/>
  <use x="197.046875" y="561.558594" xlink:href="#f"/>
  <use x="197.414062" y="561.558594" xlink:href="#r"/>
  <use x="193.128906" y="562.078125" xlink:href="#q"/>
  <use x="193.355469" y="562.078125" xlink:href="#d"/>
  <use x="193.609375" y="562.078125" xlink:href="#b"/>
  <use x="193.96875" y="562.078125" xlink:href="#p"/>
  <use x="194.691406" y="562.078125" xlink:href="#c"/>
  <use x="194.9375" y="562.078125" xlink:href="#o"/>
  <use x="195.308594" y="562.078125" xlink:href="#a"/>
  <use x="195.839844" y="562.078125" xlink:href="#n"/>
  <use x="196.273438" y="562.078125" xlink:href="#b"/>
  <use x="196.632812" y="562.078125" xlink:href="#m"/>
  <use x="197" y="562.078125" xlink:href="#f"/>
  <use x="197.550781" y="562.078125" xlink:href="#l"/>
  <use x="197.929688" y="562.078125" xlink:href="#d"/>
  <use x="198.1875" y="562.078125" xlink:href="#b"/>
  <use x="198.542969" y="562.078125" xlink:href="#e"/>
  <use x="198.722656" y="562.078125" xlink:href="#a"/>
  <use x="199.074219" y="562.078125" xlink:href="#k"/>
  <use x="199.382813" y="562.078125" xlink:href="#c"/>
 </g>
</svg>
