<?xml version="1.0" encoding="UTF-8"?>
<svg width="700pt" height="700pt" version="1.1" viewBox="0 0 700 700" xmlns="http://www.w3.org/2000/svg" xmlns:xlink="http://www.w3.org/1999/xlink">
 <defs>
  <symbol id="s" overflow="visible">
   <path d="m0.20312-0.015625c-0.011719 0.011719-0.023437 0.015625-0.03125 0.015625h-0.046875c-0.03125 0-0.058594-0.0078125-0.078125-0.03125-0.023438-0.019531-0.03125-0.046875-0.03125-0.078125s0.0078125-0.054687 0.03125-0.078125c0.019531-0.019531 0.046875-0.03125 0.078125-0.03125h0.046875c0.007813 0 0.019531 0.007812 0.03125 0.015625v0.046875c-0.011719-0.007812-0.023437-0.015625-0.03125-0.015625-0.011719-0.007813-0.023437-0.015625-0.03125-0.015625-0.023437 0-0.039063 0.011719-0.046875 0.03125-0.011719 0.011719-0.015625 0.027344-0.015625 0.046875 0 0.023438 0.0039062 0.042969 0.015625 0.0625 0.007812 0.011719 0.023438 0.015625 0.046875 0.015625h0.03125c0.007813-0.0078125 0.019531-0.019531 0.03125-0.03125z"/>
  </symbol>
  <symbol id="d" overflow="visible">
   <path d="m0.14062-0.125h-0.015625c-0.023438 0-0.039062 0.007812-0.046875 0.015625v0.03125 0.078125h-0.046875v-0.17188h0.046875v0.03125c0.0078125-0.007813 0.015625-0.015625 0.015625-0.015625 0.007812-0.007812 0.019531-0.015625 0.03125-0.015625h0.015625z"/>
  </symbol>
  <symbol id="a" overflow="visible">
   <path d="m0.1875-0.078125v0.015625h-0.125c0.0078125 0.011719 0.015625 0.023438 0.015625 0.03125h0.03125 0.03125c0.019531-0.0078125 0.035156-0.015625 0.046875-0.015625v0.03125c-0.011719 0.011719-0.027344 0.015625-0.046875 0.015625h-0.03125c-0.03125 0-0.058594-0.0039062-0.078125-0.015625-0.011719-0.019531-0.015625-0.039062-0.015625-0.0625 0-0.03125 0.0039062-0.050781 0.015625-0.0625 0.019531-0.019531 0.046875-0.03125 0.078125-0.03125 0.019531 0 0.035156 0.011719 0.046875 0.03125 0.019531 0.011719 0.03125 0.03125 0.03125 0.0625zm-0.046875-0.015625c0-0.019531-0.007813-0.03125-0.015625-0.03125h-0.015625-0.03125s-0.0078125 0.011719-0.015625 0.03125z"/>
  </symbol>
  <symbol id="j" overflow="visible">
   <path d="m0.09375-0.078125c-0.011719 0-0.023438 0.0078125-0.03125 0.015625v0.015625 0.015625h0.03125 0.015625c0.007813-0.0078125 0.015625-0.019531 0.015625-0.03125v-0.015625zm0.078125-0.015625v0.09375h-0.046875v-0.03125c0 0.011719-0.007812 0.023438-0.015625 0.03125h-0.03125c-0.023438 0-0.039062-0.0039062-0.046875-0.015625-0.011719-0.0078125-0.015625-0.019531-0.015625-0.03125 0-0.019531 0.0039062-0.035156 0.015625-0.046875 0.0078125-0.007812 0.03125-0.015625 0.0625-0.015625h0.03125c0-0.007813-0.007812-0.015625-0.015625-0.015625h-0.03125-0.03125-0.015625v-0.03125c0.0078125-0.007812 0.019531-0.015625 0.03125-0.015625h0.03125c0.03125 0 0.050781 0.011719 0.0625 0.03125 0.007812 0.011719 0.015625 0.027344 0.015625 0.046875z"/>
  </symbol>
  <symbol id="c" overflow="visible">
   <path d="m0.078125-0.21875v0.046875h0.0625v0.046875h-0.0625v0.0625 0.03125h0.03125 0.015625v0.03125h-0.03125c-0.023438 0-0.039062-0.0039062-0.046875-0.015625-0.011719-0.0078125-0.015625-0.023438-0.015625-0.046875v-0.0625h-0.03125v-0.046875h0.03125v-0.046875z"/>
  </symbol>
  <symbol id="i" overflow="visible">
   <path d="m0.14062-0.14062v-0.09375h0.046875v0.23438h-0.046875v-0.03125c-0.011719 0.011719-0.023437 0.023438-0.03125 0.03125h-0.03125c-0.023438 0-0.039062-0.0039062-0.046875-0.015625-0.011719-0.019531-0.015625-0.039062-0.015625-0.0625 0-0.03125 0.0039062-0.050781 0.015625-0.0625 0.0078125-0.019531 0.023438-0.03125 0.046875-0.03125 0.0078125 0 0.019531 0.007813 0.03125 0.015625 0.007813 0 0.019531 0.007812 0.03125 0.015625zm-0.03125 0.10938c0.007813 0 0.015625-0.0039062 0.015625-0.015625 0.007812-0.0078125 0.015625-0.019531 0.015625-0.03125 0-0.019531-0.007813-0.03125-0.015625-0.03125 0-0.007813-0.007812-0.015625-0.015625-0.015625-0.023438 0-0.039062 0.007812-0.046875 0.015625v0.03125 0.03125c0.0078125 0.011719 0.023438 0.015625 0.046875 0.015625z"/>
  </symbol>
  <symbol id="h" overflow="visible">
   <path d="m0.10938-0.03125c0.007813 0 0.015625-0.0039062 0.015625-0.015625 0.007812-0.0078125 0.015625-0.019531 0.015625-0.03125 0-0.019531-0.007813-0.03125-0.015625-0.03125 0-0.007813-0.007812-0.015625-0.015625-0.015625-0.011719 0-0.023438 0.007812-0.03125 0.015625v0.03125 0.03125c0.0078125 0.011719 0.019531 0.015625 0.03125 0.015625zm-0.03125-0.10938c0.0078125-0.007813 0.019531-0.015625 0.03125-0.015625 0.007813-0.007812 0.015625-0.015625 0.015625-0.015625 0.03125 0 0.050781 0.011719 0.0625 0.03125 0.007812 0.011719 0.015625 0.03125 0.015625 0.0625 0 0.023438-0.007813 0.042969-0.015625 0.0625-0.011719 0.011719-0.03125 0.015625-0.0625 0.015625h-0.015625c-0.011719-0.0078125-0.023438-0.019531-0.03125-0.03125v0.03125h-0.046875v-0.23438h0.046875z"/>
  </symbol>
  <symbol id="g" overflow="visible">
   <path d="m0-0.17188h0.0625l0.03125 0.125 0.046875-0.125h0.046875l-0.0625 0.1875c-0.011719 0.019531-0.023438 0.03125-0.03125 0.03125-0.011719 0.0078125-0.023438 0.015625-0.03125 0.015625h-0.03125v-0.03125h0.015625 0.015625c0.0078125 0 0.015625-0.0078125 0.015625-0.015625v-0.015625z"/>
  </symbol>
  <symbol id="e" overflow="visible">
   <path d="m0.03125-0.17188h0.046875v0.17188c0 0.019531-0.0078125 0.035156-0.015625 0.046875-0.011719 0.0078125-0.027344 0.015625-0.046875 0.015625h-0.03125v-0.03125h0.015625c0.0078125 0 0.015625-0.0078125 0.015625-0.015625 0.0078125 0 0.015625-0.0078125 0.015625-0.015625zm0-0.0625h0.046875v0.046875h-0.046875z"/>
  </symbol>
  <symbol id="b" overflow="visible">
   <path d="m0.10938-0.125c-0.023438 0-0.039062 0.007812-0.046875 0.015625v0.03125 0.03125c0.0078125 0.011719 0.023438 0.015625 0.046875 0.015625 0.007813 0 0.015625-0.0039062 0.015625-0.015625 0.007812-0.0078125 0.015625-0.019531 0.015625-0.03125 0-0.019531-0.007813-0.03125-0.015625-0.03125 0-0.007813-0.007812-0.015625-0.015625-0.015625zm0-0.046875c0.019531 0 0.035156 0.011719 0.046875 0.03125 0.019531 0.011719 0.03125 0.03125 0.03125 0.0625 0 0.023438-0.011719 0.042969-0.03125 0.0625-0.011719 0.011719-0.027344 0.015625-0.046875 0.015625-0.03125 0-0.058594-0.0039062-0.078125-0.015625-0.011719-0.019531-0.015625-0.039062-0.015625-0.0625 0-0.03125 0.0039062-0.050781 0.015625-0.0625 0.019531-0.019531 0.046875-0.03125 0.078125-0.03125z"/>
  </symbol>
  <symbol id="f" overflow="visible">
   <path d="m0.1875-0.09375v0.09375h-0.046875v-0.078125-0.015625c0-0.007812-0.007813-0.019531-0.015625-0.03125h-0.015625c-0.011719 0-0.023438 0.007812-0.03125 0.015625v0.03125 0.078125h-0.046875v-0.17188h0.046875v0.03125c0.0078125-0.007813 0.019531-0.015625 0.03125-0.015625 0.007813-0.007812 0.015625-0.015625 0.015625-0.015625 0.019531 0 0.035156 0.011719 0.046875 0.03125 0.007813 0.011719 0.015625 0.027344 0.015625 0.046875z"/>
  </symbol>
  <symbol id="r" overflow="visible">
   <path d="m0.03125-0.17188h0.046875v0.17188h-0.046875zm0-0.0625h0.046875v0.046875h-0.046875z"/>
  </symbol>
  <symbol id="q" overflow="visible">
   <path d="m0.125-0.23438v0.046875h-0.015625-0.03125v0.015625h0.046875v0.046875h-0.046875v0.125h-0.046875v-0.125h-0.03125v-0.046875h0.03125c0-0.019531 0.0039062-0.035156 0.015625-0.046875 0.0078125-0.007812 0.023438-0.015625 0.046875-0.015625z"/>
  </symbol>
  <symbol id="p" overflow="visible">
   <path d="m0.17188-0.14062c0.007813-0.007813 0.019531-0.015625 0.03125-0.015625 0.007813-0.007812 0.019531-0.015625 0.03125-0.015625 0.019531 0 0.035156 0.011719 0.046875 0.03125 0.007812 0.011719 0.015625 0.027344 0.015625 0.046875v0.09375h-0.0625v-0.078125-0.015625c0-0.007812-0.007813-0.015625-0.015625-0.015625v-0.015625c-0.011719 0-0.023438 0.007812-0.03125 0.015625v0.03125 0.078125h-0.0625v-0.078125-0.03125c0-0.007813-0.007812-0.015625-0.015625-0.015625-0.011719 0-0.023438 0.007812-0.03125 0.015625v0.03125 0.078125h-0.046875v-0.17188h0.046875v0.03125c0.0078125-0.007813 0.015625-0.015625 0.015625-0.015625 0.007812-0.007812 0.019531-0.015625 0.03125-0.015625 0.007812 0 0.019531 0.007813 0.03125 0.015625 0.007812 0 0.015625 0.007812 0.015625 0.015625z"/>
  </symbol>
  <symbol id="o" overflow="visible">
   <path d="m0.1875-0.09375v0.09375h-0.046875v-0.078125-0.015625c0-0.007812-0.007813-0.019531-0.015625-0.03125h-0.015625c-0.011719 0-0.023438 0.007812-0.03125 0.015625v0.03125 0.078125h-0.046875v-0.23438h0.046875v0.09375c0.0078125-0.007813 0.019531-0.015625 0.03125-0.015625 0.007813-0.007812 0.015625-0.015625 0.015625-0.015625 0.019531 0 0.035156 0.011719 0.046875 0.03125 0.007813 0.011719 0.015625 0.027344 0.015625 0.046875z"/>
  </symbol>
  <symbol id="n" overflow="visible">
   <path d="m0.03125-0.21875h0.0625l0.078125 0.14062v-0.14062h0.046875v0.21875h-0.0625l-0.078125-0.15625v0.15625h-0.046875z"/>
  </symbol>
  <symbol id="m" overflow="visible">
   <path d="m0.03125-0.0625v-0.10938h0.046875v0.015625 0.046875 0.015625 0.046875 0.015625h0.03125c0.007813 0 0.015625-0.0039062 0.015625-0.015625 0.007812-0.0078125 0.015625-0.019531 0.015625-0.03125v-0.09375h0.046875v0.17188h-0.046875v-0.03125c-0.011719 0.011719-0.023437 0.023438-0.03125 0.03125h-0.03125c-0.023438 0-0.039062-0.0039062-0.046875-0.015625v-0.046875z"/>
  </symbol>
  <symbol id="l" overflow="visible">
   <path d="m0.03125-0.21875h0.09375c0.03125 0 0.050781 0.007812 0.0625 0.015625 0.007812 0.011719 0.015625 0.03125 0.015625 0.0625 0 0.023437-0.007813 0.039063-0.015625 0.046875-0.011719 0.011719-0.03125 0.015625-0.0625 0.015625h-0.046875v0.078125h-0.046875zm0.046875 0.046875v0.046875h0.046875 0.015625c0.007813 0 0.015625-0.003906 0.015625-0.015625 0-0.019531-0.007812-0.03125-0.015625-0.03125h-0.015625z"/>
  </symbol>
  <symbol id="k" overflow="visible">
   <path d="m0.15625-0.15625v0.03125h-0.03125-0.015625c-0.011719 0-0.023438 0.007812-0.03125 0.015625-0.011719 0-0.015625 0.011719-0.015625 0.03125 0 0.011719 0.0039062 0.023438 0.015625 0.03125 0.0078125 0.011719 0.019531 0.015625 0.03125 0.015625h0.03125c0.007813-0.0078125 0.015625-0.015625 0.015625-0.015625v0.046875h-0.03125-0.015625c-0.03125 0-0.058594-0.0039062-0.078125-0.015625-0.011719-0.019531-0.015625-0.039062-0.015625-0.0625 0-0.03125 0.0039062-0.050781 0.015625-0.0625 0.019531-0.019531 0.046875-0.03125 0.078125-0.03125h0.015625c0.007812 0 0.019531 0.007813 0.03125 0.015625z"/>
  </symbol>
 </defs>
 <g>
  <path d="m406.87 245.25h-113.8c-9.2812 0-9.1016 14.223 0 14.223h113.8c9.3438 0 9.1016-14.223 0-14.223z"/>
  <path d="m391.5 199.8h-82.996c-9.3438 0-9.1016 14.223 0 14.223h82.996c9.2812 0 9.1016-14.223 0-14.223z"/>
  <path d="m357.14 0h-14.285c2.2891 10.609 3.6172 21.035 4.0977 31.883 0.12109 2.4727-1.9297 4.4609-4.3398 4.3398-10.73-0.42188-21.398-1.8086-31.945-4.0977v14.344c10.668-2.2891 21.035-3.6172 31.945-4.0977 2.4102-0.12109 4.4609 1.9297 4.3398 4.3398-0.42188 10.668-1.8086 21.277-4.0977 31.883h14.285c-2.2891-10.668-3.6172-20.977-4.0977-31.883-0.12109-2.4102 1.8672-4.3984 4.3398-4.3398 10.73 0.42188 21.398 1.8086 31.883 4.0977v-14.344c-10.609 2.2891-21.215 3.6758-31.883 4.0977-2.4727 0.12109-4.4609-1.8672-4.3398-4.2812 0.42188-10.789 1.8086-21.398 4.0977-31.945z"/>
  <path d="m332.85 86.973v9.1016h34.234v-9.1016h-34.234z"/>
  <path d="m299.7 104.45c0-3.8594-11.152 5.9062-12.355 21.457 0.36328 5.9688 20.191 30.801 21.035 65.398h83.176c0.96484-37.066 20.191-56.176 21.035-65.336-1.0234-10.004-2.1094-19.949-12.598-21.52z"/>
  <path d="m234.43 560h231.15v-14.465h-231.15z"/>
  <path d="m428.99 460.73h-157.98c5.6641 52.559-24.59 34.176-25.496 76.426h208.97c-0.90234-42.25-30.922-23.387-25.496-76.426z"/>
  <path d="m259.68 452.35h180.58v-14.465h-180.58z"/>
  <path d="m298.2 236.75h103.55c9.3438 0 9.1016-14.223 0-14.223h-103.55c-9.2812 0-9.1016 14.223 0 14.223z"/>
  <path d="m285.36 429.51h129.23c-19.527-53.945-18.383-106.98-22.121-161.47h-84.926c-3.7383 54.488-2.7109 107.53-22.18 161.47z"/>
  <use x="234.425781" y="560.902344" xlink:href="#s"/>
  <use x="234.648437" y="560.902344" xlink:href="#d"/>
  <use x="234.796875" y="560.902344" xlink:href="#a"/>
  <use x="235" y="560.902344" xlink:href="#j"/>
  <use x="235.203125" y="560.902344" xlink:href="#c"/>
  <use x="235.347656" y="560.902344" xlink:href="#a"/>
  <use x="235.550781" y="560.902344" xlink:href="#i"/>
  <use x="235.871094" y="560.902344" xlink:href="#h"/>
  <use x="236.089844" y="560.902344" xlink:href="#g"/>
  <use x="236.390625" y="560.902344" xlink:href="#e"/>
  <use x="236.492188" y="560.902344" xlink:href="#b"/>
  <use x="236.699219" y="560.902344" xlink:href="#f"/>
  <use x="236.914062" y="560.902344" xlink:href="#r"/>
  <use x="234.425781" y="561.207031" xlink:href="#q"/>
  <use x="234.558594" y="561.207031" xlink:href="#d"/>
  <use x="234.707031" y="561.207031" xlink:href="#b"/>
  <use x="234.914062" y="561.207031" xlink:href="#p"/>
  <use x="235.332031" y="561.207031" xlink:href="#c"/>
  <use x="235.476562" y="561.207031" xlink:href="#o"/>
  <use x="235.691406" y="561.207031" xlink:href="#a"/>
  <use x="236" y="561.207031" xlink:href="#n"/>
  <use x="236.25" y="561.207031" xlink:href="#b"/>
  <use x="236.457031" y="561.207031" xlink:href="#m"/>
  <use x="236.671875" y="561.207031" xlink:href="#f"/>
  <use x="236.992187" y="561.207031" xlink:href="#l"/>
  <use x="237.214844" y="561.207031" xlink:href="#d"/>
  <use x="237.363281" y="561.207031" xlink:href="#b"/>
  <use x="237.570312" y="561.207031" xlink:href="#e"/>
  <use x="237.671875" y="561.207031" xlink:href="#a"/>
  <use x="237.875" y="561.207031" xlink:href="#k"/>
  <use x="238.054687" y="561.207031" xlink:href="#c"/>
 </g>
</svg>
