<?xml version="1.0" encoding="UTF-8"?>
<svg width="700pt" height="700pt" version="1.1" viewBox="0 0 700 700" xmlns="http://www.w3.org/2000/svg" xmlns:xlink="http://www.w3.org/1999/xlink">
 <defs>
  <symbol id="s" overflow="visible">
   <path d="m0.21875-0.015625c-0.011719 0.011719-0.027344 0.015625-0.046875 0.015625h-0.03125c-0.042969 0-0.074219-0.0078125-0.09375-0.03125-0.023438-0.019531-0.03125-0.046875-0.03125-0.078125 0-0.039063 0.0078125-0.070313 0.03125-0.09375 0.019531-0.03125 0.050781-0.046875 0.09375-0.046875 0.007813 0 0.019531 0.007812 0.03125 0.015625 0.019531 0 0.035156 0.007813 0.046875 0.015625v0.046875c-0.011719-0.007813-0.023438-0.015625-0.03125-0.015625-0.011719-0.007812-0.027344-0.015625-0.046875-0.015625-0.023437 0-0.039063 0.011719-0.046875 0.03125-0.011719 0.011719-0.015625 0.03125-0.015625 0.0625 0 0.023438 0.0039062 0.039062 0.015625 0.046875 0.007812 0.011719 0.023438 0.015625 0.046875 0.015625h0.046875c0.007812 0 0.019531-0.0039062 0.03125-0.015625z"/>
  </symbol>
  <symbol id="d" overflow="visible">
   <path d="m0.15625-0.125h-0.015625c0-0.007812-0.007813-0.015625-0.015625-0.015625-0.011719 0-0.023438 0.007813-0.03125 0.015625-0.011719 0.011719-0.015625 0.027344-0.015625 0.046875v0.078125h-0.046875v-0.17188h0.046875v0.03125c0.0078125-0.019531 0.019531-0.03125 0.03125-0.03125 0.007813-0.007813 0.019531-0.015625 0.03125-0.015625h0.015625z"/>
  </symbol>
  <symbol id="a" overflow="visible">
   <path d="m0.20312-0.09375v0.015625h-0.125v0.046875h0.046875 0.03125c0.007812-0.0078125 0.023438-0.019531 0.046875-0.03125v0.046875c-0.023437 0.011719-0.039063 0.015625-0.046875 0.015625h-0.046875c-0.03125 0-0.058594-0.0039062-0.078125-0.015625-0.011719-0.019531-0.015625-0.039062-0.015625-0.0625 0-0.03125 0.0039062-0.054687 0.015625-0.078125 0.019531-0.019531 0.046875-0.03125 0.078125-0.03125s0.050781 0.011719 0.0625 0.03125c0.019531 0.023438 0.03125 0.042969 0.03125 0.0625zm-0.0625-0.015625c0-0.007813-0.007813-0.015625-0.015625-0.015625 0-0.007812-0.007812-0.015625-0.015625-0.015625-0.011719 0-0.023438 0.007813-0.03125 0.015625v0.015625z"/>
  </symbol>
  <symbol id="j" overflow="visible">
   <path d="m0.10938-0.078125c-0.011719 0-0.023438 0.0078125-0.03125 0.015625v0.03125h0.015625c0.007812 0 0.019531-0.0039062 0.03125-0.015625 0.007812-0.0078125 0.015625-0.019531 0.015625-0.03125zm0.078125-0.015625v0.09375h-0.046875v-0.03125c-0.011719 0.011719-0.023437 0.023438-0.03125 0.03125h-0.03125c-0.023438 0-0.039062-0.0039062-0.046875-0.015625-0.011719-0.0078125-0.015625-0.023438-0.015625-0.046875 0-0.0078125 0.0039062-0.019531 0.015625-0.03125 0.019531-0.007812 0.039062-0.015625 0.0625-0.015625h0.046875c0-0.007813-0.007813-0.015625-0.015625-0.015625-0.011719-0.007812-0.023438-0.015625-0.03125-0.015625h-0.03125c-0.011719 0-0.023438 0.007813-0.03125 0.015625v-0.046875h0.03125c0.0078125-0.007813 0.019531-0.015625 0.03125-0.015625 0.039062 0 0.066406 0.011719 0.078125 0.03125 0.007813 0.011719 0.015625 0.03125 0.015625 0.0625z"/>
  </symbol>
  <symbol id="c" overflow="visible">
   <path d="m0.09375-0.23438v0.0625h0.046875v0.03125h-0.046875v0.078125 0.015625h0.015625 0.03125v0.046875h-0.046875c-0.023438 0-0.039062-0.0039062-0.046875-0.015625-0.011719-0.0078125-0.015625-0.023438-0.015625-0.046875v-0.078125h-0.03125v-0.03125h0.03125v-0.0625z"/>
  </symbol>
  <symbol id="i" overflow="visible">
   <path d="m0.14062-0.15625v-0.09375h0.0625v0.25h-0.0625v-0.03125c0 0.011719-0.007813 0.023438-0.015625 0.03125h-0.03125c-0.023438 0-0.042969-0.0039062-0.0625-0.015625-0.011719-0.019531-0.015625-0.039062-0.015625-0.0625 0-0.03125 0.0039062-0.054687 0.015625-0.078125 0.019531-0.019531 0.039062-0.03125 0.0625-0.03125 0.007812 0 0.019531 0.007812 0.03125 0.015625 0.007812 0 0.015625 0.007813 0.015625 0.015625zm-0.03125 0.125c0.007813 0 0.015625-0.0039062 0.015625-0.015625 0.007812-0.0078125 0.015625-0.019531 0.015625-0.03125 0-0.019531-0.007813-0.035156-0.015625-0.046875 0-0.007812-0.007812-0.015625-0.015625-0.015625-0.011719 0-0.023438 0.007813-0.03125 0.015625v0.046875 0.03125c0.0078125 0.011719 0.019531 0.015625 0.03125 0.015625z"/>
  </symbol>
  <symbol id="h" overflow="visible">
   <path d="m0.125-0.03125c0.007812 0 0.015625-0.0039062 0.015625-0.015625 0.007813-0.0078125 0.015625-0.019531 0.015625-0.03125 0-0.019531-0.007812-0.035156-0.015625-0.046875 0-0.007812-0.007813-0.015625-0.015625-0.015625-0.023438 0-0.039062 0.007813-0.046875 0.015625v0.046875 0.03125c0.0078125 0.011719 0.023437 0.015625 0.046875 0.015625zm-0.046875-0.125c0.0078125-0.007812 0.019531-0.015625 0.03125-0.015625 0.007813-0.007813 0.019531-0.015625 0.03125-0.015625 0.019531 0 0.035156 0.011719 0.046875 0.03125 0.019531 0.023438 0.03125 0.046875 0.03125 0.078125 0 0.023438-0.011719 0.042969-0.03125 0.0625-0.011719 0.011719-0.027344 0.015625-0.046875 0.015625h-0.03125c-0.011719-0.0078125-0.023438-0.019531-0.03125-0.03125v0.03125h-0.046875v-0.25h0.046875z"/>
  </symbol>
  <symbol id="g" overflow="visible">
   <path d="m0-0.17188h0.0625l0.046875 0.10938 0.03125-0.10938h0.0625l-0.078125 0.1875c0 0.019531-0.007812 0.035156-0.015625 0.046875-0.011719 0.0078125-0.027344 0.015625-0.046875 0.015625h-0.03125v-0.046875h0.015625 0.015625c0.0078125 0 0.015625-0.0078125 0.015625-0.015625v-0.015625z"/>
  </symbol>
  <symbol id="e" overflow="visible">
   <path d="m0.03125-0.17188h0.046875v0.17188c0 0.019531-0.0078125 0.035156-0.015625 0.046875-0.011719 0.019531-0.027344 0.03125-0.046875 0.03125h-0.03125v-0.046875h0.015625c0.0078125 0 0.015625-0.0078125 0.015625-0.015625 0.0078125 0 0.015625-0.0078125 0.015625-0.015625zm0-0.078125h0.046875v0.046875h-0.046875z"/>
  </symbol>
  <symbol id="b" overflow="visible">
   <path d="m0.10938-0.14062c-0.011719 0-0.023438 0.007813-0.03125 0.015625v0.046875 0.03125c0.0078125 0.011719 0.019531 0.015625 0.03125 0.015625 0.007813 0 0.019531-0.0039062 0.03125-0.015625 0.007813-0.0078125 0.015625-0.019531 0.015625-0.03125 0-0.019531-0.007812-0.035156-0.015625-0.046875-0.011719-0.007812-0.023437-0.015625-0.03125-0.015625zm0-0.046875c0.03125 0 0.050781 0.011719 0.0625 0.03125 0.019531 0.023438 0.03125 0.046875 0.03125 0.078125 0 0.023438-0.011719 0.042969-0.03125 0.0625-0.011719 0.011719-0.03125 0.015625-0.0625 0.015625s-0.058594-0.0039062-0.078125-0.015625c-0.011719-0.019531-0.015625-0.039062-0.015625-0.0625 0-0.03125 0.0039062-0.054687 0.015625-0.078125 0.019531-0.019531 0.046875-0.03125 0.078125-0.03125z"/>
  </symbol>
  <symbol id="f" overflow="visible">
   <path d="m0.20312-0.10938v0.10938h-0.0625v-0.078125-0.03125-0.015625h-0.015625v-0.015625c-0.011719 0-0.023438 0.007813-0.03125 0.015625-0.011719 0.011719-0.015625 0.027344-0.015625 0.046875v0.078125h-0.046875v-0.17188h0.046875v0.015625c0.0078125-0.007812 0.019531-0.015625 0.03125-0.015625 0.007813-0.007813 0.019531-0.015625 0.03125-0.015625 0.019531 0 0.035156 0.011719 0.046875 0.03125 0.007812 0.011719 0.015625 0.027344 0.015625 0.046875z"/>
  </symbol>
  <symbol id="r" overflow="visible">
   <path d="m0.03125-0.17188h0.046875v0.17188h-0.046875zm0-0.078125h0.046875v0.046875h-0.046875z"/>
  </symbol>
  <symbol id="q" overflow="visible">
   <path d="m0.14062-0.25v0.046875h-0.03125-0.015625v0.015625 0.015625h0.046875v0.03125h-0.046875v0.14062h-0.0625v-0.14062h-0.03125v-0.03125h0.03125v-0.015625c0-0.019531 0.0039062-0.035156 0.015625-0.046875 0.0078125-0.007813 0.023438-0.015625 0.046875-0.015625z"/>
  </symbol>
  <symbol id="p" overflow="visible">
   <path d="m0.1875-0.14062c0.007812-0.007813 0.019531-0.019531 0.03125-0.03125 0.007812-0.007813 0.019531-0.015625 0.03125-0.015625 0.019531 0 0.035156 0.011719 0.046875 0.03125 0.007813 0.011719 0.015625 0.027344 0.015625 0.046875v0.10938h-0.0625v-0.09375-0.03125c0-0.007812-0.007812-0.015625-0.015625-0.015625-0.011719 0-0.023437 0.007813-0.03125 0.015625v0.046875 0.078125h-0.0625v-0.09375c0-0.019531-0.007813-0.03125-0.015625-0.03125 0-0.007812-0.007812-0.015625-0.015625-0.015625-0.011719 0-0.023438 0.007813-0.03125 0.015625v0.046875 0.078125h-0.046875v-0.17188h0.046875v0.015625c0.0078125-0.007812 0.019531-0.015625 0.03125-0.015625 0.007813-0.007813 0.019531-0.015625 0.03125-0.015625 0.007813 0 0.019531 0.007812 0.03125 0.015625 0.007813 0.011719 0.015625 0.023437 0.015625 0.03125z"/>
  </symbol>
  <symbol id="o" overflow="visible">
   <path d="m0.20312-0.10938v0.10938h-0.0625v-0.078125-0.03125-0.015625h-0.015625v-0.015625c-0.011719 0-0.023438 0.007813-0.03125 0.015625-0.011719 0.011719-0.015625 0.027344-0.015625 0.046875v0.078125h-0.046875v-0.25h0.046875v0.09375c0.0078125-0.007812 0.019531-0.015625 0.03125-0.015625 0.007813-0.007813 0.019531-0.015625 0.03125-0.015625 0.019531 0 0.035156 0.011719 0.046875 0.03125 0.007812 0.011719 0.015625 0.027344 0.015625 0.046875z"/>
  </symbol>
  <symbol id="n" overflow="visible">
   <path d="m0.03125-0.23438h0.0625l0.09375 0.15625v-0.15625h0.0625v0.23438h-0.078125l-0.09375-0.15625v0.15625h-0.046875z"/>
  </symbol>
  <symbol id="m" overflow="visible">
   <path d="m0.03125-0.078125v-0.09375h0.046875v0.015625 0.046875 0.015625 0.03125 0.015625h0.015625 0.015625 0.015625c0.007812-0.0078125 0.015625-0.023438 0.015625-0.046875v-0.078125h0.0625v0.17188h-0.0625v-0.03125c-0.011719 0.011719-0.023437 0.023438-0.03125 0.03125h-0.03125c-0.011719 0-0.023438-0.0039062-0.03125-0.015625-0.011719-0.0078125-0.015625-0.03125-0.015625-0.0625z"/>
  </symbol>
  <symbol id="l" overflow="visible">
   <path d="m0.03125-0.23438h0.09375c0.03125 0 0.050781 0.007813 0.0625 0.015625 0.019531 0.011719 0.03125 0.03125 0.03125 0.0625 0 0.023438-0.011719 0.042969-0.03125 0.0625-0.011719 0.011719-0.03125 0.015625-0.0625 0.015625h-0.03125v0.078125h-0.0625zm0.0625 0.046875v0.0625h0.03125 0.015625c0.007813-0.007812 0.015625-0.019531 0.015625-0.03125 0-0.007812-0.007812-0.015625-0.015625-0.015625 0-0.007813-0.007813-0.015625-0.015625-0.015625z"/>
  </symbol>
  <symbol id="k" overflow="visible">
   <path d="m0.17188-0.17188v0.046875h-0.03125c0-0.007812-0.007813-0.015625-0.015625-0.015625-0.023438 0-0.039062 0.007813-0.046875 0.015625v0.046875 0.03125c0.0078125 0.011719 0.023437 0.015625 0.046875 0.015625h0.015625c0.007813-0.0078125 0.019531-0.015625 0.03125-0.015625v0.046875h-0.03125-0.03125c-0.03125 0-0.058594-0.0039062-0.078125-0.015625-0.011719-0.019531-0.015625-0.039062-0.015625-0.0625 0-0.03125 0.0039062-0.054687 0.015625-0.078125 0.019531-0.019531 0.046875-0.03125 0.078125-0.03125 0.007813 0 0.019531 0.007812 0.03125 0.015625h0.03125z"/>
  </symbol>
 </defs>
 <g>
  <path d="m253.1 428.99v15.52h193.74v-15.52h-193.74z"/>
  <path d="m434.74 453.5h-169.49c6.0156 55.805-26.449 39.188-27.352 81.996h224.2c-0.90625-42.68-33.109-25.738-27.352-81.996z"/>
  <path d="m226 544.48v15.52h247.99v-15.52z"/>
  <path d="m349.97 37.375c-18.363 0-49.402 9.6367-49.402 32.332 0 4.5273 1.4219 8.793 4.0742 12.738 6.9844 2.457 15.973-0.71094 16.941-6.207 0.32422-1.9414 1.6172-3.2969 3.0391-3.4922 3.2969-0.38672 6.5312-0.77734 9.7656-1.1641 2.0039-0.19531 3.6875 1.6797 3.8164 4.1367 4.6562 14.871 23.086 7.5664 23.539 0 0.19531-2.5234 1.875-4.332 3.9453-4.1367 3.2344 0.32422 6.4648 0.71094 9.6367 1.1641 1.6172 0.19531 2.8438 1.7461 3.1055 3.6875 1.1641 6.2734 11.445 7.9531 16.941 6.0156 2.5859-3.9453 4.0078-8.2109 4.0078-12.738 0-22.699-31.039-32.332-49.402-32.332z"/>
  <path d="m372.34 81.348c-1.4219-0.19531-2.9102-0.38672-4.3984-0.51562-5.625 15.262-30.328 15.262-35.953-0.066406-1.4219 0.19531-2.9102 0.38672-4.3984 0.58203-4.7188 11.512-21.402 13.645-30.199 6.8555l-8.8594 3.0391c12.805 22.891 21.273 47.465 21.984 73.137h78.891c0.77734-25.672 9.1836-50.246 22.051-73.137-2.9727-1.0977-5.8828-2.1328-8.8594-3.0391-9.7656 7.5-27.871 5.1094-30.262-6.8555z"/>
  <path d="m394.52 173.56h-89.043c-10.023 0-9.7656 15.324 0 15.324h89.043c9.957 0 9.7656-15.324 0-15.324z"/>
  <path d="m290.73 198c-10.023 0-9.7656 15.324 0 15.324h118.53c9.957 0 9.7656-15.324 0-15.324z"/>
  <path d="m284.46 222.51c-10.023 0-9.7656 15.324 0 15.324h131.08c9.957 0 9.7656-15.324 0-15.324h-131.08z"/>
  <path d="m359.34 3.8789c-8.3438-8.2773-22.566-2.3945-22.566 9.3125 0 11.77 14.227 17.652 22.566 9.375 5.1094-5.1719 5.1094-13.516 0-18.688z"/>
  <path d="m280.65 420h138.64c-20.953-57.875-19.723-114.52-23.73-173.04h-91.18c-4.0078 58.523-2.8438 115.17-23.73 173.04z"/>
  <use x="226.003906" y="560.96875" xlink:href="#s"/>
  <use x="226.242188" y="560.96875" xlink:href="#d"/>
  <use x="226.402344" y="560.96875" xlink:href="#a"/>
  <use x="226.621094" y="560.96875" xlink:href="#j"/>
  <use x="226.839844" y="560.96875" xlink:href="#c"/>
  <use x="226.992188" y="560.96875" xlink:href="#a"/>
  <use x="227.210938" y="560.96875" xlink:href="#i"/>
  <use x="227.558594" y="560.96875" xlink:href="#h"/>
  <use x="227.789062" y="560.96875" xlink:href="#g"/>
  <use x="228.113281" y="560.96875" xlink:href="#e"/>
  <use x="228.222656" y="560.96875" xlink:href="#b"/>
  <use x="228.445312" y="560.96875" xlink:href="#f"/>
  <use x="228.675781" y="560.96875" xlink:href="#r"/>
  <use x="226.003906" y="561.292969" xlink:href="#q"/>
  <use x="226.144531" y="561.292969" xlink:href="#d"/>
  <use x="226.304688" y="561.292969" xlink:href="#b"/>
  <use x="226.527344" y="561.292969" xlink:href="#p"/>
  <use x="226.976562" y="561.292969" xlink:href="#c"/>
  <use x="227.132812" y="561.292969" xlink:href="#o"/>
  <use x="227.359375" y="561.292969" xlink:href="#a"/>
  <use x="227.691406" y="561.292969" xlink:href="#n"/>
  <use x="227.964844" y="561.292969" xlink:href="#b"/>
  <use x="228.1875" y="561.292969" xlink:href="#m"/>
  <use x="228.414062" y="561.292969" xlink:href="#f"/>
  <use x="228.757812" y="561.292969" xlink:href="#l"/>
  <use x="228.996094" y="561.292969" xlink:href="#d"/>
  <use x="229.15625" y="561.292969" xlink:href="#b"/>
  <use x="229.378906" y="561.292969" xlink:href="#e"/>
  <use x="229.488281" y="561.292969" xlink:href="#a"/>
  <use x="229.707031" y="561.292969" xlink:href="#k"/>
  <use x="229.898438" y="561.292969" xlink:href="#c"/>
 </g>
</svg>
