<?xml version="1.0" encoding="UTF-8"?>
<svg width="700pt" height="700pt" version="1.1" viewBox="0 0 700 700" xmlns="http://www.w3.org/2000/svg" xmlns:xlink="http://www.w3.org/1999/xlink">
 <defs>
  <symbol id="s" overflow="visible">
   <path d="m0.28125-0.015625c-0.011719 0.011719-0.027344 0.015625-0.046875 0.015625h-0.046875c-0.054688 0-0.09375-0.0078125-0.125-0.03125-0.03125-0.03125-0.046875-0.070312-0.046875-0.125 0-0.039062 0.015625-0.078125 0.046875-0.10938s0.070312-0.046875 0.125-0.046875c0.007812 0 0.023438 0.007812 0.046875 0.015625 0.019531 0 0.035156 0.007813 0.046875 0.015625v0.0625c-0.011719-0.007812-0.027344-0.015625-0.046875-0.015625-0.011719-0.007813-0.027344-0.015625-0.046875-0.015625-0.023438 0-0.042969 0.011719-0.0625 0.03125-0.011719 0.011719-0.015625 0.03125-0.015625 0.0625s0.003906 0.058594 0.015625 0.078125c0.019531 0.023438 0.039062 0.03125 0.0625 0.03125h0.046875c0.019531-0.0078125 0.035156-0.019531 0.046875-0.03125z"/>
  </symbol>
  <symbol id="d" overflow="visible">
   <path d="m0.20312-0.15625c0-0.007812-0.007813-0.015625-0.015625-0.015625h-0.015625c-0.023437 0-0.039063 0.007813-0.046875 0.015625-0.011719 0.011719-0.015625 0.027344-0.015625 0.046875v0.10938h-0.078125v-0.23438h0.078125v0.046875c0.007813-0.019531 0.019531-0.03125 0.03125-0.03125 0.007813-0.007812 0.023437-0.015625 0.046875-0.015625h0.015625z"/>
  </symbol>
  <symbol id="a" overflow="visible">
   <path d="m0.26562-0.125v0.03125h-0.17188c0 0.023438 0.0039062 0.039062 0.015625 0.046875h0.046875 0.046875c0.019531-0.0078125 0.035156-0.019531 0.046875-0.03125v0.0625c-0.011719 0.011719-0.027344 0.015625-0.046875 0.015625h-0.046875c-0.054688 0-0.089844-0.0078125-0.10938-0.03125-0.023438-0.019531-0.03125-0.046875-0.03125-0.078125 0-0.039063 0.0078125-0.070313 0.03125-0.09375 0.019531-0.019531 0.050781-0.03125 0.09375-0.03125 0.039063 0 0.070313 0.011719 0.09375 0.03125 0.019531 0.023437 0.03125 0.046875 0.03125 0.078125zm-0.078125-0.015625c0-0.007813-0.007812-0.019531-0.015625-0.03125-0.011719-0.007813-0.023437-0.015625-0.03125-0.015625-0.011719 0-0.023437 0.007812-0.03125 0.015625-0.011719 0.011719-0.015625 0.023437-0.015625 0.03125z"/>
  </symbol>
  <symbol id="j" overflow="visible">
   <path d="m0.14062-0.10938c-0.011719 0-0.023437 0.007813-0.03125 0.015625l-0.015625 0.015625v0.03125h0.03125c0.019531 0 0.03125-0.0039062 0.03125-0.015625 0.007812-0.0078125 0.015625-0.019531 0.015625-0.03125v-0.015625zm0.10938-0.015625v0.125h-0.078125v-0.03125c-0.011719 0.011719-0.023437 0.023438-0.03125 0.03125h-0.046875c-0.023438 0-0.042969-0.0039062-0.0625-0.015625-0.011719-0.0078125-0.015625-0.03125-0.015625-0.0625 0-0.019531 0.0078125-0.035156 0.03125-0.046875 0.019531-0.007812 0.046875-0.015625 0.078125-0.015625h0.046875v-0.015625c0-0.007812-0.007813-0.015625-0.015625-0.015625 0-0.007813-0.011719-0.015625-0.03125-0.015625-0.023438 0-0.042969 0.007812-0.0625 0.015625h-0.015625v-0.046875c0.0078125-0.007812 0.019531-0.015625 0.03125-0.015625h0.046875c0.050781 0 0.082031 0.011719 0.09375 0.03125 0.019531 0.011719 0.03125 0.039063 0.03125 0.078125z"/>
  </symbol>
  <symbol id="c" overflow="visible">
   <path d="m0.125-0.29688v0.0625h0.0625v0.0625h-0.0625v0.09375 0.03125h0.015625 0.046875v0.046875h-0.0625c-0.03125 0-0.054688-0.0039062-0.0625-0.015625-0.011719-0.019531-0.015625-0.039062-0.015625-0.0625v-0.09375h-0.046875v-0.0625h0.046875v-0.0625z"/>
  </symbol>
  <symbol id="i" overflow="visible">
   <path d="m0.1875-0.20312v-0.10938h0.078125v0.3125h-0.078125v-0.03125c-0.011719 0.011719-0.023438 0.023438-0.03125 0.03125h-0.03125c-0.03125 0-0.058594-0.0078125-0.078125-0.03125-0.023438-0.019531-0.03125-0.046875-0.03125-0.078125 0-0.039063 0.0078125-0.070313 0.03125-0.09375 0.019531-0.019531 0.046875-0.03125 0.078125-0.03125 0.007812 0 0.019531 0.007813 0.03125 0.015625 0.007812 0 0.019531 0.007812 0.03125 0.015625zm-0.046875 0.15625c0.007813 0 0.019531-0.0039062 0.03125-0.015625 0.007813-0.0078125 0.015625-0.023438 0.015625-0.046875 0-0.019531-0.007812-0.035156-0.015625-0.046875-0.011719-0.019531-0.023437-0.03125-0.03125-0.03125-0.011719 0-0.023437 0.011719-0.03125 0.03125-0.011719 0.011719-0.015625 0.027344-0.015625 0.046875 0 0.023438 0.0039062 0.039062 0.015625 0.046875 0.007813 0.011719 0.019531 0.015625 0.03125 0.015625z"/>
  </symbol>
  <symbol id="h" overflow="visible">
   <path d="m0.15625-0.046875c0.019531 0 0.03125-0.0039062 0.03125-0.015625 0.007812-0.0078125 0.015625-0.023438 0.015625-0.046875 0-0.019531-0.007813-0.035156-0.015625-0.046875 0-0.019531-0.011719-0.03125-0.03125-0.03125-0.023438 0-0.039062 0.011719-0.046875 0.03125v0.046875 0.046875c0.007813 0.011719 0.023437 0.015625 0.046875 0.015625zm-0.046875-0.15625c0.007813-0.007813 0.019531-0.015625 0.03125-0.015625 0.007813-0.007812 0.023437-0.015625 0.046875-0.015625 0.03125 0 0.050781 0.011719 0.0625 0.03125 0.019531 0.023437 0.03125 0.054687 0.03125 0.09375 0 0.03125-0.011719 0.058594-0.03125 0.078125-0.011719 0.023438-0.03125 0.03125-0.0625 0.03125h-0.046875c-0.011719-0.0078125-0.023437-0.019531-0.03125-0.03125v0.03125h-0.078125v-0.3125h0.078125z"/>
  </symbol>
  <symbol id="g" overflow="visible">
   <path d="m0-0.23438h0.078125l0.0625 0.15625 0.046875-0.15625h0.078125l-0.09375 0.25c-0.011719 0.03125-0.023437 0.050781-0.03125 0.0625-0.011719 0.0078125-0.03125 0.015625-0.0625 0.015625h-0.03125v-0.046875h0.015625c0.0078125 0 0.015625-0.0078125 0.015625-0.015625 0.0078125 0 0.019531-0.0078125 0.03125-0.015625v-0.015625z"/>
  </symbol>
  <symbol id="e" overflow="visible">
   <path d="m0.03125-0.23438h0.078125v0.23438c0 0.03125-0.011719 0.050781-0.03125 0.0625-0.011719 0.019531-0.03125 0.03125-0.0625 0.03125h-0.03125v-0.046875h0.015625c0.0078125 0 0.015625-0.0078125 0.015625-0.015625 0.0078125 0 0.015625-0.011719 0.015625-0.03125zm0-0.078125h0.078125v0.046875h-0.078125z"/>
  </symbol>
  <symbol id="b" overflow="visible">
   <path d="m0.14062-0.1875c-0.011719 0-0.023437 0.007812-0.03125 0.015625-0.011719 0.011719-0.015625 0.03125-0.015625 0.0625 0 0.023438 0.0039062 0.039062 0.015625 0.046875 0.007813 0.011719 0.019531 0.015625 0.03125 0.015625 0.019531 0 0.035156-0.0039062 0.046875-0.015625 0.007812-0.0078125 0.015625-0.023438 0.015625-0.046875 0-0.03125-0.007813-0.050781-0.015625-0.0625-0.011719-0.007813-0.027344-0.015625-0.046875-0.015625zm0-0.046875c0.039063 0 0.070313 0.011719 0.09375 0.03125 0.019531 0.023437 0.03125 0.054687 0.03125 0.09375 0 0.03125-0.011719 0.058594-0.03125 0.078125-0.023437 0.023438-0.054687 0.03125-0.09375 0.03125-0.042969 0-0.074219-0.0078125-0.09375-0.03125-0.023438-0.019531-0.03125-0.046875-0.03125-0.078125 0-0.039063 0.0078125-0.070313 0.03125-0.09375 0.019531-0.019531 0.050781-0.03125 0.09375-0.03125z"/>
  </symbol>
  <symbol id="f" overflow="visible">
   <path d="m0.26562-0.14062v0.14062h-0.078125v-0.10938-0.03125-0.015625c0-0.007812-0.007812-0.015625-0.015625-0.015625h-0.015625c-0.011719 0-0.023438 0.007813-0.03125 0.015625-0.011719 0.011719-0.015625 0.027344-0.015625 0.046875v0.10938h-0.078125v-0.23438h0.078125v0.03125c0.007813-0.007813 0.019531-0.015625 0.03125-0.015625 0.007813-0.007812 0.023437-0.015625 0.046875-0.015625 0.019531 0 0.035156 0.011719 0.046875 0.03125 0.019531 0.011719 0.03125 0.03125 0.03125 0.0625z"/>
  </symbol>
  <symbol id="r" overflow="visible">
   <path d="m0.03125-0.23438h0.078125v0.23438h-0.078125zm0-0.078125h0.078125v0.046875h-0.078125z"/>
  </symbol>
  <symbol id="q" overflow="visible">
   <path d="m0.1875-0.3125v0.046875h-0.046875-0.015625v0.03125h0.0625v0.0625h-0.0625v0.17188h-0.078125v-0.17188h-0.046875v-0.0625h0.046875c0-0.03125 0.0039062-0.050781 0.015625-0.0625 0.0078125-0.007813 0.03125-0.015625 0.0625-0.015625z"/>
  </symbol>
  <symbol id="p" overflow="visible">
   <path d="m0.25-0.1875 0.03125-0.03125c0.007812-0.007812 0.019531-0.015625 0.03125-0.015625 0.03125 0 0.050781 0.011719 0.0625 0.03125 0.019531 0.011719 0.03125 0.03125 0.03125 0.0625v0.14062h-0.078125v-0.125c0-0.019531-0.007813-0.03125-0.015625-0.03125 0-0.007812-0.007812-0.015625-0.015625-0.015625-0.011719 0-0.023437 0.007813-0.03125 0.015625-0.011719 0.011719-0.015625 0.027344-0.015625 0.046875v0.10938h-0.0625v-0.125c0-0.019531-0.007812-0.03125-0.015625-0.03125 0-0.007812-0.007813-0.015625-0.015625-0.015625-0.023438 0-0.039062 0.007813-0.046875 0.015625v0.046875 0.10938h-0.078125v-0.23438h0.078125v0.03125c0.007813-0.007813 0.019531-0.015625 0.03125-0.015625 0.007813-0.007812 0.019531-0.015625 0.03125-0.015625 0.019531 0 0.035156 0.007813 0.046875 0.015625 0.007812 0.011719 0.019531 0.023438 0.03125 0.03125z"/>
  </symbol>
  <symbol id="o" overflow="visible">
   <path d="m0.26562-0.14062v0.14062h-0.078125v-0.10938-0.03125-0.015625c0-0.007812-0.007812-0.015625-0.015625-0.015625h-0.015625c-0.011719 0-0.023438 0.007813-0.03125 0.015625-0.011719 0.011719-0.015625 0.027344-0.015625 0.046875v0.10938h-0.078125v-0.3125h0.078125v0.10938c0.007813-0.007813 0.019531-0.015625 0.03125-0.015625 0.007813-0.007812 0.023437-0.015625 0.046875-0.015625 0.019531 0 0.035156 0.011719 0.046875 0.03125 0.019531 0.011719 0.03125 0.03125 0.03125 0.0625z"/>
  </symbol>
  <symbol id="n" overflow="visible">
   <path d="m0.046875-0.3125h0.078125l0.10938 0.21875v-0.21875h0.078125v0.3125h-0.09375l-0.10938-0.20312v0.20312h-0.0625z"/>
  </symbol>
  <symbol id="m" overflow="visible">
   <path d="m0.03125-0.09375v-0.14062h0.078125v0.03125 0.046875 0.03125 0.046875 0.015625c0.007813 0 0.015625 0.0078125 0.015625 0.015625h0.015625c0.007813 0 0.019531-0.0039062 0.03125-0.015625 0.007813-0.0078125 0.015625-0.03125 0.015625-0.0625v-0.10938h0.078125v0.23438h-0.078125v-0.03125c-0.011719 0.011719-0.023438 0.023438-0.03125 0.03125h-0.046875c-0.023438 0-0.042969-0.0039062-0.0625-0.015625-0.011719-0.019531-0.015625-0.046875-0.015625-0.078125z"/>
  </symbol>
  <symbol id="l" overflow="visible">
   <path d="m0.046875-0.3125h0.125c0.039063 0 0.066406 0.011719 0.078125 0.03125 0.019531 0.023438 0.03125 0.046875 0.03125 0.078125s-0.011719 0.058594-0.03125 0.078125c-0.011719 0.011719-0.039062 0.015625-0.078125 0.015625h-0.046875v0.10938h-0.078125zm0.078125 0.0625v0.09375h0.03125c0.019531 0 0.03125-0.003906 0.03125-0.015625 0.007812-0.007813 0.015625-0.019531 0.015625-0.03125 0-0.019531-0.007813-0.03125-0.015625-0.03125 0-0.007813-0.011719-0.015625-0.03125-0.015625z"/>
  </symbol>
  <symbol id="k" overflow="visible">
   <path d="m0.21875-0.21875v0.0625c-0.011719-0.007812-0.023438-0.015625-0.03125-0.015625-0.011719-0.007813-0.023438-0.015625-0.03125-0.015625-0.023438 0-0.039062 0.011719-0.046875 0.03125-0.011719 0.011719-0.015625 0.027344-0.015625 0.046875 0 0.023438 0.0039062 0.039062 0.015625 0.046875 0.007813 0.011719 0.023437 0.015625 0.046875 0.015625h0.03125c0.007812-0.0078125 0.019531-0.015625 0.03125-0.015625v0.0625h-0.03125-0.03125c-0.054688 0-0.089844-0.0078125-0.10938-0.03125-0.023438-0.019531-0.03125-0.046875-0.03125-0.078125 0-0.039063 0.0078125-0.070313 0.03125-0.09375 0.019531-0.019531 0.054687-0.03125 0.10938-0.03125h0.03125c0.007812 0 0.019531 0.007813 0.03125 0.015625z"/>
  </symbol>
 </defs>
 <g>
  <path d="m205.07 528.31h289.87c-1.1719-55.18-42.809-33.191-35.367-106.02h-219.13c7.7773 72.152-34.195 50.75-35.367 106.02z"/>
  <path d="m189.68 560h320.63v-20.066h-320.63z"/>
  <path d="m427.46 168.64h-152.58c2.8438 72.32-8.4453 141.63-30.098 209.6h212.45c-24.914-66.719-33.359-137.28-29.766-209.6z"/>
  <path d="m239.93 157.02h222.56v-27.844h-222.56z"/>
  <path d="m262.09 0h-40.047l16.973 117.55h224.4l16.887-117.55h-40.047l-6.6055 74.828c0 3.1758-2.5938 5.7695-5.8516 5.7695h-43.477c-3.2617 0-5.9375-2.7578-5.7695-6.0195l2.8438-74.578h-60.449l2.8438 74.074c0.33594 3.7617-2.3398 6.5195-5.7695 6.5195h-43.477c-3.0117 0-5.5195-2.2578-5.7695-5.2656z"/>
  <path d="m466 390.11h-232.01c-13.211 0-12.961 20.316 0 20.316h232.01c13.211 0 12.875-20.316 0-20.316z"/>
  <use x="189.683594" y="561.253906" xlink:href="#s"/>
  <use x="189.992188" y="561.253906" xlink:href="#d"/>
  <use x="190.195312" y="561.253906" xlink:href="#a"/>
  <use x="190.480469" y="561.253906" xlink:href="#j"/>
  <use x="190.761719" y="561.253906" xlink:href="#c"/>
  <use x="190.960938" y="561.253906" xlink:href="#a"/>
  <use x="191.246094" y="561.253906" xlink:href="#i"/>
  <use x="191.691406" y="561.253906" xlink:href="#h"/>
  <use x="191.988281" y="561.253906" xlink:href="#g"/>
  <use x="192.40625" y="561.253906" xlink:href="#e"/>
  <use x="192.550781" y="561.253906" xlink:href="#b"/>
  <use x="192.839844" y="561.253906" xlink:href="#f"/>
  <use x="193.136719" y="561.253906" xlink:href="#r"/>
  <use x="189.683594" y="561.671875" xlink:href="#q"/>
  <use x="189.867188" y="561.671875" xlink:href="#d"/>
  <use x="190.070313" y="561.671875" xlink:href="#b"/>
  <use x="190.359375" y="561.671875" xlink:href="#p"/>
  <use x="190.941406" y="561.671875" xlink:href="#c"/>
  <use x="191.140625" y="561.671875" xlink:href="#o"/>
  <use x="191.4375" y="561.671875" xlink:href="#a"/>
  <use x="191.867188" y="561.671875" xlink:href="#n"/>
  <use x="192.214844" y="561.671875" xlink:href="#b"/>
  <use x="192.503906" y="561.671875" xlink:href="#m"/>
  <use x="192.800781" y="561.671875" xlink:href="#f"/>
  <use x="193.242188" y="561.671875" xlink:href="#l"/>
  <use x="193.550781" y="561.671875" xlink:href="#d"/>
  <use x="193.757813" y="561.671875" xlink:href="#b"/>
  <use x="194.042969" y="561.671875" xlink:href="#e"/>
  <use x="194.1875" y="561.671875" xlink:href="#a"/>
  <use x="194.46875" y="561.671875" xlink:href="#k"/>
  <use x="194.71875" y="561.671875" xlink:href="#c"/>
 </g>
</svg>
