<?xml version="1.0" encoding="UTF-8"?>
<svg width="700pt" height="700pt" version="1.1" viewBox="0 0 700 700" xmlns="http://www.w3.org/2000/svg" xmlns:xlink="http://www.w3.org/1999/xlink">
 <defs>
  <symbol id="s" overflow="visible">
   <path d="m0.25-0.015625c-0.011719 0.011719-0.027344 0.015625-0.046875 0.015625h-0.046875c-0.042969 0-0.078125-0.0078125-0.10938-0.03125-0.023438-0.019531-0.03125-0.050781-0.03125-0.09375 0-0.050781 0.0078125-0.085938 0.03125-0.10938 0.03125-0.03125 0.066406-0.046875 0.10938-0.046875 0.019531 0 0.035156 0.007812 0.046875 0.015625 0.019531 0 0.035156 0.007813 0.046875 0.015625v0.046875c-0.011719-0.007813-0.027344-0.015625-0.046875-0.015625h-0.03125c-0.03125 0-0.054687 0.011719-0.0625 0.03125-0.011719 0.011719-0.015625 0.03125-0.015625 0.0625 0 0.023438 0.0039062 0.042969 0.015625 0.0625 0.007813 0.011719 0.03125 0.015625 0.0625 0.015625h0.03125c0.019531-0.0078125 0.035156-0.015625 0.046875-0.015625z"/>
  </symbol>
  <symbol id="d" overflow="visible">
   <path d="m0.17188-0.14062c0-0.007813-0.007813-0.015625-0.015625-0.015625-0.023438 0-0.039062 0.007812-0.046875 0.015625-0.011719 0.011719-0.015625 0.027344-0.015625 0.046875v0.09375h-0.0625v-0.20312h0.0625v0.03125c0.007812-0.007813 0.019531-0.015625 0.03125-0.015625 0.007812-0.007812 0.019531-0.015625 0.03125-0.015625h0.015625z"/>
  </symbol>
  <symbol id="a" overflow="visible">
   <path d="m0.23438-0.10938v0.03125h-0.15625c0.0078125 0.011719 0.015625 0.023438 0.015625 0.03125h0.046875 0.03125c0.019531 0 0.035156-0.0039062 0.046875-0.015625v0.046875c-0.011719 0.011719-0.027344 0.015625-0.046875 0.015625h-0.046875c-0.03125 0-0.058594-0.0039062-0.078125-0.015625-0.023438-0.019531-0.03125-0.046875-0.03125-0.078125 0-0.039062 0.0078125-0.066406 0.03125-0.078125 0.019531-0.019531 0.046875-0.03125 0.078125-0.03125s0.054688 0.011719 0.078125 0.03125c0.019531 0.011719 0.03125 0.03125 0.03125 0.0625zm-0.0625-0.015625c0-0.007812-0.007813-0.015625-0.015625-0.015625-0.011719-0.007813-0.023438-0.015625-0.03125-0.015625-0.011719 0-0.023438 0.007812-0.03125 0.015625 0 0-0.0078125 0.007813-0.015625 0.015625z"/>
  </symbol>
  <symbol id="j" overflow="visible">
   <path d="m0.125-0.09375c-0.011719 0-0.023438 0.0078125-0.03125 0.015625-0.011719 0-0.015625 0.0078125-0.015625 0.015625v0.015625h0.03125 0.03125c0.007813-0.0078125 0.015625-0.019531 0.015625-0.03125v-0.015625zm0.09375-0.015625v0.10938h-0.0625v-0.03125c-0.011719 0.011719-0.023438 0.023438-0.03125 0.03125h-0.03125c-0.023438 0-0.042969-0.0039062-0.0625-0.015625-0.011719-0.0078125-0.015625-0.023438-0.015625-0.046875 0-0.019531 0.0039062-0.035156 0.015625-0.046875 0.019531-0.007813 0.046875-0.015625 0.078125-0.015625h0.046875c0-0.019531-0.007812-0.03125-0.015625-0.03125h-0.03125-0.046875-0.03125v-0.046875h0.03125 0.046875c0.039063 0 0.066406 0.011719 0.078125 0.03125 0.019531 0.011719 0.03125 0.03125 0.03125 0.0625z"/>
  </symbol>
  <symbol id="c" overflow="visible">
   <path d="m0.10938-0.26562v0.0625h0.0625v0.046875h-0.0625v0.09375 0.015625h0.015625 0.03125v0.046875h-0.046875c-0.03125 0-0.054688-0.0039062-0.0625-0.015625-0.011719-0.0078125-0.015625-0.023438-0.015625-0.046875v-0.09375h-0.03125v-0.046875h0.03125v-0.0625z"/>
  </symbol>
  <symbol id="i" overflow="visible">
   <path d="m0.17188-0.17188v-0.10938h0.0625v0.28125h-0.0625v-0.03125c-0.011719 0.011719-0.023437 0.023438-0.03125 0.03125h-0.03125c-0.03125 0-0.058594-0.0039062-0.078125-0.015625-0.011719-0.019531-0.015625-0.046875-0.015625-0.078125 0-0.039062 0.0039062-0.066406 0.015625-0.078125 0.019531-0.019531 0.046875-0.03125 0.078125-0.03125 0.007813 0 0.019531 0.007813 0.03125 0.015625 0.007813 0 0.019531 0.007812 0.03125 0.015625zm-0.046875 0.125h0.03125c0.007812-0.0078125 0.015625-0.023438 0.015625-0.046875 0-0.019531-0.007813-0.035156-0.015625-0.046875-0.011719-0.007813-0.023438-0.015625-0.03125-0.015625-0.011719 0-0.023438 0.007812-0.03125 0.015625-0.011719 0.011719-0.015625 0.027344-0.015625 0.046875 0 0.023438 0.0039062 0.039062 0.015625 0.046875h0.03125z"/>
  </symbol>
  <symbol id="h" overflow="visible">
   <path d="m0.14062-0.046875h0.015625c0.007812-0.0078125 0.015625-0.023438 0.015625-0.046875 0-0.019531-0.007813-0.035156-0.015625-0.046875 0-0.007813-0.007812-0.015625-0.015625-0.015625-0.023437 0-0.039063 0.007812-0.046875 0.015625v0.046875 0.03125c0.007812 0.011719 0.023438 0.015625 0.046875 0.015625zm-0.046875-0.125c0.007812-0.007813 0.019531-0.015625 0.03125-0.015625 0.007812-0.007812 0.019531-0.015625 0.03125-0.015625 0.03125 0 0.050781 0.011719 0.0625 0.03125 0.019531 0.011719 0.03125 0.039063 0.03125 0.078125 0 0.03125-0.011719 0.058594-0.03125 0.078125-0.011719 0.011719-0.03125 0.015625-0.0625 0.015625h-0.03125c-0.011719-0.0078125-0.023438-0.019531-0.03125-0.03125v0.03125h-0.0625v-0.28125h0.0625z"/>
  </symbol>
  <symbol id="g" overflow="visible">
   <path d="m0-0.20312h0.0625l0.0625 0.14062 0.046875-0.14062h0.0625l-0.078125 0.21875c-0.011719 0.019531-0.023438 0.035156-0.03125 0.046875-0.011719 0.0078125-0.027344 0.015625-0.046875 0.015625h-0.046875v-0.046875h0.03125 0.015625c0.0078125 0 0.015625-0.0078125 0.015625-0.015625v-0.015625z"/>
  </symbol>
  <symbol id="e" overflow="visible">
   <path d="m0.03125-0.20312h0.0625v0.20312c0 0.019531-0.0078125 0.035156-0.015625 0.046875-0.011719 0.019531-0.03125 0.03125-0.0625 0.03125h-0.03125v-0.046875h0.015625c0.0078125 0 0.015625-0.0078125 0.015625-0.015625 0.0078125 0 0.015625-0.0078125 0.015625-0.015625zm0-0.078125h0.0625v0.046875h-0.0625z"/>
  </symbol>
  <symbol id="b" overflow="visible">
   <path d="m0.125-0.15625c-0.011719 0-0.023438 0.007812-0.03125 0.015625-0.011719 0.011719-0.015625 0.027344-0.015625 0.046875 0 0.023438 0.0039062 0.039062 0.015625 0.046875h0.03125 0.03125c0.007812-0.0078125 0.015625-0.023438 0.015625-0.046875 0-0.019531-0.007813-0.035156-0.015625-0.046875 0-0.007813-0.011719-0.015625-0.03125-0.015625zm0-0.046875c0.03125 0 0.054688 0.011719 0.078125 0.03125 0.019531 0.011719 0.03125 0.039063 0.03125 0.078125 0 0.03125-0.011719 0.058594-0.03125 0.078125-0.023437 0.011719-0.046875 0.015625-0.078125 0.015625s-0.058594-0.0039062-0.078125-0.015625c-0.023438-0.019531-0.03125-0.046875-0.03125-0.078125 0-0.039062 0.0078125-0.066406 0.03125-0.078125 0.019531-0.019531 0.046875-0.03125 0.078125-0.03125z"/>
  </symbol>
  <symbol id="f" overflow="visible">
   <path d="m0.23438-0.125v0.125h-0.0625v-0.09375-0.03125c0-0.007812-0.007813-0.015625-0.015625-0.015625v-0.015625h-0.015625c-0.011719 0-0.023437 0.007812-0.03125 0.015625-0.011719 0.011719-0.015625 0.027344-0.015625 0.046875v0.09375h-0.0625v-0.20312h0.0625v0.03125c0.007812-0.007813 0.019531-0.015625 0.03125-0.015625 0.007812-0.007812 0.019531-0.015625 0.03125-0.015625 0.03125 0 0.050781 0.011719 0.0625 0.03125 0.007812 0.011719 0.015625 0.027344 0.015625 0.046875z"/>
  </symbol>
  <symbol id="r" overflow="visible">
   <path d="m0.03125-0.20312h0.0625v0.20312h-0.0625zm0-0.078125h0.0625v0.046875h-0.0625z"/>
  </symbol>
  <symbol id="q" overflow="visible">
   <path d="m0.15625-0.28125v0.046875h-0.03125-0.015625v0.015625 0.015625h0.046875v0.046875h-0.046875v0.15625h-0.0625v-0.15625h-0.046875v-0.046875h0.046875v-0.015625c0-0.019531 0.0039062-0.035156 0.015625-0.046875 0.0078125-0.007813 0.023438-0.015625 0.046875-0.015625z"/>
  </symbol>
  <symbol id="p" overflow="visible">
   <path d="m0.21875-0.17188c0.007812-0.007813 0.019531-0.015625 0.03125-0.015625 0.007812-0.007812 0.019531-0.015625 0.03125-0.015625 0.019531 0 0.035156 0.011719 0.046875 0.03125 0.019531 0.011719 0.03125 0.027344 0.03125 0.046875v0.125h-0.078125v-0.10938-0.03125c0-0.007813-0.007812-0.015625-0.015625-0.015625-0.011719 0-0.023437 0.007812-0.03125 0.015625-0.011719 0.011719-0.015625 0.027344-0.015625 0.046875v0.09375h-0.0625v-0.10938-0.03125c0-0.007813-0.011719-0.015625-0.03125-0.015625-0.011719 0-0.023438 0.007812-0.03125 0.015625v0.046875 0.09375h-0.0625v-0.20312h0.0625v0.03125c0.007812-0.007813 0.019531-0.015625 0.03125-0.015625 0.007812-0.007812 0.019531-0.015625 0.03125-0.015625 0.007812 0 0.019531 0.007813 0.03125 0.015625 0.007812 0 0.019531 0.007812 0.03125 0.015625z"/>
  </symbol>
  <symbol id="o" overflow="visible">
   <path d="m0.23438-0.125v0.125h-0.0625v-0.09375-0.03125c0-0.007812-0.007813-0.015625-0.015625-0.015625v-0.015625h-0.015625c-0.011719 0-0.023437 0.007812-0.03125 0.015625-0.011719 0.011719-0.015625 0.027344-0.015625 0.046875v0.09375h-0.0625v-0.28125h0.0625v0.10938c0.007812-0.007813 0.019531-0.015625 0.03125-0.015625 0.007812-0.007812 0.019531-0.015625 0.03125-0.015625 0.03125 0 0.050781 0.011719 0.0625 0.03125 0.007812 0.011719 0.015625 0.027344 0.015625 0.046875z"/>
  </symbol>
  <symbol id="n" overflow="visible">
   <path d="m0.03125-0.26562h0.078125l0.09375 0.17188v-0.17188h0.078125v0.26562h-0.078125l-0.10938-0.1875v0.1875h-0.0625z"/>
  </symbol>
  <symbol id="m" overflow="visible">
   <path d="m0.03125-0.078125v-0.125h0.0625v0.015625 0.046875 0.03125 0.046875c0.007812 0.011719 0.015625 0.015625 0.015625 0.015625h0.015625c0.007812 0 0.019531-0.0039062 0.03125-0.015625 0.007812-0.0078125 0.015625-0.023438 0.015625-0.046875v-0.09375h0.0625v0.20312h-0.0625v-0.03125c-0.011719 0.011719-0.023437 0.023438-0.03125 0.03125h-0.046875c-0.023438 0-0.039062-0.0039062-0.046875-0.015625-0.011719-0.019531-0.015625-0.039062-0.015625-0.0625z"/>
  </symbol>
  <symbol id="l" overflow="visible">
   <path d="m0.03125-0.26562h0.125c0.03125 0 0.050781 0.011719 0.0625 0.03125 0.019531 0.011719 0.03125 0.03125 0.03125 0.0625 0 0.023437-0.011719 0.042969-0.03125 0.0625-0.011719 0.011719-0.03125 0.015625-0.0625 0.015625h-0.046875v0.09375h-0.078125zm0.078125 0.046875v0.078125h0.03125 0.03125c0.007813-0.007813 0.015625-0.019531 0.015625-0.03125 0-0.019531-0.007812-0.03125-0.015625-0.03125-0.011719-0.007813-0.023437-0.015625-0.03125-0.015625z"/>
  </symbol>
  <symbol id="k" overflow="visible">
   <path d="m0.20312-0.20312v0.0625c-0.023437-0.007813-0.039063-0.015625-0.046875-0.015625h-0.015625c-0.023437 0-0.039063 0.007812-0.046875 0.015625-0.011719 0.011719-0.015625 0.027344-0.015625 0.046875 0 0.011719 0.0039062 0.023438 0.015625 0.03125 0.007812 0.011719 0.023438 0.015625 0.046875 0.015625h0.03125c0.007813 0 0.019531-0.0039062 0.03125-0.015625v0.0625h-0.046875-0.03125c-0.03125 0-0.058594-0.0039062-0.078125-0.015625-0.023438-0.019531-0.03125-0.046875-0.03125-0.078125 0-0.039062 0.0078125-0.066406 0.03125-0.078125 0.019531-0.019531 0.046875-0.03125 0.078125-0.03125h0.03125 0.046875z"/>
  </symbol>
 </defs>
 <g>
  <path d="m488.25 521.69h8.4141c2.8047 0 5.0938 2.2891 5.0938 5.168v27.973c0 2.8047-2.2891 5.168-5.0938 5.168h-293.32c-2.8047 0-5.0938-2.3633-5.0938-5.168v-27.973c0-2.8789 2.2891-5.168 5.0938-5.168h8.4141c2.3633-65.988 35.059-47.164 31.223-119.79-16.387-5.0195-18.82-29.305-3.543-37.938-9.1523-100.82 111.16-141.86 101.56-217.67-6.8633 25.391-37.938 29.895-60.008 25.832-6.5703 2.8789-11.883 9.5938-16.977 16.016-1.6992 2.1406-3.3203 4.207-4.7969 5.9062-0.73828 0.88672-1.6992 1.4023-2.7305 1.6992 0 0-39.859 10.852-39.562-39.121 0-1.1797 0.36719-2.2891 1.1055-3.1758 0 0 52.699-65.176 57.5-71.078 5.5352-15.723 14.098-16.977 18.895-27.09 0.14844-1.1797-6.6445-22.363 0.36719-51.297 0.66406-2.582 3.3945-4.5781 5.9805-3.8398 15.5 3.2461 30.262 14.539 42.664 26.426 0.58984-3.6172 1.9922-8.4883 6.6445-7.9727 128.65 15.059 174.78 167.11 126.88 275.68-10.703 24.211-14.395 43.992-15.5 70.195 14.469 9.2266 11.516 32.551-4.3555 37.422-3.6172 73.074 28.785 53.883 31.148 119.79zm-184.6-510.18c-2.7305 14.32-2.3633 28.637 1.0352 42.809 0.36719 1.0352 0.29687 2.2148-0.14844 3.3203-5.3125 13.582-14.613 13.137-19.559 28.711-0.22266 0.58984-0.51562 1.1797-0.96094 1.6992-18.969 23.473-37.938 46.945-56.906 70.414 0.14844 11.883 2.5078 19.855 6.9375 24.211 3.9844 3.9844 10.258 5.0195 18.527 3.3945 7.5273-9.0781 14.469-19.781 26.055-24.062 4.7969-1.8438 65.32 8.2656 51.961-32.477-3.9102-11.957 11.07-16.605 15.133-5.7578 37.055 97.355-104 133.23-96.25 237.96 67.316 0 134.63-0.074219 201.87-0.22266 0.51562-24.801 6.125-48.418 16.238-71.375 44.582-100.97 3.9102-243.65-114.26-260.85-0.22266 2.5078-0.14844 6.3477 0 9.0781 0.36719 4.9453-5.6094 7.3828-8.8555 3.9102-10.703-11.516-25.688-25.613-40.816-30.777zm148.36 361.23h-203.94c-11.59 0-11.293 18.895 0 18.895h203.94c11.516 0 11.219-18.895 0-18.895zm-243.5 177h282.99v-17.789h-282.99v17.789zm13.582-30.559h255.9c-0.96094-56.242-37.348-42.145-31.223-116.55h-193.46c6.4219 73.957-30.262 60.082-31.223 116.55z"/>
  <use x="198.246094" y="561.105469" xlink:href="#s"/>
  <use x="198.515625" y="561.105469" xlink:href="#d"/>
  <use x="198.699219" y="561.105469" xlink:href="#a"/>
  <use x="198.949219" y="561.105469" xlink:href="#j"/>
  <use x="199.199219" y="561.105469" xlink:href="#c"/>
  <use x="199.375" y="561.105469" xlink:href="#a"/>
  <use x="199.625" y="561.105469" xlink:href="#i"/>
  <use x="200.015625" y="561.105469" xlink:href="#h"/>
  <use x="200.28125" y="561.105469" xlink:href="#g"/>
  <use x="200.652344" y="561.105469" xlink:href="#e"/>
  <use x="200.777344" y="561.105469" xlink:href="#b"/>
  <use x="201.03125" y="561.105469" xlink:href="#f"/>
  <use x="201.292969" y="561.105469" xlink:href="#r"/>
  <use x="198.246094" y="561.476563" xlink:href="#q"/>
  <use x="198.40625" y="561.476563" xlink:href="#d"/>
  <use x="198.589844" y="561.476563" xlink:href="#b"/>
  <use x="198.839844" y="561.476563" xlink:href="#p"/>
  <use x="199.355469" y="561.476563" xlink:href="#c"/>
  <use x="199.53125" y="561.476563" xlink:href="#o"/>
  <use x="199.792969" y="561.476563" xlink:href="#a"/>
  <use x="200.171875" y="561.476563" xlink:href="#n"/>
  <use x="200.480469" y="561.476563" xlink:href="#b"/>
  <use x="200.734375" y="561.476563" xlink:href="#m"/>
  <use x="200.996094" y="561.476563" xlink:href="#f"/>
  <use x="201.390625" y="561.476563" xlink:href="#l"/>
  <use x="201.660156" y="561.476563" xlink:href="#d"/>
  <use x="201.839844" y="561.476563" xlink:href="#b"/>
  <use x="202.09375" y="561.476563" xlink:href="#e"/>
  <use x="202.222656" y="561.476563" xlink:href="#a"/>
  <use x="202.472656" y="561.476563" xlink:href="#k"/>
  <use x="202.691406" y="561.476563" xlink:href="#c"/>
 </g>
</svg>
