<?xml version="1.0" encoding="UTF-8"?>
<svg width="700pt" height="700pt" version="1.1" viewBox="0 0 700 700" xmlns="http://www.w3.org/2000/svg" xmlns:xlink="http://www.w3.org/1999/xlink">
 <defs>
  <symbol id="s" overflow="visible">
   <path d="m0.20312-0.015625c-0.011719 0.011719-0.023437 0.015625-0.03125 0.015625h-0.03125c-0.042969 0-0.074219-0.0078125-0.09375-0.03125-0.023438-0.019531-0.03125-0.046875-0.03125-0.078125s0.0078125-0.054687 0.03125-0.078125c0.019531-0.03125 0.050781-0.046875 0.09375-0.046875 0.007813 0 0.019531 0.007813 0.03125 0.015625 0.007813 0 0.019531 0.007812 0.03125 0.015625v0.046875c-0.011719-0.007812-0.023437-0.015625-0.03125-0.015625-0.011719-0.007813-0.023437-0.015625-0.03125-0.015625-0.023437 0-0.039063 0.011719-0.046875 0.03125-0.011719 0.011719-0.015625 0.027344-0.015625 0.046875 0 0.023438 0.0039062 0.042969 0.015625 0.0625 0.007812 0.011719 0.023438 0.015625 0.046875 0.015625h0.03125c0.007813-0.0078125 0.019531-0.019531 0.03125-0.03125z"/>
  </symbol>
  <symbol id="d" overflow="visible">
   <path d="m0.14062-0.125h-0.015625c-0.023438 0-0.039062 0.007812-0.046875 0.015625v0.03125 0.078125h-0.046875v-0.17188h0.046875v0.03125c0.0078125-0.007813 0.015625-0.015625 0.015625-0.015625 0.007812-0.007812 0.023438-0.015625 0.046875-0.015625z"/>
  </symbol>
  <symbol id="a" overflow="visible">
   <path d="m0.1875-0.09375v0.03125h-0.125c0.0078125 0.011719 0.015625 0.023438 0.015625 0.03125h0.03125 0.03125c0.019531-0.0078125 0.035156-0.015625 0.046875-0.015625v0.03125c-0.011719 0.011719-0.027344 0.015625-0.046875 0.015625h-0.03125c-0.03125 0-0.058594-0.0039062-0.078125-0.015625-0.011719-0.019531-0.015625-0.039062-0.015625-0.0625 0-0.03125 0.0039062-0.050781 0.015625-0.0625 0.019531-0.019531 0.046875-0.03125 0.078125-0.03125 0.019531 0 0.035156 0.011719 0.046875 0.03125 0.019531 0.011719 0.03125 0.027344 0.03125 0.046875zm-0.046875 0c0-0.019531-0.007813-0.03125-0.015625-0.03125 0-0.007812-0.007812-0.015625-0.015625-0.015625-0.011719 0-0.023438 0.007813-0.03125 0.015625 0 0-0.0078125 0.011719-0.015625 0.03125z"/>
  </symbol>
  <symbol id="j" overflow="visible">
   <path d="m0.09375-0.078125-0.015625 0.015625c-0.011719 0-0.015625 0.0078125-0.015625 0.015625v0.015625h0.03125 0.015625c0.007813-0.0078125 0.015625-0.019531 0.015625-0.03125v-0.015625zm0.09375-0.015625v0.09375h-0.0625v-0.03125c0 0.011719-0.007812 0.023438-0.015625 0.03125h-0.03125c-0.023438 0-0.039062-0.0039062-0.046875-0.015625-0.011719-0.0078125-0.015625-0.019531-0.015625-0.03125 0-0.019531 0.0039062-0.035156 0.015625-0.046875 0.0078125-0.007812 0.03125-0.015625 0.0625-0.015625h0.03125c0-0.007813-0.007812-0.015625-0.015625-0.015625 0-0.007812-0.007813-0.015625-0.015625-0.015625-0.011719 0-0.027344 0.007813-0.046875 0.015625h-0.015625v-0.03125c0.0078125-0.007812 0.019531-0.015625 0.03125-0.015625h0.03125c0.03125 0 0.050781 0.007813 0.0625 0.015625 0.019531 0.011719 0.03125 0.03125 0.03125 0.0625z"/>
  </symbol>
  <symbol id="c" overflow="visible">
   <path d="m0.09375-0.21875v0.046875h0.046875v0.046875h-0.046875v0.0625 0.03125h0.015625 0.03125v0.03125h-0.046875c-0.023438 0-0.039062-0.0039062-0.046875-0.015625-0.011719-0.0078125-0.015625-0.023438-0.015625-0.046875v-0.0625h-0.03125v-0.046875h0.03125v-0.046875z"/>
  </symbol>
  <symbol id="i" overflow="visible">
   <path d="m0.14062-0.14062v-0.09375h0.046875v0.23438h-0.046875v-0.03125c-0.011719 0.011719-0.023437 0.023438-0.03125 0.03125h-0.015625c-0.03125 0-0.054688-0.0039062-0.0625-0.015625-0.011719-0.019531-0.015625-0.039062-0.015625-0.0625 0-0.03125 0.0039062-0.050781 0.015625-0.0625 0.0078125-0.019531 0.03125-0.03125 0.0625-0.03125 0 0 0.0039062 0.007813 0.015625 0.015625 0.007813 0 0.019531 0.007812 0.03125 0.015625zm-0.03125 0.10938c0.007813 0 0.015625-0.0039062 0.015625-0.015625 0.007812-0.0078125 0.015625-0.019531 0.015625-0.03125 0-0.019531-0.007813-0.035156-0.015625-0.046875 0-0.007812-0.007812-0.015625-0.015625-0.015625-0.011719 0-0.023438 0.007813-0.03125 0.015625-0.011719 0.011719-0.015625 0.027344-0.015625 0.046875 0 0.011719 0.0039062 0.023438 0.015625 0.03125 0.0078125 0.011719 0.019531 0.015625 0.03125 0.015625z"/>
  </symbol>
  <symbol id="h" overflow="visible">
   <path d="m0.10938-0.03125c0.019531 0 0.03125-0.0039062 0.03125-0.015625v-0.03125-0.046875c0-0.007812-0.011719-0.015625-0.03125-0.015625-0.011719 0-0.023438 0.007813-0.03125 0.015625v0.046875 0.03125c0.0078125 0.011719 0.019531 0.015625 0.03125 0.015625zm-0.03125-0.10938c0.0078125-0.007813 0.019531-0.015625 0.03125-0.015625 0.007813-0.007812 0.019531-0.015625 0.03125-0.015625 0.019531 0 0.035156 0.011719 0.046875 0.03125 0.007812 0.011719 0.015625 0.03125 0.015625 0.0625 0 0.023438-0.007813 0.042969-0.015625 0.0625-0.011719 0.011719-0.027344 0.015625-0.046875 0.015625h-0.03125c-0.011719-0.0078125-0.023438-0.019531-0.03125-0.03125v0.03125h-0.046875v-0.23438h0.046875z"/>
  </symbol>
  <symbol id="g" overflow="visible">
   <path d="m0-0.17188h0.0625l0.03125 0.125 0.046875-0.125h0.0625l-0.078125 0.1875c-0.011719 0.019531-0.023438 0.03125-0.03125 0.03125 0 0.0078125-0.011719 0.015625-0.03125 0.015625h-0.03125v-0.03125h0.015625 0.015625c0.0078125 0 0.015625-0.0078125 0.015625-0.015625v-0.015625z"/>
  </symbol>
  <symbol id="e" overflow="visible">
   <path d="m0.03125-0.17188h0.046875v0.17188c0 0.019531-0.0078125 0.035156-0.015625 0.046875-0.011719 0.0078125-0.027344 0.015625-0.046875 0.015625h-0.03125v-0.03125h0.015625c0.0078125 0 0.015625-0.0078125 0.015625-0.015625 0.0078125 0 0.015625-0.0078125 0.015625-0.015625zm0-0.0625h0.046875v0.046875h-0.046875z"/>
  </symbol>
  <symbol id="b" overflow="visible">
   <path d="m0.10938-0.14062c-0.011719 0-0.023438 0.007813-0.03125 0.015625-0.011719 0.011719-0.015625 0.027344-0.015625 0.046875 0 0.011719 0.0039062 0.023438 0.015625 0.03125 0.0078125 0.011719 0.019531 0.015625 0.03125 0.015625 0.007813 0 0.015625-0.0039062 0.015625-0.015625 0.007812-0.0078125 0.015625-0.019531 0.015625-0.03125 0-0.019531-0.007813-0.035156-0.015625-0.046875 0-0.007812-0.007812-0.015625-0.015625-0.015625zm0-0.03125c0.019531 0 0.039063 0.011719 0.0625 0.03125 0.019531 0.011719 0.03125 0.03125 0.03125 0.0625 0 0.023438-0.011719 0.042969-0.03125 0.0625-0.023437 0.011719-0.042969 0.015625-0.0625 0.015625-0.03125 0-0.058594-0.0039062-0.078125-0.015625-0.011719-0.019531-0.015625-0.039062-0.015625-0.0625 0-0.03125 0.0039062-0.050781 0.015625-0.0625 0.019531-0.019531 0.046875-0.03125 0.078125-0.03125z"/>
  </symbol>
  <symbol id="f" overflow="visible">
   <path d="m0.20312-0.09375v0.09375h-0.0625v-0.078125-0.015625-0.03125h-0.015625-0.015625c-0.011719 0-0.023438 0.007812-0.03125 0.015625v0.03125 0.078125h-0.046875v-0.17188h0.046875v0.03125c0.0078125-0.007813 0.019531-0.015625 0.03125-0.015625 0.007813-0.007812 0.019531-0.015625 0.03125-0.015625 0.007813 0 0.019531 0.007813 0.03125 0.015625 0.019531 0.011719 0.03125 0.03125 0.03125 0.0625z"/>
  </symbol>
  <symbol id="r" overflow="visible">
   <path d="m0.03125-0.17188h0.046875v0.17188h-0.046875zm0-0.0625h0.046875v0.046875h-0.046875z"/>
  </symbol>
  <symbol id="q" overflow="visible">
   <path d="m0.14062-0.23438v0.03125h-0.03125c-0.011719 0-0.015625 0.007813-0.015625 0.015625v0.015625h0.046875v0.046875h-0.046875v0.125h-0.0625v-0.125h-0.03125v-0.046875h0.03125c0-0.019531 0.0039062-0.035156 0.015625-0.046875 0.0078125-0.007812 0.023438-0.015625 0.046875-0.015625z"/>
  </symbol>
  <symbol id="p" overflow="visible">
   <path d="m0.1875-0.14062c0-0.007813 0.003906-0.015625 0.015625-0.015625 0.007813-0.007812 0.019531-0.015625 0.03125-0.015625 0.019531 0 0.035156 0.007813 0.046875 0.015625 0.007812 0.011719 0.015625 0.03125 0.015625 0.0625v0.09375h-0.0625v-0.09375-0.015625c0-0.007813-0.007813-0.015625-0.015625-0.015625-0.011719 0-0.023438 0.007812-0.03125 0.015625v0.03125 0.078125h-0.046875v-0.09375c0-0.007812-0.007813-0.015625-0.015625-0.015625 0-0.007813-0.007812-0.015625-0.015625-0.015625-0.011719 0-0.023438 0.007812-0.03125 0.015625v0.03125 0.078125h-0.046875v-0.17188h0.046875v0.03125c0.0078125-0.007813 0.015625-0.015625 0.015625-0.015625 0.007812-0.007812 0.019531-0.015625 0.03125-0.015625 0.007812 0 0.019531 0.007813 0.03125 0.015625 0.007812 0 0.019531 0.007812 0.03125 0.015625z"/>
  </symbol>
  <symbol id="o" overflow="visible">
   <path d="m0.20312-0.09375v0.09375h-0.0625v-0.078125-0.015625-0.03125h-0.015625-0.015625c-0.011719 0-0.023438 0.007812-0.03125 0.015625v0.03125 0.078125h-0.046875v-0.23438h0.046875v0.09375c0.0078125-0.007813 0.019531-0.015625 0.03125-0.015625 0.007813-0.007812 0.019531-0.015625 0.03125-0.015625 0.007813 0 0.019531 0.007813 0.03125 0.015625 0.019531 0.011719 0.03125 0.03125 0.03125 0.0625z"/>
  </symbol>
  <symbol id="n" overflow="visible">
   <path d="m0.03125-0.21875h0.0625l0.078125 0.14062v-0.14062h0.0625v0.21875h-0.078125l-0.078125-0.15625v0.15625h-0.046875z"/>
  </symbol>
  <symbol id="m" overflow="visible">
   <path d="m0.03125-0.0625v-0.10938h0.046875v0.015625 0.046875 0.015625 0.046875c0.0078125 0 0.015625 0.0078125 0.015625 0.015625h0.015625c0.007813 0 0.015625-0.0039062 0.015625-0.015625 0.007812-0.0078125 0.015625-0.023438 0.015625-0.046875v-0.078125h0.046875v0.17188h-0.046875v-0.03125c-0.011719 0.011719-0.023437 0.023438-0.03125 0.03125h-0.03125c-0.023438 0-0.039062-0.0039062-0.046875-0.015625v-0.046875z"/>
  </symbol>
  <symbol id="l" overflow="visible">
   <path d="m0.03125-0.21875h0.09375c0.03125 0 0.050781 0.007812 0.0625 0.015625 0.007812 0.011719 0.015625 0.03125 0.015625 0.0625 0 0.023437-0.007813 0.039063-0.015625 0.046875-0.011719 0.011719-0.03125 0.015625-0.0625 0.015625h-0.03125v0.078125h-0.0625zm0.0625 0.03125v0.0625h0.03125 0.015625c0.007813-0.007812 0.015625-0.015625 0.015625-0.015625 0-0.019531-0.007812-0.03125-0.015625-0.03125 0-0.007813-0.007813-0.015625-0.015625-0.015625z"/>
  </symbol>
  <symbol id="k" overflow="visible">
   <path d="m0.15625-0.15625v0.03125h-0.03125c0-0.007812-0.007812-0.015625-0.015625-0.015625-0.011719 0-0.023438 0.007813-0.03125 0.015625-0.011719 0.011719-0.015625 0.027344-0.015625 0.046875 0 0.011719 0.0039062 0.023438 0.015625 0.03125 0.0078125 0.011719 0.019531 0.015625 0.03125 0.015625h0.03125c0.007813-0.0078125 0.015625-0.015625 0.015625-0.015625v0.046875h-0.03125-0.015625c-0.03125 0-0.058594-0.0039062-0.078125-0.015625-0.011719-0.019531-0.015625-0.039062-0.015625-0.0625 0-0.03125 0.0039062-0.050781 0.015625-0.0625 0.019531-0.019531 0.046875-0.03125 0.078125-0.03125h0.015625c0.007812 0 0.019531 0.007813 0.03125 0.015625z"/>
  </symbol>
 </defs>
 <g>
  <path d="m300.38 205.04c0-1.7734 0.79297-3.2383 1.8945-3.9102-18.027-16.012-30.129-43.086-30.129-67.043 0.73438-40.949 36.242-73.523 64.172-99.25-13.324-12.406-4.5234-34.836 13.691-34.836 18.211 0 27.074 22.43 13.691 34.836 7.0273 6.418 14.117 13.016 21.512 20.352l-37.34 80.551c-2.0156 4.2188 4.3984 7.1523 6.3555 2.9961l36.301-78.168c18.945 20.961 36.793 43.879 37.34 73.523 0 23.957-12.102 51.031-30.129 67.043 1.1602 0.67188 1.957 2.1406 1.957 3.9102v18.945h15.645c20.719 0 20.289 31.719 0 31.719h-13.75c3.7266 55.066 2.6289 109.34 22.98 163.48h21.207c2.3828 0 4.2773 1.8945 4.2773 4.2188v23.223c0 2.3242-1.8945 4.2188-4.2773 4.2188h-7.1523c-4.7656 50.785 24.75 32.574 25.789 77.496h7.0273c2.3242 0 4.2188 1.8945 4.2188 4.2188v23.223c0 2.3242-1.8945 4.2188-4.2188 4.2188h-242.87c-2.3242 0-4.2188-1.8945-4.2188-4.2188v-23.223c0-2.3242 1.8945-4.2188 4.2188-4.2188h7.0273c1.1016-44.98 30.801-27.137 25.852-77.496h-7.2109c-2.3828 0-4.2773-1.8945-4.2773-4.2188v-23.223c0-2.3242 1.8945-4.2188 4.2773-4.2188h21.27c20.23-54.148 19.191-108.42 22.918-163.48h-13.691c-20.719 0-20.289-31.719 0-31.719h15.645zm6.2344 4.2773v14.668h86.785v-14.668zm108.72 23.285h-130.6c-9.4727 0-9.2266 14.422 0 14.422h130.6c9.4727 0 9.2266-14.422 0-14.422zm-59.281-193.31c-3.9102 1.2227-8.1914 1.2227-12.102 0-26.219 24.203-62.582 56.348-63.375 94.789 0.91797 25.605 13.262 52.559 35.203 66.738h68.449c21.941-14.18 34.285-41.129 35.203-66.738-0.48828-22.125-12.773-41.863-26.645-58.242l-30.863 66.434c-6.7227 14.484-28.359 4.0352-21.758-10.086l34.898-75.172c-6.2344-5.9883-12.652-11.855-19.008-17.723zm0.97656-26.219c-6.2344-6.2344-16.93-1.7734-16.93 7.0273 0 8.8633 10.695 13.262 16.93 7.0273 3.9102-3.8516 3.9102-10.145 0-14.055zm-124.19 523.76v14.668h234.32v-14.668zm197.28-85.988h-160.18c5.6836 52.742-24.996 37.035-25.852 77.496h211.89c-0.85547-40.336-31.293-24.262-25.852-77.496zm-171.67-23.164v14.668h183.1v-14.668h-183.1zm26.035-8.4961h131.03c-19.801-54.699-18.641-108.23-22.43-163.48h-86.172c-3.7891 55.25-2.6875 108.79-22.43 163.48z"/>
  <use x="224.347656" y="560.917969" xlink:href="#s"/>
  <use x="224.570313" y="560.917969" xlink:href="#d"/>
  <use x="224.722656" y="560.917969" xlink:href="#a"/>
  <use x="224.929688" y="560.917969" xlink:href="#j"/>
  <use x="225.136719" y="560.917969" xlink:href="#c"/>
  <use x="225.28125" y="560.917969" xlink:href="#a"/>
  <use x="225.488281" y="560.917969" xlink:href="#i"/>
  <use x="225.8125" y="560.917969" xlink:href="#h"/>
  <use x="226.03125" y="560.917969" xlink:href="#g"/>
  <use x="226.339844" y="560.917969" xlink:href="#e"/>
  <use x="226.441406" y="560.917969" xlink:href="#b"/>
  <use x="226.652344" y="560.917969" xlink:href="#f"/>
  <use x="226.871094" y="560.917969" xlink:href="#r"/>
  <use x="224.347656" y="561.222656" xlink:href="#q"/>
  <use x="224.480469" y="561.222656" xlink:href="#d"/>
  <use x="224.628906" y="561.222656" xlink:href="#b"/>
  <use x="224.839844" y="561.222656" xlink:href="#p"/>
  <use x="225.265625" y="561.222656" xlink:href="#c"/>
  <use x="225.410156" y="561.222656" xlink:href="#o"/>
  <use x="225.628906" y="561.222656" xlink:href="#a"/>
  <use x="225.941406" y="561.222656" xlink:href="#n"/>
  <use x="226.199219" y="561.222656" xlink:href="#b"/>
  <use x="226.40625" y="561.222656" xlink:href="#m"/>
  <use x="226.625" y="561.222656" xlink:href="#f"/>
  <use x="226.949219" y="561.222656" xlink:href="#l"/>
  <use x="227.171875" y="561.222656" xlink:href="#d"/>
  <use x="227.324219" y="561.222656" xlink:href="#b"/>
  <use x="227.535156" y="561.222656" xlink:href="#e"/>
  <use x="227.640625" y="561.222656" xlink:href="#a"/>
  <use x="227.847656" y="561.222656" xlink:href="#k"/>
  <use x="228.027344" y="561.222656" xlink:href="#c"/>
 </g>
</svg>
