<?xml version="1.0" encoding="UTF-8"?>
<svg width="700pt" height="700pt" version="1.1" viewBox="0 0 700 700" xmlns="http://www.w3.org/2000/svg" xmlns:xlink="http://www.w3.org/1999/xlink">
 <defs>
  <symbol id="s" overflow="visible">
   <path d="m0.32812-0.015625c-0.011719 0.011719-0.027344 0.015625-0.046875 0.015625h-0.0625c-0.0625 0-0.11719-0.015625-0.15625-0.046875-0.03125-0.03125-0.046875-0.070313-0.046875-0.125 0-0.0625 0.015625-0.10938 0.046875-0.14062 0.039062-0.039062 0.09375-0.0625 0.15625-0.0625 0.019531 0 0.039062 0.007812 0.0625 0.015625 0.019531 0 0.035156 0.007813 0.046875 0.015625v0.078125c-0.011719-0.007813-0.027344-0.015625-0.046875-0.015625-0.023438-0.007812-0.042969-0.015625-0.0625-0.015625-0.03125 0-0.058594 0.011719-0.078125 0.03125-0.011719 0.023437-0.015625 0.054687-0.015625 0.09375 0 0.03125 0.003906 0.058594 0.015625 0.078125 0.019531 0.023438 0.046875 0.03125 0.078125 0.03125h0.0625c0.019531-0.0078125 0.035156-0.019531 0.046875-0.03125z"/>
  </symbol>
  <symbol id="d" overflow="visible">
   <path d="m0.23438-0.1875c0-0.007812-0.007813-0.015625-0.015625-0.015625h-0.015625c-0.03125 0-0.054687 0.011719-0.0625 0.03125-0.011719 0.011719-0.015625 0.027344-0.015625 0.046875v0.125h-0.09375v-0.26562h0.09375v0.046875c0.007812-0.019531 0.019531-0.035156 0.03125-0.046875 0.019531-0.007813 0.039062-0.015625 0.0625-0.015625h0.015625z"/>
  </symbol>
  <symbol id="a" overflow="visible">
   <path d="m0.3125-0.14062v0.03125h-0.20312c0 0.023438 0.003906 0.039062 0.015625 0.046875 0.007812 0.011719 0.03125 0.015625 0.0625 0.015625h0.046875c0.019531-0.0078125 0.039063-0.019531 0.0625-0.03125v0.0625c-0.023437 0.011719-0.042969 0.015625-0.0625 0.015625h-0.0625c-0.054687 0-0.09375-0.0078125-0.125-0.03125-0.023438-0.019531-0.03125-0.050781-0.03125-0.09375 0-0.050781 0.0078125-0.085938 0.03125-0.10938 0.03125-0.03125 0.070313-0.046875 0.125-0.046875 0.039063 0 0.070313 0.015625 0.09375 0.046875 0.03125 0.023437 0.046875 0.054687 0.046875 0.09375zm-0.09375-0.015625c0-0.019531-0.007812-0.035156-0.015625-0.046875-0.011719-0.007813-0.023437-0.015625-0.03125-0.015625-0.023437 0-0.039063 0.007812-0.046875 0.015625-0.011719 0.011719-0.015625 0.027344-0.015625 0.046875z"/>
  </symbol>
  <symbol id="j" overflow="visible">
   <path d="m0.15625-0.125c-0.011719 0-0.023438 0.007812-0.03125 0.015625-0.011719 0.011719-0.015625 0.023438-0.015625 0.03125v0.03125h0.03125c0.019531 0 0.035156-0.0039062 0.046875-0.015625 0.007812-0.0078125 0.015625-0.023438 0.015625-0.046875v-0.015625zm0.14062-0.03125v0.15625h-0.09375v-0.03125c-0.011719 0.011719-0.027344 0.023438-0.046875 0.03125h-0.046875c-0.023438 0-0.042969-0.0039062-0.0625-0.015625-0.023438-0.0078125-0.03125-0.03125-0.03125-0.0625s0.0078125-0.050781 0.03125-0.0625c0.019531-0.019531 0.054687-0.03125 0.10938-0.03125h0.046875c0-0.019531-0.007813-0.03125-0.015625-0.03125-0.011719-0.007813-0.027344-0.015625-0.046875-0.015625-0.023437 0-0.042969 0.007812-0.0625 0.015625h-0.03125v-0.0625h0.046875c0.019531-0.007813 0.039062-0.015625 0.0625-0.015625 0.050781 0 0.085938 0.011719 0.10938 0.03125 0.019531 0.023438 0.03125 0.054688 0.03125 0.09375z"/>
  </symbol>
  <symbol id="c" overflow="visible">
   <path d="m0.14062-0.34375v0.078125h0.078125v0.0625h-0.078125v0.10938 0.03125h0.03125 0.046875v0.0625h-0.078125c-0.03125 0-0.058594-0.0039062-0.078125-0.015625-0.011719-0.019531-0.015625-0.046875-0.015625-0.078125v-0.10938h-0.046875v-0.0625h0.046875v-0.078125z"/>
  </symbol>
  <symbol id="i" overflow="visible">
   <path d="m0.21875-0.23438v-0.14062h0.09375v0.375h-0.09375v-0.03125c-0.011719 0.011719-0.027344 0.023438-0.046875 0.03125h-0.03125c-0.042969 0-0.074219-0.0078125-0.09375-0.03125-0.023438-0.019531-0.03125-0.050781-0.03125-0.09375 0-0.050781 0.0078125-0.085938 0.03125-0.10938 0.019531-0.03125 0.050781-0.046875 0.09375-0.046875 0.007813 0 0.019531 0.007812 0.03125 0.015625 0.019531 0.011719 0.035156 0.023437 0.046875 0.03125zm-0.046875 0.1875c0.007813 0 0.019531-0.0039062 0.03125-0.015625 0.007813-0.019531 0.015625-0.039062 0.015625-0.0625 0-0.03125-0.007812-0.050781-0.015625-0.0625-0.011719-0.019531-0.023437-0.03125-0.03125-0.03125-0.023437 0-0.039063 0.011719-0.046875 0.03125-0.011719 0.011719-0.015625 0.03125-0.015625 0.0625 0 0.023438 0.003906 0.042969 0.015625 0.0625 0.007812 0.011719 0.023438 0.015625 0.046875 0.015625z"/>
  </symbol>
  <symbol id="h" overflow="visible">
   <path d="m0.1875-0.046875c0.019531 0 0.03125-0.0039062 0.03125-0.015625 0.007812-0.019531 0.015625-0.039062 0.015625-0.0625 0-0.03125-0.007813-0.050781-0.015625-0.0625 0-0.019531-0.011719-0.03125-0.03125-0.03125-0.023438 0-0.039062 0.011719-0.046875 0.03125-0.011719 0.011719-0.015625 0.03125-0.015625 0.0625 0 0.023438 0.003906 0.042969 0.015625 0.0625 0.007813 0.011719 0.023437 0.015625 0.046875 0.015625zm-0.0625-0.1875c0.007812-0.007813 0.019531-0.019531 0.03125-0.03125 0.019531-0.007813 0.039062-0.015625 0.0625-0.015625 0.03125 0 0.054688 0.015625 0.078125 0.046875 0.019531 0.023437 0.03125 0.058594 0.03125 0.10938 0 0.042969-0.011719 0.074219-0.03125 0.09375-0.023437 0.023438-0.046875 0.03125-0.078125 0.03125h-0.0625c-0.011719-0.0078125-0.023438-0.019531-0.03125-0.03125v0.03125h-0.09375v-0.375h0.09375z"/>
  </symbol>
  <symbol id="g" overflow="visible">
   <path d="m0-0.26562h0.09375l0.0625 0.1875 0.0625-0.1875h0.09375l-0.10938 0.28125c-0.011719 0.03125-0.027344 0.050781-0.046875 0.0625-0.011719 0.019531-0.03125 0.03125-0.0625 0.03125h-0.046875v-0.0625h0.03125c0.0078125 0 0.015625-0.0078125 0.015625-0.015625 0.007812 0 0.019531-0.0078125 0.03125-0.015625v-0.015625z"/>
  </symbol>
  <symbol id="e" overflow="visible">
   <path d="m0.03125-0.26562h0.09375v0.26562c0 0.03125-0.011719 0.054688-0.03125 0.078125-0.011719 0.019531-0.039062 0.03125-0.078125 0.03125h-0.03125v-0.0625h0.015625c0.0078125 0 0.015625-0.0078125 0.015625-0.015625 0.0078125 0 0.015625-0.011719 0.015625-0.03125zm0-0.10938h0.09375v0.0625h-0.09375z"/>
  </symbol>
  <symbol id="b" overflow="visible">
   <path d="m0.17188-0.21875c-0.023437 0-0.039063 0.011719-0.046875 0.03125-0.011719 0.011719-0.015625 0.03125-0.015625 0.0625 0 0.023438 0.003906 0.042969 0.015625 0.0625 0.007812 0.011719 0.023438 0.015625 0.046875 0.015625 0.019531 0 0.035156-0.0039062 0.046875-0.015625 0.007812-0.019531 0.015625-0.039062 0.015625-0.0625 0-0.03125-0.007813-0.050781-0.015625-0.0625-0.011719-0.019531-0.027344-0.03125-0.046875-0.03125zm0-0.0625c0.039063 0 0.070313 0.015625 0.09375 0.046875 0.03125 0.023437 0.046875 0.058594 0.046875 0.10938 0 0.042969-0.015625 0.074219-0.046875 0.09375-0.023437 0.023438-0.054687 0.03125-0.09375 0.03125-0.054687 0-0.09375-0.0078125-0.125-0.03125-0.023438-0.019531-0.03125-0.050781-0.03125-0.09375 0-0.050781 0.0078125-0.085938 0.03125-0.10938 0.03125-0.03125 0.070313-0.046875 0.125-0.046875z"/>
  </symbol>
  <symbol id="f" overflow="visible">
   <path d="m0.3125-0.15625v0.15625h-0.09375v-0.125-0.046875-0.015625c0-0.007812-0.007812-0.015625-0.015625-0.015625h-0.015625c-0.023438 0-0.039062 0.007813-0.046875 0.015625-0.011719 0.011719-0.015625 0.03125-0.015625 0.0625v0.125h-0.09375v-0.26562h0.09375v0.03125c0.007812-0.007813 0.019531-0.019531 0.03125-0.03125 0.019531-0.007813 0.039062-0.015625 0.0625-0.015625 0.03125 0 0.050781 0.011719 0.0625 0.03125 0.019531 0.023438 0.03125 0.054688 0.03125 0.09375z"/>
  </symbol>
  <symbol id="r" overflow="visible">
   <path d="m0.03125-0.26562h0.09375v0.26562h-0.09375zm0-0.10938h0.09375v0.0625h-0.09375z"/>
  </symbol>
  <symbol id="q" overflow="visible">
   <path d="m0.21875-0.375v0.0625h-0.046875-0.03125v0.03125 0.015625h0.078125v0.0625h-0.078125v0.20312h-0.09375v-0.20312h-0.046875v-0.0625h0.046875v-0.015625c0-0.03125 0.0039062-0.050781 0.015625-0.0625 0.019531-0.019531 0.050781-0.03125 0.09375-0.03125z"/>
  </symbol>
  <symbol id="p" overflow="visible">
   <path d="m0.29688-0.21875c0.007813-0.019531 0.019531-0.035156 0.03125-0.046875 0.019531-0.007813 0.035156-0.015625 0.046875-0.015625 0.03125 0 0.054688 0.011719 0.078125 0.03125 0.019531 0.023438 0.03125 0.054688 0.03125 0.09375v0.15625h-0.09375v-0.14062-0.015625c0-0.019531-0.007813-0.03125-0.015625-0.03125 0-0.007812-0.007812-0.015625-0.015625-0.015625-0.023437 0-0.039063 0.007813-0.046875 0.015625-0.011719 0.011719-0.015625 0.03125-0.015625 0.0625v0.125h-0.078125v-0.14062c0-0.03125-0.007812-0.046875-0.015625-0.046875 0-0.007812-0.011719-0.015625-0.03125-0.015625-0.011719 0-0.023437 0.007813-0.03125 0.015625-0.011719 0.011719-0.015625 0.03125-0.015625 0.0625v0.125h-0.09375v-0.26562h0.09375v0.03125c0.007812-0.007813 0.019531-0.019531 0.03125-0.03125 0.019531-0.007813 0.035156-0.015625 0.046875-0.015625 0.019531 0 0.035156 0.007812 0.046875 0.015625 0.019531 0.011719 0.035156 0.027344 0.046875 0.046875z"/>
  </symbol>
  <symbol id="o" overflow="visible">
   <path d="m0.3125-0.15625v0.15625h-0.09375v-0.125-0.046875-0.015625c0-0.007812-0.007812-0.015625-0.015625-0.015625h-0.015625c-0.023438 0-0.039062 0.007813-0.046875 0.015625-0.011719 0.011719-0.015625 0.03125-0.015625 0.0625v0.125h-0.09375v-0.375h0.09375v0.14062c0.007812-0.007813 0.019531-0.019531 0.03125-0.03125 0.019531-0.007813 0.039062-0.015625 0.0625-0.015625 0.03125 0 0.050781 0.011719 0.0625 0.03125 0.019531 0.023438 0.03125 0.054688 0.03125 0.09375z"/>
  </symbol>
  <symbol id="n" overflow="visible">
   <path d="m0.046875-0.35938h0.09375l0.14062 0.25v-0.25h0.09375v0.35938h-0.10938l-0.14062-0.25v0.25h-0.078125z"/>
  </symbol>
  <symbol id="m" overflow="visible">
   <path d="m0.03125-0.10938v-0.15625h0.09375v0.015625 0.0625 0.046875 0.046875 0.015625c0.007812 0.011719 0.015625 0.015625 0.015625 0.015625h0.03125c0.007813 0 0.019531-0.0039062 0.03125-0.015625 0.007813-0.0078125 0.015625-0.03125 0.015625-0.0625v-0.125h0.09375v0.26562h-0.09375v-0.03125c-0.011719 0.011719-0.027344 0.023438-0.046875 0.03125h-0.046875c-0.03125 0-0.058594-0.0039062-0.078125-0.015625-0.011719-0.019531-0.015625-0.050781-0.015625-0.09375z"/>
  </symbol>
  <symbol id="l" overflow="visible">
   <path d="m0.046875-0.35938h0.15625c0.039063 0 0.070313 0.011719 0.09375 0.03125 0.03125 0.023437 0.046875 0.054687 0.046875 0.09375 0 0.03125-0.015625 0.058594-0.046875 0.078125-0.023437 0.023438-0.054687 0.03125-0.09375 0.03125h-0.0625v0.125h-0.09375zm0.09375 0.0625v0.10938h0.046875c0.019531 0 0.035156-0.003906 0.046875-0.015625 0.007813-0.007813 0.015625-0.019531 0.015625-0.03125 0-0.019531-0.007812-0.035156-0.015625-0.046875-0.011719-0.007812-0.027344-0.015625-0.046875-0.015625z"/>
  </symbol>
  <symbol id="k" overflow="visible">
   <path d="m0.26562-0.26562v0.078125c-0.023437-0.007812-0.039063-0.015625-0.046875-0.015625-0.011719-0.007813-0.023438-0.015625-0.03125-0.015625-0.023438 0-0.042969 0.011719-0.0625 0.03125-0.011719 0.011719-0.015625 0.03125-0.015625 0.0625 0 0.023438 0.003906 0.042969 0.015625 0.0625 0.019531 0.011719 0.039062 0.015625 0.0625 0.015625h0.03125c0.019531-0.0078125 0.035156-0.019531 0.046875-0.03125v0.078125h-0.046875-0.046875c-0.054687 0-0.09375-0.0078125-0.125-0.03125-0.023438-0.019531-0.03125-0.050781-0.03125-0.09375 0-0.050781 0.0078125-0.085938 0.03125-0.10938 0.03125-0.03125 0.070313-0.046875 0.125-0.046875 0.019531 0 0.035156 0.007812 0.046875 0.015625h0.046875z"/>
  </symbol>
 </defs>
 <g>
  <path d="m496.35 519.5h9.0312c2.9766 0 5.4609 2.3828 5.4609 5.4609v29.676c0 2.9766-2.4805 5.3594-5.4609 5.3594h-310.77c-2.9766 0-5.4609-2.3828-5.4609-5.3594v-29.676c0-3.0781 2.4805-5.4609 5.4609-5.4609h8.9336c1.2891-54.293 39.902-38.113 32.953-100.45-21.438-7.543-21.242-41.191 12.805-41.191 22.828-53.598 29.777-107.49 32.16-164.37h-27.098c-3.7734 0-6.8477-3.0781-6.8477-6.8477 0-19.555 12.703-36.527 30.672-42.582-28.883-40.098-26.004-97.668 6.75-134.2 16.574-18.461 39.602-29.875 65.012-29.875 52.902 0 91.711 47.742 91.711 101.14 0 22.828-6.9492 44.961-19.852 62.93 17.965 6.0547 30.672 23.027 30.672 42.582 0 3.7734-3.0781 6.8477-6.9492 6.8477h-26.996c2.3828 56.773 9.2305 110.97 32.16 164.37 34.043 0 34.242 33.746 12.805 41.191-5.1602 65.113 31.664 45.855 32.855 100.45zm-91.613-306h-109.58c-2.2812 56.773-9.0312 110.57-30.969 164.37h171.61c-22.035-53.797-28.684-107.59-31.066-164.37zm-190.37 306h271.17c-1.0938-51.613-40-31.066-33.051-99.156h-204.96c7.2461 67.492-31.961 47.445-33.152 99.156zm190.47-480.4c-30.371-33.746-79.305-33.746-109.68 0-30.172 33.547-30.969 88.141-1.2891 122.68h112.26c29.578-34.539 28.785-89.133-1.2891-122.68zm51.215 351.86h-212.11c-11.215 0-10.918 16.277 0 16.277h212.11c11.117 0 10.918-16.277 0-16.277zm-193.95-191.17h175.78c-3.1758-13.996-15.684-24.219-30.371-24.219h-115.14c-14.59 0-27.098 10.223-30.273 24.219zm-62.133 349.38h299.95v-18.859h-299.95z"/>
  <use x="189.15625" y="561.488281" xlink:href="#s"/>
  <use x="189.519531" y="561.488281" xlink:href="#d"/>
  <use x="189.765625" y="561.488281" xlink:href="#a"/>
  <use x="190.101562" y="561.488281" xlink:href="#j"/>
  <use x="190.4375" y="561.488281" xlink:href="#c"/>
  <use x="190.675781" y="561.488281" xlink:href="#a"/>
  <use x="191.011719" y="561.488281" xlink:href="#i"/>
  <use x="191.539062" y="561.488281" xlink:href="#h"/>
  <use x="191.894531" y="561.488281" xlink:href="#g"/>
  <use x="192.390625" y="561.488281" xlink:href="#e"/>
  <use x="192.558594" y="561.488281" xlink:href="#b"/>
  <use x="192.902344" y="561.488281" xlink:href="#f"/>
  <use x="193.253906" y="561.488281" xlink:href="#r"/>
  <use x="189.15625" y="561.984375" xlink:href="#q"/>
  <use x="189.371094" y="561.984375" xlink:href="#d"/>
  <use x="189.617188" y="561.984375" xlink:href="#b"/>
  <use x="189.957031" y="561.984375" xlink:href="#p"/>
  <use x="190.648438" y="561.984375" xlink:href="#c"/>
  <use x="190.886719" y="561.984375" xlink:href="#o"/>
  <use x="191.238281" y="561.984375" xlink:href="#a"/>
  <use x="191.746094" y="561.984375" xlink:href="#n"/>
  <use x="192.164062" y="561.984375" xlink:href="#b"/>
  <use x="192.503906" y="561.984375" xlink:href="#m"/>
  <use x="192.855469" y="561.984375" xlink:href="#f"/>
  <use x="193.382812" y="561.984375" xlink:href="#l"/>
  <use x="193.746094" y="561.984375" xlink:href="#d"/>
  <use x="193.992188" y="561.984375" xlink:href="#b"/>
  <use x="194.332031" y="561.984375" xlink:href="#e"/>
  <use x="194.503906" y="561.984375" xlink:href="#a"/>
  <use x="194.839844" y="561.984375" xlink:href="#k"/>
  <use x="195.132812" y="561.984375" xlink:href="#c"/>
 </g>
</svg>
