<?xml version="1.0" encoding="UTF-8"?>
<svg width="700pt" height="700pt" version="1.1" viewBox="0 0 700 700" xmlns="http://www.w3.org/2000/svg" xmlns:xlink="http://www.w3.org/1999/xlink">
 <defs>
  <symbol id="s" overflow="visible">
   <path d="m0.20312-0.015625c-0.011719 0.011719-0.027344 0.015625-0.046875 0.015625h-0.03125c-0.03125 0-0.058594-0.0078125-0.078125-0.03125-0.023438-0.019531-0.03125-0.046875-0.03125-0.078125s0.0078125-0.054687 0.03125-0.078125c0.019531-0.019531 0.046875-0.03125 0.078125-0.03125 0.007812 0 0.019531 0.007812 0.03125 0.015625h0.046875v0.046875c-0.011719-0.007812-0.023437-0.015625-0.03125-0.015625h-0.046875c-0.011719 0-0.023438 0.007813-0.03125 0.015625-0.011719 0.011719-0.015625 0.027344-0.015625 0.046875 0 0.023438 0.0039062 0.042969 0.015625 0.0625 0.007812 0.011719 0.019531 0.015625 0.03125 0.015625h0.046875c0.007813-0.0078125 0.019531-0.019531 0.03125-0.03125z"/>
  </symbol>
  <symbol id="d" overflow="visible">
   <path d="m0.14062-0.10938c0-0.007813-0.007813-0.015625-0.015625-0.015625-0.023438 0-0.039062 0.007812-0.046875 0.015625v0.03125 0.078125h-0.0625v-0.15625h0.0625v0.03125c0.0078125-0.019531 0.015625-0.03125 0.015625-0.03125 0.007812-0.007812 0.019531-0.015625 0.03125-0.015625h0.015625z"/>
  </symbol>
  <symbol id="a" overflow="visible">
   <path d="m0.1875-0.078125v0.015625h-0.125c0 0.011719 0.0039062 0.023438 0.015625 0.03125h0.03125 0.03125c0.007813-0.0078125 0.019531-0.015625 0.03125-0.015625v0.03125c-0.011719 0.011719-0.023437 0.015625-0.03125 0.015625h-0.03125c-0.03125 0-0.058594-0.0039062-0.078125-0.015625-0.011719-0.019531-0.015625-0.039062-0.015625-0.0625 0-0.03125 0.0039062-0.050781 0.015625-0.0625 0.019531-0.019531 0.039062-0.03125 0.0625-0.03125 0.03125 0 0.050781 0.011719 0.0625 0.03125 0.019531 0.011719 0.03125 0.03125 0.03125 0.0625zm-0.0625-0.015625c0-0.007812-0.007812-0.015625-0.015625-0.015625 0-0.007813-0.007813-0.015625-0.015625-0.015625 0 0-0.0078125 0.007812-0.015625 0.015625-0.011719 0-0.015625 0.007813-0.015625 0.015625z"/>
  </symbol>
  <symbol id="j" overflow="visible">
   <path d="m0.09375-0.078125c-0.011719 0-0.023438 0.0078125-0.03125 0.015625v0.015625 0.015625h0.03125 0.015625c0.007813-0.0078125 0.015625-0.019531 0.015625-0.03125v-0.015625zm0.078125-0.015625v0.09375h-0.046875v-0.015625c-0.011719 0-0.023438 0.0078125-0.03125 0.015625h-0.03125-0.03125c-0.011719-0.0078125-0.015625-0.023438-0.015625-0.046875 0-0.019531 0.0039062-0.03125 0.015625-0.03125 0.0078125-0.0078125 0.03125-0.015625 0.0625-0.015625h0.03125v-0.015625c0-0.007813-0.007812-0.015625-0.015625-0.015625h-0.03125-0.03125-0.015625v-0.03125h0.03125c0.0078125-0.007812 0.019531-0.015625 0.03125-0.015625 0.03125 0 0.050781 0.011719 0.0625 0.03125 0.007812 0.011719 0.015625 0.027344 0.015625 0.046875z"/>
  </symbol>
  <symbol id="c" overflow="visible">
   <path d="m0.078125-0.20312v0.046875h0.046875v0.03125h-0.046875v0.0625 0.03125h0.015625 0.03125v0.03125h-0.03125c-0.023438 0-0.039062-0.0039062-0.046875-0.015625-0.011719-0.0078125-0.015625-0.023438-0.015625-0.046875v-0.0625h-0.03125v-0.03125h0.03125v-0.046875z"/>
  </symbol>
  <symbol id="i" overflow="visible">
   <path d="m0.125-0.14062v-0.078125h0.0625v0.21875h-0.0625v-0.015625s-0.007812 0.0078125-0.015625 0.015625h-0.03125c-0.023438 0-0.039062-0.0039062-0.046875-0.015625-0.011719-0.019531-0.015625-0.039062-0.015625-0.0625 0-0.03125 0.0039062-0.050781 0.015625-0.0625 0.0078125-0.019531 0.023438-0.03125 0.046875-0.03125 0.0078125 0 0.019531 0.007813 0.03125 0.015625 0.007813 0 0.015625 0.007812 0.015625 0.015625zm-0.03125 0.10938c0.007812 0 0.015625-0.0039062 0.015625-0.015625 0.007813-0.0078125 0.015625-0.019531 0.015625-0.03125 0-0.0078125-0.007812-0.019531-0.015625-0.03125 0-0.007813-0.007813-0.015625-0.015625-0.015625-0.011719 0-0.023438 0.007812-0.03125 0.015625v0.03125 0.03125c0.0078125 0.011719 0.019531 0.015625 0.03125 0.015625z"/>
  </symbol>
  <symbol id="h" overflow="visible">
   <path d="m0.10938-0.03125c0.007813 0 0.015625-0.0039062 0.015625-0.015625 0.007812-0.0078125 0.015625-0.019531 0.015625-0.03125 0-0.0078125-0.007813-0.019531-0.015625-0.03125 0-0.007813-0.007812-0.015625-0.015625-0.015625-0.011719 0-0.023438 0.007812-0.03125 0.015625v0.03125 0.03125c0.0078125 0.011719 0.019531 0.015625 0.03125 0.015625zm-0.03125-0.10938c0.0078125-0.007813 0.015625-0.015625 0.015625-0.015625 0.007812-0.007812 0.019531-0.015625 0.03125-0.015625 0.019531 0 0.035156 0.011719 0.046875 0.03125 0.019531 0.011719 0.03125 0.03125 0.03125 0.0625 0 0.023438-0.011719 0.042969-0.03125 0.0625-0.011719 0.011719-0.027344 0.015625-0.046875 0.015625h-0.03125c0-0.0078125-0.0078125-0.015625-0.015625-0.015625v0.015625h-0.0625v-0.21875h0.0625z"/>
  </symbol>
  <symbol id="g" overflow="visible">
   <path d="m0-0.15625h0.0625l0.03125 0.10938 0.03125-0.10938h0.0625l-0.0625 0.17188c-0.011719 0.019531-0.023438 0.03125-0.03125 0.03125-0.011719 0.0078125-0.023438 0.015625-0.03125 0.015625h-0.03125v-0.03125h0.015625c0.0078125 0 0.015625-0.0078125 0.015625-0.015625h0.015625v-0.015625z"/>
  </symbol>
  <symbol id="e" overflow="visible">
   <path d="m0.015625-0.15625h0.0625v0.15625c0 0.019531-0.0078125 0.035156-0.015625 0.046875-0.011719 0.0078125-0.027344 0.015625-0.046875 0.015625h-0.03125v-0.03125h0.015625c0.0078125 0 0.015625-0.0078125 0.015625-0.015625v-0.015625zm0-0.0625h0.0625v0.03125h-0.0625z"/>
  </symbol>
  <symbol id="b" overflow="visible">
   <path d="m0.09375-0.125c-0.011719 0-0.023438 0.007812-0.03125 0.015625v0.03125 0.03125c0.0078125 0.011719 0.019531 0.015625 0.03125 0.015625 0.019531 0 0.03125-0.0039062 0.03125-0.015625 0.007812-0.0078125 0.015625-0.019531 0.015625-0.03125 0-0.019531-0.007813-0.03125-0.015625-0.03125 0-0.007813-0.011719-0.015625-0.03125-0.015625zm0-0.046875c0.03125 0 0.050781 0.011719 0.0625 0.03125 0.019531 0.011719 0.03125 0.03125 0.03125 0.0625 0 0.023438-0.011719 0.042969-0.03125 0.0625-0.011719 0.011719-0.03125 0.015625-0.0625 0.015625-0.023438 0-0.042969-0.0039062-0.0625-0.015625-0.011719-0.019531-0.015625-0.039062-0.015625-0.0625 0-0.03125 0.0039062-0.050781 0.015625-0.0625 0.019531-0.019531 0.039062-0.03125 0.0625-0.03125z"/>
  </symbol>
  <symbol id="f" overflow="visible">
   <path d="m0.1875-0.09375v0.09375h-0.0625v-0.078125-0.015625-0.015625-0.015625h-0.015625c-0.011719 0-0.023438 0.007812-0.03125 0.015625v0.03125 0.078125h-0.0625v-0.15625h0.0625v0.015625c0.0078125-0.007813 0.015625-0.015625 0.015625-0.015625 0.007812-0.007812 0.019531-0.015625 0.03125-0.015625 0.019531 0 0.035156 0.011719 0.046875 0.03125 0.007813 0.011719 0.015625 0.027344 0.015625 0.046875z"/>
  </symbol>
  <symbol id="r" overflow="visible">
   <path d="m0.015625-0.15625h0.0625v0.15625h-0.0625zm0-0.0625h0.0625v0.03125h-0.0625z"/>
  </symbol>
  <symbol id="q" overflow="visible">
   <path d="m0.125-0.21875v0.03125h-0.03125-0.015625v0.015625 0.015625h0.046875v0.03125h-0.046875v0.125h-0.046875v-0.125h-0.03125v-0.03125h0.03125v-0.015625c0-0.019531 0.0039062-0.03125 0.015625-0.03125 0.0078125-0.007813 0.023438-0.015625 0.046875-0.015625z"/>
  </symbol>
  <symbol id="p" overflow="visible">
   <path d="m0.17188-0.125c0.007813-0.007812 0.015625-0.019531 0.015625-0.03125 0.007812-0.007812 0.019531-0.015625 0.03125-0.015625 0.019531 0 0.035156 0.011719 0.046875 0.03125 0.007813 0.011719 0.015625 0.027344 0.015625 0.046875v0.09375h-0.046875v-0.078125-0.015625c0-0.007812-0.007813-0.015625-0.015625-0.015625 0-0.007813-0.007812-0.015625-0.015625-0.015625 0 0-0.007813 0.007812-0.015625 0.015625-0.011719 0.011719-0.015625 0.023438-0.015625 0.03125v0.078125h-0.046875v-0.078125-0.03125c0-0.007813-0.007812-0.015625-0.015625-0.015625-0.011719 0-0.023438 0.007812-0.03125 0.015625v0.03125 0.078125h-0.0625v-0.15625h0.0625v0.015625c0.0078125-0.007813 0.015625-0.015625 0.015625-0.015625 0.007812-0.007812 0.019531-0.015625 0.03125-0.015625 0.007812 0 0.019531 0.007813 0.03125 0.015625 0.007812 0.011719 0.015625 0.023438 0.015625 0.03125z"/>
  </symbol>
  <symbol id="o" overflow="visible">
   <path d="m0.1875-0.09375v0.09375h-0.0625v-0.078125-0.015625-0.015625-0.015625h-0.015625c-0.011719 0-0.023438 0.007812-0.03125 0.015625v0.03125 0.078125h-0.0625v-0.21875h0.0625v0.078125c0.0078125-0.007813 0.015625-0.015625 0.015625-0.015625 0.007812-0.007812 0.019531-0.015625 0.03125-0.015625 0.019531 0 0.035156 0.011719 0.046875 0.03125 0.007813 0.011719 0.015625 0.027344 0.015625 0.046875z"/>
  </symbol>
  <symbol id="n" overflow="visible">
   <path d="m0.03125-0.21875h0.0625l0.078125 0.15625v-0.15625h0.046875v0.21875h-0.0625l-0.078125-0.14062v0.14062h-0.046875z"/>
  </symbol>
  <symbol id="m" overflow="visible">
   <path d="m0.015625-0.0625v-0.09375h0.0625v0.015625 0.03125 0.015625 0.046875 0.015625h0.015625c0.007812 0 0.015625-0.0039062 0.015625-0.015625 0.007813-0.0078125 0.015625-0.019531 0.015625-0.03125v-0.078125h0.0625v0.15625h-0.0625v-0.015625s-0.007812 0.0078125-0.015625 0.015625h-0.03125c-0.023438 0-0.039062-0.0039062-0.046875-0.015625-0.011719-0.0078125-0.015625-0.023438-0.015625-0.046875z"/>
  </symbol>
  <symbol id="l" overflow="visible">
   <path d="m0.03125-0.21875h0.09375c0.019531 0 0.035156 0.011719 0.046875 0.03125 0.019531 0.011719 0.03125 0.027344 0.03125 0.046875 0 0.023437-0.011719 0.039063-0.03125 0.046875-0.011719 0.011719-0.027344 0.015625-0.046875 0.015625h-0.046875v0.078125h-0.046875zm0.046875 0.046875v0.0625h0.03125 0.015625c0.007812-0.007813 0.015625-0.019531 0.015625-0.03125 0-0.007813-0.007813-0.015625-0.015625-0.015625 0-0.007812-0.007812-0.015625-0.015625-0.015625z"/>
  </symbol>
  <symbol id="k" overflow="visible">
   <path d="m0.15625-0.15625v0.046875c-0.011719-0.007813-0.023438-0.015625-0.03125-0.015625h-0.015625c-0.011719 0-0.023438 0.007812-0.03125 0.015625-0.011719 0.011719-0.015625 0.023438-0.015625 0.03125 0 0.011719 0.0039062 0.023438 0.015625 0.03125 0.0078125 0.011719 0.019531 0.015625 0.03125 0.015625h0.015625c0.007812-0.0078125 0.019531-0.015625 0.03125-0.015625v0.046875h-0.03125-0.015625c-0.03125 0-0.058594-0.0039062-0.078125-0.015625-0.011719-0.019531-0.015625-0.039062-0.015625-0.0625 0-0.03125 0.0039062-0.050781 0.015625-0.0625 0.019531-0.019531 0.046875-0.03125 0.078125-0.03125 0.007813 0 0.015625 0.007813 0.015625 0.015625h0.03125z"/>
  </symbol>
 </defs>
 <g>
  <path d="m287.27 425.16h125.47c-18.961-52.379-17.848-103.88-21.477-156.84h-82.457c-3.6289 52.961-2.6328 104.46-21.535 156.84zm134.13 0h20.309c2.2812 0 4.0977 1.8125 4.0977 4.0391v22.238c0 5.3242-7.2578 4.0391-10.945 4.0391-4.5078 48.34 23.703 30.316 24.695 74.207h6.7305c2.2227 0 4.0391 1.8125 4.0391 4.0391v22.238c0 2.2227-1.8125 4.0391-4.0391 4.0391h-232.57c-2.2227 0-4.0391-1.8125-4.0391-4.0391v-22.238c0-2.2227 1.8125-4.0391 4.0391-4.0391h6.7305c1.0547-43.891 29.496-26.277 24.754-74.207-3.6875 0-11.004 1.2891-11.004-4.0391v-22.238c0-2.2227 1.8125-4.0391 4.0977-4.0391h20.367c19.371-51.852 18.434-104.05 22.004-156.84h-5.9102c-15.332 0-20.66-20.832-7.1992-28.441-6.2617-8.8945-1.3477-21.359 9.0703-23.586-3.9805-7.3164-1.1719-15.801 4.8555-19.957-1.1133-44.887-21.359-56.941-20.367-66.539 0.9375-12.406 4.9141-27.621 19.898-28.383 7.7266-0.35156 16.445 0 24.227 0v-12.934c0-2.2227 1.8125-4.0391 4.0977-4.0391h5.4414c1.9883-8.9531 3.3359-17.906 3.9219-26.863-10.066 0.70312-20.074 2.2812-29.965 4.6836-2.5742 0.58594-4.9727-1.3477-4.9727-3.9219l-0.058594-24.109c0-2.5742 2.457-4.6836 5.3242-3.8633 9.7148 2.3984 19.664 3.9219 29.672 4.625-0.64453-10.066-2.2227-20.133-4.6836-29.965-0.64453-2.5742 1.3477-5.0312 3.9219-5.0312h24.109c2.5742 0 4.6836 2.3984 3.8633 5.3242-2.3984 9.7148-3.9219 19.664-4.625 29.672 10.008-0.70312 20.016-2.2227 29.965-4.6836 2.5742-0.64453 5.0312 1.2891 5.0312 3.9219v24.109c0 2.5742-2.3984 4.6836-5.3242 3.8047-9.7734-2.3398-19.664-3.8633-29.672-4.5664 0.64453 9.0117 1.9883 18.023 3.9805 26.863h5.4414c2.2227 0 4.0391 1.8125 4.0391 4.0391v12.934c3.1602 0 23.527-0.17578 24.93 0.11719 16.211 2.2812 18.082 15.098 19.254 28.793 0 9.7148-19.312 21.945-20.426 66.012 6.0859 4.1562 8.8359 12.641 4.9141 19.957 10.359 2.2227 15.273 14.688 9.0117 23.586 8.6602 4.9141 10.418 16.855 3.3359 23.996-4.9727 5.0898-10.008 4.4492-16.328 4.4492 3.5117 52.789 2.457 104.99 21.945 156.84zm-121.67-187.16h100.54c9.0703 0 8.8359-13.812 0-13.812h-100.54c-9.0703 0-8.8359 13.812 0 13.812zm-37.395 209.34h175.33v-14.047h-175.33zm164.39 8.1328h-153.39c5.5 51.031-23.879 33.184-24.754 74.207h202.9c-0.87891-41.023-30.023-22.766-24.754-74.207zm-188.91 96.387h224.38v-14.047h-224.38zm63.379-442.31c0-3.7461-10.887 5.7344-11.996 20.832 0.29297 5.793 19.605 29.906 20.426 63.496h80.762c0.87891-35.992 19.605-54.543 20.426-63.496-0.99609-9.6562-2.0469-19.371-12.23-20.832zm32.188-16.973v8.8359h33.242v-8.8359h-33.242zm23.586-84.449h-13.871c2.2227 10.301 3.5117 20.426 3.9805 30.957 0.11719 2.3984-1.8711 4.332-4.2148 4.2148-10.477-0.41016-20.777-1.7539-31.016-3.9805v13.93c10.359-2.2227 20.426-3.5117 31.016-3.9805 2.3398-0.11719 4.2734 1.8711 4.2148 4.2148-0.41016 10.301-1.7539 20.66-3.9805 30.957h13.871c-2.2812-10.359-3.5117-20.367-3.9805-30.957-0.11719-2.3398 1.8125-4.332 4.2148-4.2148 10.418 0.41016 20.719 1.7539 30.957 3.9805v-13.93c-10.301 2.2227-20.602 3.5703-30.957 3.9805-2.3984 0.11719-4.332-1.8125-4.2148-4.2148 0.41016-10.418 1.7539-20.719 3.9805-30.957zm33.359 194h-80.586c-9.0703 0-8.8359 13.812 0 13.812h80.586c9.0117 0 8.8359-13.812 0-13.812zm14.922 44.125h-110.49c-9.0117 0-8.8359 13.812 0 13.812h110.49c9.0703 0 8.8359-13.812 0-13.812z"/>
  <use x="229.679688" y="560.878906" xlink:href="#s"/>
  <use x="229.894531" y="560.878906" xlink:href="#d"/>
  <use x="230.039062" y="560.878906" xlink:href="#a"/>
  <use x="230.234375" y="560.878906" xlink:href="#j"/>
  <use x="230.433594" y="560.878906" xlink:href="#c"/>
  <use x="230.574219" y="560.878906" xlink:href="#a"/>
  <use x="230.769531" y="560.878906" xlink:href="#i"/>
  <use x="231.082031" y="560.878906" xlink:href="#h"/>
  <use x="231.292969" y="560.878906" xlink:href="#g"/>
  <use x="231.585937" y="560.878906" xlink:href="#e"/>
  <use x="231.683594" y="560.878906" xlink:href="#b"/>
  <use x="231.886719" y="560.878906" xlink:href="#f"/>
  <use x="232.09375" y="560.878906" xlink:href="#r"/>
  <use x="229.679688" y="561.171875" xlink:href="#q"/>
  <use x="229.804687" y="561.171875" xlink:href="#d"/>
  <use x="229.949219" y="561.171875" xlink:href="#b"/>
  <use x="230.152344" y="561.171875" xlink:href="#p"/>
  <use x="230.558594" y="561.171875" xlink:href="#c"/>
  <use x="230.699219" y="561.171875" xlink:href="#o"/>
  <use x="230.90625" y="561.171875" xlink:href="#a"/>
  <use x="231.207031" y="561.171875" xlink:href="#n"/>
  <use x="231.449219" y="561.171875" xlink:href="#b"/>
  <use x="231.652344" y="561.171875" xlink:href="#m"/>
  <use x="231.859375" y="561.171875" xlink:href="#f"/>
  <use x="232.171875" y="561.171875" xlink:href="#l"/>
  <use x="232.386719" y="561.171875" xlink:href="#d"/>
  <use x="232.527344" y="561.171875" xlink:href="#b"/>
  <use x="232.730469" y="561.171875" xlink:href="#e"/>
  <use x="232.832031" y="561.171875" xlink:href="#a"/>
  <use x="233.027344" y="561.171875" xlink:href="#k"/>
  <use x="233.203125" y="561.171875" xlink:href="#c"/>
 </g>
</svg>
