<?xml version="1.0" encoding="UTF-8"?>
<svg width="700pt" height="700pt" version="1.1" viewBox="0 0 700 700" xmlns="http://www.w3.org/2000/svg" xmlns:xlink="http://www.w3.org/1999/xlink">
 <defs>
  <symbol id="s" overflow="visible">
   <path d="m0.20312-0.015625c-0.011719 0.011719-0.023437 0.015625-0.03125 0.015625h-0.03125c-0.042969 0-0.074219-0.0078125-0.09375-0.03125-0.023438-0.019531-0.03125-0.046875-0.03125-0.078125 0-0.039063 0.0078125-0.070313 0.03125-0.09375 0.019531-0.019531 0.050781-0.03125 0.09375-0.03125 0.007813 0 0.019531 0.007813 0.03125 0.015625h0.03125v0.046875c-0.011719-0.007813-0.023437-0.015625-0.03125-0.015625h-0.03125c-0.023437 0-0.039063 0.007812-0.046875 0.015625-0.011719 0.011719-0.015625 0.03125-0.015625 0.0625 0 0.023438 0.0039062 0.042969 0.015625 0.0625 0.007812 0.011719 0.023438 0.015625 0.046875 0.015625h0.03125c0.007813-0.0078125 0.019531-0.019531 0.03125-0.03125z"/>
  </symbol>
  <symbol id="d" overflow="visible">
   <path d="m0.15625-0.125h-0.03125c-0.011719 0-0.023438 0.007812-0.03125 0.015625-0.011719 0-0.015625 0.011719-0.015625 0.03125v0.078125h-0.046875v-0.17188h0.046875v0.03125c0.0078125-0.007813 0.015625-0.015625 0.015625-0.015625 0.007812-0.007812 0.023438-0.015625 0.046875-0.015625h0.015625z"/>
  </symbol>
  <symbol id="a" overflow="visible">
   <path d="m0.1875-0.09375v0.03125h-0.125c0.0078125 0.011719 0.015625 0.023438 0.015625 0.03125h0.03125 0.03125c0.019531-0.0078125 0.035156-0.015625 0.046875-0.015625v0.03125c-0.011719 0.011719-0.027344 0.015625-0.046875 0.015625h-0.03125c-0.03125 0-0.058594-0.0039062-0.078125-0.015625-0.011719-0.019531-0.015625-0.039062-0.015625-0.0625 0-0.03125 0.0039062-0.050781 0.015625-0.0625 0.019531-0.019531 0.046875-0.03125 0.078125-0.03125 0.019531 0 0.035156 0.011719 0.046875 0.03125 0.019531 0.011719 0.03125 0.027344 0.03125 0.046875zm-0.046875-0.015625c0-0.007813-0.007813-0.015625-0.015625-0.015625 0-0.007812-0.007812-0.015625-0.015625-0.015625-0.011719 0-0.023438 0.007813-0.03125 0.015625 0 0-0.0078125 0.007812-0.015625 0.015625z"/>
  </symbol>
  <symbol id="j" overflow="visible">
   <path d="m0.10938-0.078125c-0.011719 0-0.023438 0.0078125-0.03125 0.015625-0.011719 0-0.015625 0.0078125-0.015625 0.015625v0.015625h0.03125 0.015625c0.007813-0.0078125 0.015625-0.019531 0.015625-0.03125v-0.015625zm0.078125-0.015625v0.09375h-0.0625v-0.03125c0 0.011719-0.007812 0.023438-0.015625 0.03125h-0.03125c-0.023438 0-0.039062-0.0039062-0.046875-0.015625-0.011719-0.0078125-0.015625-0.019531-0.015625-0.03125 0-0.019531 0.0039062-0.035156 0.015625-0.046875 0.0078125-0.007812 0.03125-0.015625 0.0625-0.015625h0.03125c0-0.007813-0.007812-0.015625-0.015625-0.015625 0-0.007812-0.007813-0.015625-0.015625-0.015625-0.011719 0-0.027344 0.007813-0.046875 0.015625h-0.015625v-0.046875h0.03125 0.03125c0.03125 0 0.050781 0.007813 0.0625 0.015625 0.019531 0.011719 0.03125 0.03125 0.03125 0.0625z"/>
  </symbol>
  <symbol id="c" overflow="visible">
   <path d="m0.09375-0.21875v0.046875h0.046875v0.046875h-0.046875v0.0625 0.03125h0.015625 0.03125v0.03125h-0.046875c-0.023438 0-0.039062-0.0039062-0.046875-0.015625-0.011719-0.0078125-0.015625-0.023438-0.015625-0.046875v-0.0625h-0.03125v-0.046875h0.03125v-0.046875z"/>
  </symbol>
  <symbol id="i" overflow="visible">
   <path d="m0.14062-0.14062v-0.09375h0.046875v0.23438h-0.046875v-0.03125c-0.011719 0.011719-0.023437 0.023438-0.03125 0.03125h-0.015625c-0.03125 0-0.054688-0.0039062-0.0625-0.015625-0.011719-0.019531-0.015625-0.039062-0.015625-0.0625 0-0.03125 0.0039062-0.050781 0.015625-0.0625 0.0078125-0.019531 0.03125-0.03125 0.0625-0.03125 0.007812 0 0.015625 0.007813 0.015625 0.015625 0.007813 0 0.019531 0.007812 0.03125 0.015625zm-0.03125 0.10938c0.007813 0 0.015625-0.0039062 0.015625-0.015625 0.007812-0.0078125 0.015625-0.019531 0.015625-0.03125 0-0.019531-0.007813-0.035156-0.015625-0.046875 0-0.007812-0.007812-0.015625-0.015625-0.015625-0.011719 0-0.023438 0.007813-0.03125 0.015625-0.011719 0.011719-0.015625 0.027344-0.015625 0.046875 0 0.011719 0.0039062 0.023438 0.015625 0.03125 0.0078125 0.011719 0.019531 0.015625 0.03125 0.015625z"/>
  </symbol>
  <symbol id="h" overflow="visible">
   <path d="m0.10938-0.03125c0.019531 0 0.03125-0.0039062 0.03125-0.015625 0.007813-0.0078125 0.015625-0.019531 0.015625-0.03125 0-0.019531-0.007812-0.035156-0.015625-0.046875 0-0.007812-0.011719-0.015625-0.03125-0.015625-0.011719 0-0.023438 0.007813-0.03125 0.015625v0.046875 0.03125c0.0078125 0.011719 0.019531 0.015625 0.03125 0.015625zm-0.03125-0.10938c0.0078125-0.007813 0.019531-0.015625 0.03125-0.015625 0.007813-0.007812 0.019531-0.015625 0.03125-0.015625 0.019531 0 0.035156 0.011719 0.046875 0.03125 0.007812 0.011719 0.015625 0.03125 0.015625 0.0625 0 0.023438-0.007813 0.042969-0.015625 0.0625-0.011719 0.011719-0.027344 0.015625-0.046875 0.015625h-0.03125c-0.011719-0.0078125-0.023438-0.019531-0.03125-0.03125v0.03125h-0.046875v-0.23438h0.046875z"/>
  </symbol>
  <symbol id="g" overflow="visible">
   <path d="m0-0.17188h0.0625l0.046875 0.125 0.03125-0.125h0.0625l-0.078125 0.1875c-0.011719 0.019531-0.023438 0.03125-0.03125 0.03125 0 0.0078125-0.011719 0.015625-0.03125 0.015625h-0.03125v-0.03125h0.015625 0.015625c0.0078125 0 0.015625-0.0078125 0.015625-0.015625v-0.015625z"/>
  </symbol>
  <symbol id="e" overflow="visible">
   <path d="m0.03125-0.17188h0.046875v0.17188c0 0.019531-0.0078125 0.035156-0.015625 0.046875-0.011719 0.0078125-0.027344 0.015625-0.046875 0.015625h-0.03125v-0.03125h0.015625c0.0078125 0 0.015625-0.0078125 0.015625-0.015625 0.0078125 0 0.015625-0.0078125 0.015625-0.015625zm0-0.0625h0.046875v0.046875h-0.046875z"/>
  </symbol>
  <symbol id="b" overflow="visible">
   <path d="m0.10938-0.14062c-0.011719 0-0.023438 0.007813-0.03125 0.015625-0.011719 0.011719-0.015625 0.027344-0.015625 0.046875 0 0.011719 0.0039062 0.023438 0.015625 0.03125 0.0078125 0.011719 0.019531 0.015625 0.03125 0.015625 0.007813 0 0.015625-0.0039062 0.015625-0.015625 0.007812-0.0078125 0.015625-0.019531 0.015625-0.03125 0-0.019531-0.007813-0.035156-0.015625-0.046875 0-0.007812-0.007812-0.015625-0.015625-0.015625zm0-0.03125c0.03125 0 0.050781 0.011719 0.0625 0.03125 0.019531 0.011719 0.03125 0.03125 0.03125 0.0625 0 0.023438-0.011719 0.042969-0.03125 0.0625-0.011719 0.011719-0.03125 0.015625-0.0625 0.015625s-0.058594-0.0039062-0.078125-0.015625c-0.011719-0.019531-0.015625-0.039062-0.015625-0.0625 0-0.03125 0.0039062-0.050781 0.015625-0.0625 0.019531-0.019531 0.046875-0.03125 0.078125-0.03125z"/>
  </symbol>
  <symbol id="f" overflow="visible">
   <path d="m0.20312-0.10938v0.10938h-0.0625v-0.078125-0.03125-0.015625h-0.015625-0.015625s-0.007813 0.007812-0.015625 0.015625c-0.011719 0-0.015625 0.011719-0.015625 0.03125v0.078125h-0.046875v-0.17188h0.046875v0.03125c0.0078125-0.007813 0.019531-0.015625 0.03125-0.015625 0.007813-0.007812 0.019531-0.015625 0.03125-0.015625 0.019531 0 0.035156 0.007813 0.046875 0.015625 0.007812 0.011719 0.015625 0.027344 0.015625 0.046875z"/>
  </symbol>
  <symbol id="r" overflow="visible">
   <path d="m0.03125-0.17188h0.046875v0.17188h-0.046875zm0-0.0625h0.046875v0.046875h-0.046875z"/>
  </symbol>
  <symbol id="q" overflow="visible">
   <path d="m0.14062-0.23438v0.03125h-0.03125c-0.011719 0-0.015625 0.007813-0.015625 0.015625v0.015625h0.046875v0.046875h-0.046875v0.125h-0.0625v-0.125h-0.03125v-0.046875h0.03125v-0.015625c0-0.007812 0.0039062-0.019531 0.015625-0.03125 0.0078125-0.007812 0.023438-0.015625 0.046875-0.015625z"/>
  </symbol>
  <symbol id="p" overflow="visible">
   <path d="m0.1875-0.14062c0-0.007813 0.003906-0.015625 0.015625-0.015625 0.007813-0.007812 0.019531-0.015625 0.03125-0.015625 0.019531 0 0.035156 0.007813 0.046875 0.015625 0.007812 0.011719 0.015625 0.027344 0.015625 0.046875v0.10938h-0.046875v-0.09375c0-0.007812-0.007812-0.015625-0.015625-0.015625 0-0.007813-0.007813-0.015625-0.015625-0.015625-0.011719 0-0.023438 0.007812-0.03125 0.015625v0.03125 0.078125h-0.046875v-0.09375c0-0.007812-0.007813-0.015625-0.015625-0.015625 0-0.007813-0.007812-0.015625-0.015625-0.015625-0.011719 0-0.023438 0.007812-0.03125 0.015625v0.03125 0.078125h-0.046875v-0.17188h0.046875v0.03125c0.0078125-0.007813 0.015625-0.015625 0.015625-0.015625 0.007812-0.007812 0.019531-0.015625 0.03125-0.015625 0.019531 0 0.03125 0.007813 0.03125 0.015625 0.007812 0 0.019531 0.007812 0.03125 0.015625z"/>
  </symbol>
  <symbol id="o" overflow="visible">
   <path d="m0.20312-0.10938v0.10938h-0.0625v-0.078125-0.03125-0.015625h-0.015625-0.015625s-0.007813 0.007812-0.015625 0.015625c-0.011719 0-0.015625 0.011719-0.015625 0.03125v0.078125h-0.046875v-0.23438h0.046875v0.09375c0.0078125-0.007813 0.019531-0.015625 0.03125-0.015625 0.007813-0.007812 0.019531-0.015625 0.03125-0.015625 0.019531 0 0.035156 0.007813 0.046875 0.015625 0.007812 0.011719 0.015625 0.027344 0.015625 0.046875z"/>
  </symbol>
  <symbol id="n" overflow="visible">
   <path d="m0.03125-0.23438h0.0625l0.078125 0.15625v-0.15625h0.0625v0.23438h-0.0625l-0.09375-0.15625v0.15625h-0.046875z"/>
  </symbol>
  <symbol id="m" overflow="visible">
   <path d="m0.03125-0.0625v-0.10938h0.046875v0.015625 0.046875 0.015625 0.046875c0.0078125 0 0.015625 0.0078125 0.015625 0.015625h0.015625c0.007813 0 0.015625-0.0039062 0.015625-0.015625 0.007812-0.0078125 0.015625-0.023438 0.015625-0.046875v-0.078125h0.046875v0.17188h-0.046875v-0.03125c-0.011719 0.011719-0.023437 0.023438-0.03125 0.03125h-0.03125c-0.023438 0-0.039062-0.0039062-0.046875-0.015625v-0.046875z"/>
  </symbol>
  <symbol id="l" overflow="visible">
   <path d="m0.03125-0.23438h0.09375c0.03125 0 0.050781 0.011719 0.0625 0.03125 0.019531 0.011719 0.03125 0.027344 0.03125 0.046875 0 0.03125-0.011719 0.054688-0.03125 0.0625-0.011719 0.011719-0.03125 0.015625-0.0625 0.015625h-0.03125v0.078125h-0.0625zm0.0625 0.046875v0.0625h0.03125 0.015625c0.007813-0.007812 0.015625-0.019531 0.015625-0.03125 0-0.007812-0.007812-0.015625-0.015625-0.015625 0-0.007813-0.007813-0.015625-0.015625-0.015625z"/>
  </symbol>
  <symbol id="k" overflow="visible">
   <path d="m0.17188-0.17188v0.046875h-0.03125c-0.011719-0.007812-0.023437-0.015625-0.03125-0.015625-0.011719 0-0.023438 0.007813-0.03125 0.015625-0.011719 0.011719-0.015625 0.027344-0.015625 0.046875 0 0.011719 0.0039062 0.023438 0.015625 0.03125 0.0078125 0.011719 0.019531 0.015625 0.03125 0.015625h0.03125c0.007813-0.0078125 0.019531-0.015625 0.03125-0.015625v0.046875h-0.03125-0.03125c-0.03125 0-0.058594-0.0039062-0.078125-0.015625-0.011719-0.019531-0.015625-0.039062-0.015625-0.0625 0-0.03125 0.0039062-0.050781 0.015625-0.0625 0.019531-0.019531 0.046875-0.03125 0.078125-0.03125h0.03125 0.03125z"/>
  </symbol>
 </defs>
 <g>
  <path d="m426.21 416.08h21.676c2.4375 0 4.3711 1.9375 4.3711 4.3711v23.676c0 2.375-1.9375 4.3711-4.3711 4.3711h-7.3086c-4.8711 51.848 25.297 33.23 26.359 79.145h7.1836c2.375 0 4.3086 1.9375 4.3086 4.3711v23.676c0 2.375-1.9375 4.3086-4.3086 4.3086h-248.24c-2.375 0-4.3086-1.9375-4.3086-4.3086v-23.676c0-2.4375 1.9375-4.3711 4.3086-4.3711h7.1836c1.125-45.973 31.484-27.734 26.422-79.145h-7.3711c-2.4375 0-4.3711-2-4.3711-4.3711v-23.676c0-2.4375 1.9375-4.3711 4.3711-4.3711h21.738c20.676-55.344 19.613-110.81 23.426-167.09h-10.555c-16.742 0-22.051-23.113-7.1211-30.797-7.1836-10.68 0.375-25.359 13.242-25.359-5.0586-9.9961 1.25-22.113 12.18-23.488-0.8125-24.797-9.6836-48.535-22.801-70.586-1.3125-2.25-0.75-5.8711 2-6.8086 3.6836-1.5 7.4336-2.8125 11.18-4.0586-1.1875-3.25-1.8125-6.6211-1.8125-10.121 0-21.301 21.426-34.293 40.039-38.23-14.555-14.555-4.1836-39.539 16.367-39.539 20.551 0 30.922 24.984 16.367 39.539 18.613 3.9336 40.039 16.93 40.039 38.23 0 3.5-0.625 6.8711-1.8125 10.121 3.8086 1.25 7.6211 2.625 11.43 4.1836 2.75 1.0625 2.875 5.1836 1.75 6.6836-13.117 21.988-21.988 45.785-22.801 70.586 10.93 1.375 17.305 13.492 12.242 23.488 12.805 0 20.363 14.68 13.18 25.359 15.18 7.8086 9.3711 30.797-7.1211 30.797h-10.555c3.8086 56.344 2.6875 111.75 23.488 167.09zm-143.17 0h133.93c-20.238-55.844-19.051-110.56-22.926-167.09h-88.074c-3.8711 56.531-2.75 111.19-22.926 167.09zm75.957-401.96c-7.9961-7.9961-21.738-2.3125-21.738 9.0586 0 11.305 13.742 16.992 21.738 8.9961 4.9961-4.9961 4.9961-13.055 0-18.051zm-72.273 211.2c-9.6836 0-9.4336 14.805 0 14.805h126.55c9.6836 0 9.4961-14.805 0-14.805h-126.55zm6.0586-23.613c-9.6836 0-9.4336 14.805 0 14.805h114.5c9.6211 0 9.4336-14.805 0-14.805zm100.26-23.613h-86.016c-9.6836 0-9.4336 14.742 0 14.742h86.016c9.6211 0 9.4336-14.742 0-14.742zm-21.426-89.137c-1.4375-0.1875-2.8125-0.3125-4.2461-0.5-5.4336 14.742-29.297 14.742-34.73 0-1.375 0.1875-2.8125 0.375-4.2461 0.5-4.5586 11.18-20.676 13.242-29.172 6.6211l-8.5586 2.9375c12.367 22.176 20.551 45.848 21.238 70.711h76.207c0.75-24.859 8.8711-48.535 21.301-70.711-2.875-1.0625-5.6836-2-8.5586-2.9375-9.4336 7.3086-26.922 4.9336-29.234-6.6211zm-21.613-42.477c-17.738 0-47.723 9.3086-47.723 31.297 0 4.3086 1.375 8.4961 3.8711 12.242 6.8086 2.4375 15.43-0.6875 16.43-5.9961 0.3125-1.8125 1.5-3.125 2.9375-3.375 3.125-0.375 6.3086-0.75 9.4336-1.125 1.875-0.125 3.5586 1.625 3.6836 3.9961 4.4961 14.43 22.301 7.3086 22.738 0 0.1875-2.375 1.8125-4.1836 3.8086-3.9961 3.125 0.3125 6.2461 0.6875 9.3086 1.125 1.5625 0.25 2.75 1.75 3 3.5586 1.125 6.0586 11.055 7.6836 16.367 5.8086 2.5-3.7461 3.8711-7.9336 3.8711-12.242 0-21.988-29.984-31.297-47.723-31.297zm-119.75 489.85v15.055h239.49v-15.055zm201.64-87.824h-163.72c5.8086 53.844-25.547 37.855-26.422 79.145h216.57c-0.875-41.227-31.98-24.797-26.422-79.145zm-175.46-23.738v15.055h187.14v-15.055h-187.14z"/>
  <use x="221.570313" y="560.9375" xlink:href="#s"/>
  <use x="221.800781" y="560.9375" xlink:href="#d"/>
  <use x="221.953125" y="560.9375" xlink:href="#a"/>
  <use x="222.167969" y="560.9375" xlink:href="#j"/>
  <use x="222.378906" y="560.9375" xlink:href="#c"/>
  <use x="222.527344" y="560.9375" xlink:href="#a"/>
  <use x="222.738281" y="560.9375" xlink:href="#i"/>
  <use x="223.070313" y="560.9375" xlink:href="#h"/>
  <use x="223.292969" y="560.9375" xlink:href="#g"/>
  <use x="223.605469" y="560.9375" xlink:href="#e"/>
  <use x="223.714844" y="560.9375" xlink:href="#b"/>
  <use x="223.929688" y="560.9375" xlink:href="#f"/>
  <use x="224.152344" y="560.9375" xlink:href="#r"/>
  <use x="221.570313" y="561.25" xlink:href="#q"/>
  <use x="221.707031" y="561.25" xlink:href="#d"/>
  <use x="221.863281" y="561.25" xlink:href="#b"/>
  <use x="222.074219" y="561.25" xlink:href="#p"/>
  <use x="222.511719" y="561.25" xlink:href="#c"/>
  <use x="222.660156" y="561.25" xlink:href="#o"/>
  <use x="222.882813" y="561.25" xlink:href="#a"/>
  <use x="223.203125" y="561.25" xlink:href="#n"/>
  <use x="223.464844" y="561.25" xlink:href="#b"/>
  <use x="223.679688" y="561.25" xlink:href="#m"/>
  <use x="223.902344" y="561.25" xlink:href="#f"/>
  <use x="224.230469" y="561.25" xlink:href="#l"/>
  <use x="224.460938" y="561.25" xlink:href="#d"/>
  <use x="224.613281" y="561.25" xlink:href="#b"/>
  <use x="224.828125" y="561.25" xlink:href="#e"/>
  <use x="224.9375" y="561.25" xlink:href="#a"/>
  <use x="225.148438" y="561.25" xlink:href="#k"/>
  <use x="225.332031" y="561.25" xlink:href="#c"/>
 </g>
</svg>
