<?xml version="1.0" encoding="UTF-8"?>
<svg width="700pt" height="700pt" version="1.1" viewBox="0 0 700 700" xmlns="http://www.w3.org/2000/svg" xmlns:xlink="http://www.w3.org/1999/xlink">
 <defs>
  <symbol id="s" overflow="visible">
   <path d="m0.26562-0.015625c-0.011719 0.011719-0.027344 0.015625-0.046875 0.015625h-0.046875c-0.042969 0-0.078125-0.0078125-0.10938-0.03125-0.03125-0.03125-0.046875-0.066406-0.046875-0.10938 0-0.050781 0.015625-0.085937 0.046875-0.10938 0.03125-0.03125 0.066406-0.046875 0.10938-0.046875 0.019531 0 0.035156 0.007813 0.046875 0.015625h0.046875v0.0625c-0.011719-0.007812-0.027344-0.015625-0.046875-0.015625-0.011719-0.007813-0.023438-0.015625-0.03125-0.015625-0.03125 0-0.058594 0.011719-0.078125 0.03125-0.011719 0.023438-0.015625 0.046875-0.015625 0.078125s0.0039062 0.058594 0.015625 0.078125c0.019531 0.011719 0.046875 0.015625 0.078125 0.015625h0.03125c0.019531-0.0078125 0.035156-0.019531 0.046875-0.03125z"/>
  </symbol>
  <symbol id="d" overflow="visible">
   <path d="m0.1875-0.15625h-0.015625c0-0.007812-0.007813-0.015625-0.015625-0.015625-0.023438 0-0.039062 0.011719-0.046875 0.03125v0.046875 0.09375h-0.078125v-0.21875h0.078125v0.03125c0.007813-0.007812 0.019531-0.015625 0.03125-0.015625 0.007813-0.007813 0.019531-0.015625 0.03125-0.015625h0.015625z"/>
  </symbol>
  <symbol id="a" overflow="visible">
   <path d="m0.25-0.10938v0.015625h-0.15625c0 0.023438 0.0039062 0.039062 0.015625 0.046875h0.046875 0.03125c0.019531-0.0078125 0.039062-0.015625 0.0625-0.015625v0.046875c-0.023438 0.011719-0.042969 0.015625-0.0625 0.015625h-0.046875c-0.042969 0-0.074219-0.0078125-0.09375-0.03125-0.023438-0.019531-0.03125-0.046875-0.03125-0.078125s0.0078125-0.054687 0.03125-0.078125c0.019531-0.019531 0.050781-0.03125 0.09375-0.03125 0.03125 0 0.054687 0.011719 0.078125 0.03125 0.019531 0.023438 0.03125 0.046875 0.03125 0.078125zm-0.0625-0.015625c0-0.019531-0.007812-0.03125-0.015625-0.03125-0.011719-0.007812-0.023437-0.015625-0.03125-0.015625-0.011719 0-0.023437 0.007813-0.03125 0.015625-0.011719 0-0.015625 0.011719-0.015625 0.03125z"/>
  </symbol>
  <symbol id="j" overflow="visible">
   <path d="m0.125-0.09375c-0.011719 0-0.023438 0.0078125-0.03125 0.015625v0.015625 0.015625h0.03125 0.03125c0.007812-0.0078125 0.015625-0.023438 0.015625-0.046875zm0.10938-0.03125v0.125h-0.0625v-0.03125c-0.011719 0.011719-0.023437 0.023438-0.03125 0.03125h-0.046875c-0.023438 0-0.042969-0.0039062-0.0625-0.015625-0.011719-0.0078125-0.015625-0.023438-0.015625-0.046875 0-0.03125 0.0039062-0.050781 0.015625-0.0625 0.019531-0.007812 0.050781-0.015625 0.09375-0.015625h0.046875c0-0.007813-0.007813-0.015625-0.015625-0.015625-0.011719-0.007812-0.027344-0.015625-0.046875-0.015625h-0.046875c-0.011719 0-0.023438 0.007813-0.03125 0.015625v-0.0625h0.046875 0.046875c0.039062 0 0.066406 0.011719 0.078125 0.03125 0.019531 0.011719 0.03125 0.03125 0.03125 0.0625z"/>
  </symbol>
  <symbol id="c" overflow="visible">
   <path d="m0.10938-0.28125v0.0625h0.078125v0.046875h-0.078125v0.09375 0.03125h0.03125 0.03125v0.046875h-0.046875c-0.03125 0-0.058594-0.0039062-0.078125-0.015625-0.011719-0.0078125-0.015625-0.03125-0.015625-0.0625v-0.09375h-0.03125v-0.046875h0.03125v-0.0625z"/>
  </symbol>
  <symbol id="i" overflow="visible">
   <path d="m0.1875-0.1875v-0.125h0.0625v0.3125h-0.0625v-0.03125c-0.011719 0.011719-0.027344 0.023438-0.046875 0.03125h-0.03125c-0.03125 0-0.058594-0.0078125-0.078125-0.03125-0.011719-0.019531-0.015625-0.046875-0.015625-0.078125s0.0039062-0.054687 0.015625-0.078125c0.019531-0.019531 0.046875-0.03125 0.078125-0.03125 0.007813 0 0.019531 0.007812 0.03125 0.015625 0.019531 0 0.035156 0.007813 0.046875 0.015625zm-0.046875 0.14062c0.007813 0 0.019531-0.0039062 0.03125-0.015625 0.007813-0.0078125 0.015625-0.023438 0.015625-0.046875 0-0.019531-0.007812-0.035156-0.015625-0.046875-0.011719-0.007812-0.023437-0.015625-0.03125-0.015625-0.023437 0-0.039063 0.007813-0.046875 0.015625v0.046875 0.046875c0.007812 0.011719 0.023438 0.015625 0.046875 0.015625z"/>
  </symbol>
  <symbol id="h" overflow="visible">
   <path d="m0.15625-0.046875c0.007812 0 0.015625-0.0039062 0.015625-0.015625 0.007813-0.0078125 0.015625-0.023438 0.015625-0.046875 0-0.019531-0.007812-0.035156-0.015625-0.046875 0-0.007812-0.007813-0.015625-0.015625-0.015625-0.023438 0-0.039062 0.007813-0.046875 0.015625v0.046875 0.046875c0.007813 0.011719 0.023437 0.015625 0.046875 0.015625zm-0.046875-0.14062c0.007813-0.007812 0.019531-0.015625 0.03125-0.015625 0.007813-0.007813 0.019531-0.015625 0.03125-0.015625 0.03125 0 0.050781 0.011719 0.0625 0.03125 0.019531 0.023438 0.03125 0.046875 0.03125 0.078125s-0.011719 0.058594-0.03125 0.078125c-0.011719 0.023438-0.03125 0.03125-0.0625 0.03125h-0.03125c-0.011719-0.0078125-0.023437-0.019531-0.03125-0.03125v0.03125h-0.078125v-0.3125h0.078125z"/>
  </symbol>
  <symbol id="g" overflow="visible">
   <path d="m0-0.21875h0.078125l0.046875 0.15625 0.0625-0.15625h0.0625l-0.09375 0.23438c0 0.03125-0.011719 0.050781-0.03125 0.0625-0.011719 0.0078125-0.027344 0.015625-0.046875 0.015625h-0.046875v-0.0625h0.03125 0.015625c0.0078125 0 0.015625-0.0078125 0.015625-0.015625v-0.015625z"/>
  </symbol>
  <symbol id="e" overflow="visible">
   <path d="m0.03125-0.21875h0.078125v0.21875c0 0.019531-0.011719 0.039062-0.03125 0.0625-0.011719 0.019531-0.03125 0.03125-0.0625 0.03125h-0.03125v-0.0625h0.015625 0.015625c0.0078125 0 0.015625-0.011719 0.015625-0.03125zm0-0.09375h0.078125v0.0625h-0.078125z"/>
  </symbol>
  <symbol id="b" overflow="visible">
   <path d="m0.14062-0.17188c-0.023437 0-0.039063 0.007813-0.046875 0.015625v0.046875 0.046875c0.007812 0.011719 0.023438 0.015625 0.046875 0.015625 0.007813 0 0.019531-0.0039062 0.03125-0.015625 0.007813-0.0078125 0.015625-0.023438 0.015625-0.046875 0-0.019531-0.007812-0.035156-0.015625-0.046875-0.011719-0.007812-0.023437-0.015625-0.03125-0.015625zm0-0.046875c0.03125 0 0.054687 0.011719 0.078125 0.03125 0.019531 0.023438 0.03125 0.046875 0.03125 0.078125s-0.011719 0.058594-0.03125 0.078125c-0.023438 0.023438-0.046875 0.03125-0.078125 0.03125-0.042969 0-0.074219-0.0078125-0.09375-0.03125-0.023438-0.019531-0.03125-0.046875-0.03125-0.078125s0.0078125-0.054687 0.03125-0.078125c0.019531-0.019531 0.050781-0.03125 0.09375-0.03125z"/>
  </symbol>
  <symbol id="f" overflow="visible">
   <path d="m0.25-0.125v0.125h-0.0625v-0.09375-0.046875c0-0.007813-0.007812-0.015625-0.015625-0.015625h-0.015625v-0.015625c-0.023438 0-0.039062 0.007813-0.046875 0.015625v0.046875 0.10938h-0.078125v-0.21875h0.078125v0.03125c0.007813-0.007812 0.019531-0.015625 0.03125-0.015625 0.007813-0.007813 0.019531-0.015625 0.03125-0.015625 0.03125 0 0.050781 0.011719 0.0625 0.03125 0.007813 0.011719 0.015625 0.03125 0.015625 0.0625z"/>
  </symbol>
  <symbol id="r" overflow="visible">
   <path d="m0.03125-0.21875h0.078125v0.21875h-0.078125zm0-0.09375h0.078125v0.0625h-0.078125z"/>
  </symbol>
  <symbol id="q" overflow="visible">
   <path d="m0.17188-0.3125v0.0625h-0.03125-0.03125v0.015625 0.015625h0.0625v0.046875h-0.0625v0.17188h-0.0625v-0.17188h-0.046875v-0.046875h0.046875v-0.015625c0-0.019531 0.0039062-0.035156 0.015625-0.046875 0.0078125-0.019531 0.03125-0.03125 0.0625-0.03125z"/>
  </symbol>
  <symbol id="p" overflow="visible">
   <path d="m0.23438-0.1875c0.007813-0.007812 0.019531-0.015625 0.03125-0.015625 0.007813-0.007813 0.023437-0.015625 0.046875-0.015625 0.019531 0 0.035156 0.011719 0.046875 0.03125 0.019531 0.011719 0.03125 0.03125 0.03125 0.0625v0.125h-0.078125v-0.10938-0.015625c0-0.019531-0.007812-0.03125-0.015625-0.03125 0-0.007812-0.007813-0.015625-0.015625-0.015625-0.011719 0-0.023438 0.007813-0.03125 0.015625v0.046875 0.10938h-0.078125v-0.10938c0-0.03125-0.007813-0.046875-0.015625-0.046875 0-0.007812-0.007812-0.015625-0.015625-0.015625-0.011719 0-0.023437 0.007813-0.03125 0.015625v0.046875 0.10938h-0.078125v-0.21875h0.078125v0.03125c0.007813-0.007812 0.019531-0.015625 0.03125-0.015625 0.007813-0.007813 0.019531-0.015625 0.03125-0.015625 0.007813 0 0.019531 0.007812 0.03125 0.015625 0.007813 0 0.019531 0.007813 0.03125 0.015625z"/>
  </symbol>
  <symbol id="o" overflow="visible">
   <path d="m0.25-0.125v0.125h-0.0625v-0.09375-0.046875c0-0.007813-0.007812-0.015625-0.015625-0.015625h-0.015625v-0.015625c-0.023438 0-0.039062 0.007813-0.046875 0.015625v0.046875 0.10938h-0.078125v-0.3125h0.078125v0.125c0.007813-0.007812 0.019531-0.015625 0.03125-0.015625 0.007813-0.007813 0.019531-0.015625 0.03125-0.015625 0.03125 0 0.050781 0.011719 0.0625 0.03125 0.007813 0.011719 0.015625 0.03125 0.015625 0.0625z"/>
  </symbol>
  <symbol id="n" overflow="visible">
   <path d="m0.03125-0.29688h0.09375l0.09375 0.20312v-0.20312h0.078125v0.29688h-0.078125l-0.10938-0.20312v0.20312h-0.078125z"/>
  </symbol>
  <symbol id="m" overflow="visible">
   <path d="m0.03125-0.09375v-0.125h0.0625v0.015625 0.046875 0.03125 0.046875c0.007812 0.011719 0.015625 0.015625 0.015625 0.015625v0.015625h0.03125c0.007813 0 0.019531-0.0039062 0.03125-0.015625 0.007813-0.0078125 0.015625-0.023438 0.015625-0.046875v-0.10938h0.0625v0.21875h-0.0625v-0.03125c-0.023438 0.011719-0.039062 0.023438-0.046875 0.03125h-0.03125c-0.03125 0-0.054688-0.0039062-0.0625-0.015625-0.011719-0.019531-0.015625-0.046875-0.015625-0.078125z"/>
  </symbol>
  <symbol id="l" overflow="visible">
   <path d="m0.03125-0.29688h0.125c0.039062 0 0.070312 0.011719 0.09375 0.03125 0.019531 0.011719 0.03125 0.039063 0.03125 0.078125 0 0.023438-0.011719 0.042969-0.03125 0.0625-0.023438 0.023438-0.054688 0.03125-0.09375 0.03125h-0.046875v0.09375h-0.078125zm0.078125 0.0625v0.078125h0.046875 0.03125c0.007812-0.007812 0.015625-0.019531 0.015625-0.03125 0-0.019531-0.007813-0.03125-0.015625-0.03125-0.011719-0.007812-0.023438-0.015625-0.03125-0.015625z"/>
  </symbol>
  <symbol id="k" overflow="visible">
   <path d="m0.21875-0.21875v0.0625h-0.046875c0-0.007812-0.007813-0.015625-0.015625-0.015625-0.023438 0-0.039062 0.007813-0.046875 0.015625-0.011719 0.011719-0.015625 0.027344-0.015625 0.046875 0 0.023438 0.0039062 0.039062 0.015625 0.046875 0.007813 0.011719 0.023437 0.015625 0.046875 0.015625h0.03125c0.007812-0.0078125 0.019531-0.015625 0.03125-0.015625v0.0625h-0.046875-0.03125c-0.042969 0-0.074219-0.0078125-0.09375-0.03125-0.023438-0.019531-0.03125-0.046875-0.03125-0.078125s0.0078125-0.054687 0.03125-0.078125c0.019531-0.019531 0.050781-0.03125 0.09375-0.03125h0.03125 0.046875z"/>
  </symbol>
 </defs>
 <g>
  <path d="m500.27 518.42h9.2305c3.0508 0 5.5391 2.4883 5.5391 5.5391v30.504c0 3.0508-2.4883 5.5391-5.5391 5.5391h-319.02c-3.0508 0-5.5391-2.4883-5.5391-5.5391v-30.504c0-3.0508 2.4883-5.5391 5.5391-5.5391h9.2305c1.3633-55.469 40.781-39.414 33.875-102.43-22.957-5.9414-19.348-40.137 3.6914-41.664 21.191-65.266 32.27-131.81 29.543-201.25h-28.098c-3.0508 0-5.5391-2.4883-5.5391-5.5391l-0.082031-37.41-17.82-123.79c-0.48047-3.293 2.168-6.3398 5.457-6.3398h49.93c3.0508 0 5.457 2.3281 5.5391 5.6211l6.4219 71.766h30.906l-2.7305-71.605c-0.16016-3.1289 2.4102-5.7812 5.5391-5.7812h69.598c3.2109 0 5.7812 2.6484 5.5391 6.2617l-2.7305 71.125h30.906l6.4219-72.328c0.24219-2.8906 2.6484-5.0586 5.5391-5.0586h49.93c3.4531 0 6.1016 2.9688 5.457 6.7422l-17.82 123.62v37.168c0 3.0508-2.4883 5.5391-5.6211 5.5391h-28.016c-3.5312 69.68 4.8164 137.51 29.379 201.49 21.996 4.0156 22.797 35.883 1.5234 41.422-5.8594 64.781 32.512 46.801 33.797 102.43zm-38.852-132.7h-222.77c-12.684 0-12.441 19.508 0 19.508h222.77c12.602 0 12.363-19.508 0-19.508zm-195.79-374.56h-38.453l16.297 112.87h215.38l16.297-112.87h-38.453l-6.3398 71.766c0 3.1289-2.5703 5.6211-5.6211 5.6211h-41.742c-3.2109 0-5.6992-2.6484-5.6211-5.7812l2.8086-71.605h-58.039l2.7305 71.125c0.32031 3.6133-2.2461 6.2617-5.5391 6.2617h-41.742c-2.8906 0-5.2969-2.2461-5.5391-5.1367l-6.4219-72.246zm-21.273 150.76h213.69v-26.73h-213.69zm180.06 11.16h-146.5c2.7305 69.438-8.1094 135.91-28.898 201.17h203.9c-23.84-63.98-31.949-131.73-28.496-201.17zm-228.3 375.77h307.77v-19.266h-307.77zm14.77-30.426h278.31c-1.125-52.98-41.102-31.949-33.957-101.79h-210.4c7.4648 69.277-32.832 48.648-33.957 101.79z"/>
  <use x="184.953125" y="561.203125" xlink:href="#s"/>
  <use x="185.25" y="561.203125" xlink:href="#d"/>
  <use x="185.445313" y="561.203125" xlink:href="#a"/>
  <use x="185.71875" y="561.203125" xlink:href="#j"/>
  <use x="185.988281" y="561.203125" xlink:href="#c"/>
  <use x="186.179688" y="561.203125" xlink:href="#a"/>
  <use x="186.453125" y="561.203125" xlink:href="#i"/>
  <use x="186.878906" y="561.203125" xlink:href="#h"/>
  <use x="187.167969" y="561.203125" xlink:href="#g"/>
  <use x="187.570313" y="561.203125" xlink:href="#e"/>
  <use x="187.707031" y="561.203125" xlink:href="#b"/>
  <use x="187.984375" y="561.203125" xlink:href="#f"/>
  <use x="188.269531" y="561.203125" xlink:href="#r"/>
  <use x="184.953125" y="561.605469" xlink:href="#q"/>
  <use x="185.128906" y="561.605469" xlink:href="#d"/>
  <use x="185.328125" y="561.605469" xlink:href="#b"/>
  <use x="185.601562" y="561.605469" xlink:href="#p"/>
  <use x="186.160156" y="561.605469" xlink:href="#c"/>
  <use x="186.351562" y="561.605469" xlink:href="#o"/>
  <use x="186.636719" y="561.605469" xlink:href="#a"/>
  <use x="187.050781" y="561.605469" xlink:href="#n"/>
  <use x="187.386719" y="561.605469" xlink:href="#b"/>
  <use x="187.660156" y="561.605469" xlink:href="#m"/>
  <use x="187.949219" y="561.605469" xlink:href="#f"/>
  <use x="188.371094" y="561.605469" xlink:href="#l"/>
  <use x="188.667969" y="561.605469" xlink:href="#d"/>
  <use x="188.863281" y="561.605469" xlink:href="#b"/>
  <use x="189.140625" y="561.605469" xlink:href="#e"/>
  <use x="189.277344" y="561.605469" xlink:href="#a"/>
  <use x="189.550781" y="561.605469" xlink:href="#k"/>
  <use x="189.789062" y="561.605469" xlink:href="#c"/>
 </g>
</svg>
